<svg width="51" height="47" viewBox="0 0 51 47" fill="none" xmlns="http://www.w3.org/2000/svg">
<path d="M2.53498 20.3545C2.53498 21.9418 3.39297 22.6265 5.38196 22.6265H18.4858C20.4748 22.6265 21.3328 21.9418 21.3328 20.3545V16.0595H15.0929V17.2733C15.0929 17.7091 14.7809 17.9581 14.2349 17.9581H10.3739C9.82792 17.9581 9.51592 17.7091 9.51592 17.2733V13.7564H17.4719V9.08796H9.51592V5.04195H13.2989C13.8449 5.04195 14.1569 5.29093 14.1569 5.72666V6.94046H20.3968V2.64547C20.3968 1.05819 19.5388 0.373478 17.5499 0.373478H0V5.04195H2.53498V20.3545Z" fill="#6A56E8"/>
<path d="M24.0902 11.2977C24.0902 18.8917 30.5642 23 37.5841 23C42.3421 23 45.111 21.0704 45.111 21.0704H45.189C45.189 21.0704 45.15 21.5372 45.15 22.0041V22.6265H51V12.3248C51 10.7375 50.142 10.0528 48.153 10.0528H42.2641V14.7212H43.9411C44.4871 14.7212 44.7991 14.9702 44.7991 15.406V16.2463C44.7991 16.2463 42.6931 17.8647 39.0271 17.8647C35.0491 17.8647 31.3442 15.6549 31.3442 11.2666C31.3442 7.37618 34.9711 5.07307 38.6761 5.07307C42.3421 5.07307 45.111 6.84709 45.111 6.84709L49.011 2.89445C49.011 2.89445 45.657 0 38.5201 0C30.2132 0 24.0902 4.91746 24.0902 11.2977Z" fill="#6A56E8"/>
<path d="M4.5373 47H11.5246V39.9217H12.4615C13.9058 39.9217 14.4913 40.0685 14.9597 40.7147L18.2387 45.4434C19.1365 46.7357 20.2295 47 22.1813 47H26.0067V42.5944H25.5383C24.7576 42.5944 24.055 42.5357 23.6256 41.9189L21.869 39.393C21.2444 38.4825 20.1514 38.1301 20.1514 38.1301V38.0713C20.1514 38.0713 24.2501 36.8084 24.2501 32.6084C24.2501 28.379 20.4637 26 15.0378 26H2V30.4056H4.5373V47ZM11.5246 35.5161V30.4056H14.0619C16.0137 30.4056 17.1067 31.2573 17.1067 32.9315C17.1067 34.6056 16.0137 35.5161 13.9448 35.5161H11.5246Z" fill="#6A56E8"/>
<path d="M30.8968 47H37.8841V40.5091H41.9048C47.3307 40.5091 51 37.4545 51 33.2252C51 28.9958 47.3307 26 41.9048 26H28.3595V30.4056H30.8968V47ZM37.8841 36.1035V30.4056H40.6166C42.7635 30.4056 43.8565 31.551 43.8565 33.2252C43.8565 34.8993 42.7635 36.1035 40.4995 36.1035H37.8841Z" fill="#6A56E8"/>
</svg>
