<svg width="24" height="25" viewBox="0 0 24 25" fill="none" xmlns="http://www.w3.org/2000/svg">
<path d="M18.997 20.6377C10.466 20.6497 3.99101 14.0977 4.00001 5.64069C4.00001 5.08769 4.44801 4.6377 5.00001 4.6377H7.64001C8.13501 4.6377 8.55601 5.0017 8.62901 5.49169C8.80311 6.66675 9.14493 7.81074 9.64401 8.88869L9.74701 9.11069C9.81619 9.26008 9.83108 9.42894 9.78909 9.58813C9.7471 9.74731 9.65087 9.88686 9.51701 9.98269C8.69901 10.5667 8.38701 11.7417 9.02401 12.6577C9.82301 13.8077 10.83 14.8157 11.98 15.6147C12.897 16.2507 14.072 15.9387 14.655 15.1217C14.7507 14.9874 14.8904 14.8908 15.0498 14.8486C15.2092 14.8065 15.3784 14.8213 15.528 14.8907L15.749 14.9927C16.827 15.4927 17.971 15.8347 19.146 16.0087C19.636 16.0817 20 16.5027 20 16.9987V19.6377C20 19.7691 19.9741 19.8992 19.9238 20.0206C19.8735 20.142 19.7997 20.2523 19.7068 20.3451C19.6138 20.438 19.5034 20.5117 19.382 20.5619C19.2605 20.612 19.1304 20.6378 18.999 20.6377H18.997Z" stroke="#39393C" stroke-width="1.5"/>
</svg>
