<svg width="10" height="8" viewBox="0 0 10 8" fill="none" xmlns="http://www.w3.org/2000/svg">
<path d="M0.978553 4.33725C0.783291 4.14199 0.466709 4.14199 0.271447 4.33725C0.0761845 4.53251 0.0761845 4.84909 0.271447 5.04436L0.978553 4.33725ZM2.92763 6.99343L2.57408 7.34699C2.76425 7.53716 3.07078 7.54283 3.26786 7.35983L2.92763 6.99343ZM9.71523 1.37299C9.91758 1.18509 9.9293 0.868722 9.7414 0.666366C9.5535 0.464011 9.23713 0.452294 9.03477 0.640195L9.71523 1.37299ZM0.271447 5.04436L2.57408 7.34699L3.28118 6.63988L0.978553 4.33725L0.271447 5.04436ZM3.26786 7.35983L9.71523 1.37299L9.03477 0.640195L2.58741 6.62704L3.26786 7.35983Z" fill="#39393C"/>
</svg>
