<svg width="15" height="12" viewBox="0 0 15 12" fill="none" xmlns="http://www.w3.org/2000/svg">
<path d="M2.20711 6.79289C1.81658 6.40237 1.18342 6.40237 0.792893 6.79289C0.402369 7.18342 0.402369 7.81658 0.792893 8.20711L2.20711 6.79289ZM14.226 1.68774C14.6058 1.28681 14.5887 0.653878 14.1877 0.274047C13.7868 -0.105784 13.1539 -0.0886773 12.774 0.312255L14.226 1.68774ZM5.20658 9.75416L4.48063 9.06642L5.20658 9.75416ZM0.792893 8.20711L3.06642 10.4806L4.48063 9.06642L2.20711 6.79289L0.792893 8.20711ZM5.93254 10.4419L14.226 1.68774L12.774 0.312255L4.48063 9.06642L5.93254 10.4419ZM3.06642 10.4806C3.86243 11.2766 5.15832 11.2591 5.93254 10.4419L4.48063 9.06642L4.48063 9.06642L3.06642 10.4806Z" fill="#151516"/>
</svg>
