<svg width="16" height="16" viewBox="0 0 16 16" fill="none" xmlns="http://www.w3.org/2000/svg">
<path d="M7.9987 14.6668C11.6806 14.6668 14.6654 11.6821 14.6654 8.00016C14.6654 4.31826 11.6806 1.3335 7.9987 1.3335C4.3168 1.3335 1.33203 4.31826 1.33203 8.00016C1.33203 11.6821 4.3168 14.6668 7.9987 14.6668Z" fill="#3BB965"/>
<path d="M5.53033 8.41704C5.23744 8.12415 4.76256 8.12415 4.46967 8.41704C4.17678 8.70993 4.17678 9.18481 4.46967 9.4777L5.53033 8.41704ZM6.84211 10.7895L6.31178 11.3198C6.59703 11.6051 7.05683 11.6136 7.35244 11.3391L6.84211 10.7895ZM12.5103 6.5496C12.8139 6.26774 12.8314 5.79319 12.5496 5.48966C12.2677 5.18613 11.7932 5.16855 11.4897 5.4504L12.5103 6.5496ZM4.46967 9.4777L6.31178 11.3198L7.37244 10.2591L5.53033 8.41704L4.46967 9.4777ZM7.35244 11.3391L12.5103 6.5496L11.4897 5.4504L6.33177 10.2399L7.35244 11.3391Z" fill="#F2F4F7"/>
</svg>
