<svg width="98" height="108" viewBox="0 0 98 108" fill="none" xmlns="http://www.w3.org/2000/svg">
<g filter="url(#filter0_b_2915_40850)">
<mask id="path-1-outside-1_2915_40850" maskUnits="userSpaceOnUse" x="-2.36951" y="-2.27183" width="102.043" height="98.1814" fill="black">
<rect fill="white" x="-2.36951" y="-2.27183" width="102.043" height="98.1814"/>
<path d="M87.9388 47.0825C83.5651 43.7237 81.2215 40.5081 79.9495 34.4739L79.517 32.4222C77.8595 24.5588 74.9817 19.8739 69.979 15.6369C62.2559 9.0471 51.0469 6.45696 41.0524 8.56373L40.6274 8.65332C30.843 10.7158 21.9073 17.3249 17.329 26.1742C14.2687 32.2169 13.3627 37.9269 15.0661 46.008L15.4986 48.0597C16.7706 54.0939 16.0294 57.9597 13.2785 62.8203C11.2552 66.4005 11.2233 70.4606 12.1087 74.6608C12.9951 78.8659 15.2146 82.5574 18.6666 85.2109C23.0995 88.3298 28.7264 89.7313 34.0317 89.0628C41.7629 88.3327 49.3808 87.0655 57.0402 85.451C64.6949 83.8374 72.1302 81.7041 79.5489 79.4681C84.6679 77.9392 89.2504 74.3857 92.0471 69.7428C94.1296 65.9227 94.6749 61.6483 93.7885 57.4433C92.9031 53.243 91.2351 49.5413 87.9388 47.0825Z"/>
</mask>
<path d="M87.9388 47.0825C83.5651 43.7237 81.2215 40.5081 79.9495 34.4739L79.517 32.4222C77.8595 24.5588 74.9817 19.8739 69.979 15.6369C62.2559 9.0471 51.0469 6.45696 41.0524 8.56373L40.6274 8.65332C30.843 10.7158 21.9073 17.3249 17.329 26.1742C14.2687 32.2169 13.3627 37.9269 15.0661 46.008L15.4986 48.0597C16.7706 54.0939 16.0294 57.9597 13.2785 62.8203C11.2552 66.4005 11.2233 70.4606 12.1087 74.6608C12.9951 78.8659 15.2146 82.5574 18.6666 85.2109C23.0995 88.3298 28.7264 89.7313 34.0317 89.0628C41.7629 88.3327 49.3808 87.0655 57.0402 85.451C64.6949 83.8374 72.1302 81.7041 79.5489 79.4681C84.6679 77.9392 89.2504 74.3857 92.0471 69.7428C94.1296 65.9227 94.6749 61.6483 93.7885 57.4433C92.9031 53.243 91.2351 49.5413 87.9388 47.0825Z" fill="#E1D2FF" fill-opacity="0.6"/>
<path d="M87.2064 48.0362C87.7331 48.4407 88.488 48.3416 88.8925 47.8149C89.297 47.2882 89.1979 46.5333 88.6712 46.1288L87.2064 48.0362ZM69.979 15.6369L69.1984 16.5517L69.2018 16.5546L69.979 15.6369ZM17.329 26.1742L16.2609 25.6216L16.2562 25.6309L17.329 26.1742ZM13.2785 62.8203L12.232 62.2281L12.2316 62.2287L13.2785 62.8203ZM18.6666 85.2109L17.9338 86.1643C17.9472 86.1746 17.9608 86.1846 17.9746 86.1944L18.6666 85.2109ZM34.0317 89.0628L33.9187 87.8656C33.9062 87.8668 33.8938 87.8681 33.8814 87.8697L34.0317 89.0628ZM79.5489 79.4681L79.2048 78.3159L79.2019 78.3167L79.5489 79.4681ZM92.0471 69.7428L93.0772 70.3633C93.0861 70.3485 93.0947 70.3335 93.1029 70.3184L92.0471 69.7428ZM88.6578 46.1186C88.1255 45.7215 87.372 45.8311 86.9749 46.3635C86.5778 46.8958 86.6874 47.6493 87.2198 48.0464L88.6578 46.1186ZM88.6712 46.1288C86.5492 44.4991 84.9807 42.9508 83.7878 41.124C82.5968 39.2999 81.7395 37.1356 81.1261 34.2259L78.7728 34.7219C79.4314 37.8464 80.382 40.307 81.7741 42.4389C83.1645 44.5682 84.9547 46.3071 87.2064 48.0362L88.6712 46.1288ZM81.1261 34.2259L80.6937 32.1741L78.3403 32.6702L78.7728 34.7219L81.1261 34.2259ZM80.6937 32.1741C78.9859 24.0725 75.98 19.1435 70.7561 14.7193L69.2018 16.5546C73.9834 20.6043 76.733 25.0452 78.3403 32.6702L80.6937 32.1741ZM70.7595 14.7221C62.7352 7.87533 51.1407 5.20825 40.8044 7.38707L41.3004 9.74039C50.9531 7.70567 61.7766 10.2189 69.1984 16.5517L70.7595 14.7221ZM40.8044 7.38707L40.3794 7.47666L40.8754 9.82998L41.3004 9.74039L40.8044 7.38707ZM40.3794 7.47666C30.2558 9.61064 21.0115 16.4393 16.2609 25.6216L18.397 26.7267C22.8031 18.2104 31.4303 11.821 40.8754 9.82998L40.3794 7.47666ZM16.2562 25.6309C13.0668 31.9285 12.132 37.9189 13.8894 46.256L16.2428 45.7599C14.5933 37.9348 15.4706 32.5053 18.4018 26.7175L16.2562 25.6309ZM13.8894 46.256L14.3219 48.3077L16.6753 47.8116L16.2428 45.7599L13.8894 46.256ZM14.3219 48.3077C14.9372 51.2264 15.0503 53.5477 14.7095 55.6913C14.3688 57.8346 13.562 59.8779 12.232 62.228L14.3251 63.4126C15.7459 60.9021 16.6851 58.5823 17.0847 56.0689C17.4842 53.5559 17.332 50.9272 16.6753 47.8116L14.3219 48.3077ZM12.2316 62.2287C10.0055 66.1678 10.0166 70.5662 10.932 74.9088L13.2853 74.4128C12.43 70.3549 12.505 66.6333 14.3254 63.412L12.2316 62.2287ZM10.932 74.9088C11.8742 79.3787 14.2421 83.3266 17.9338 86.1643L19.3995 84.2575C16.1871 81.7883 14.1159 78.353 13.2853 74.4128L10.932 74.9088ZM17.9746 86.1944C22.6505 89.4842 28.5774 90.9621 34.1821 90.2559L33.8814 87.8697C28.8754 88.5005 23.5484 87.1753 19.3586 84.2274L17.9746 86.1944ZM34.1448 90.26C41.9318 89.5246 49.596 88.2491 57.2883 86.6276L56.7922 84.2743C49.1656 85.882 41.5939 87.1408 33.9187 87.8656L34.1448 90.26ZM57.2883 86.6276C64.9951 85.0031 72.4706 82.8574 79.896 80.6194L79.2019 78.3167C71.7899 80.5507 64.3947 82.6718 56.7922 84.2743L57.2883 86.6276ZM79.8931 80.6203C85.3012 79.0051 90.1272 75.2605 93.0772 70.3633L91.0171 69.1223C88.3735 73.5108 84.0346 76.8734 79.2048 78.3159L79.8931 80.6203ZM93.1029 70.3184C95.3294 66.2342 95.9076 61.666 94.9652 57.1952L92.6118 57.6913C93.4422 61.6307 92.9298 65.6113 90.9913 69.1672L93.1029 70.3184ZM94.9652 57.1952C94.0498 52.8526 92.2845 48.8239 88.6578 46.1186L87.2198 48.0464C90.1856 50.2587 91.7565 53.6335 92.6118 57.6913L94.9652 57.1952Z" fill="url(#paint0_linear_2915_40850)" mask="url(#path-1-outside-1_2915_40850)"/>
</g>
<g filter="url(#filter1_b_2915_40850)">
<mask id="path-3-outside-2_2915_40850" maskUnits="userSpaceOnUse" x="41.8463" y="86.1535" width="35.0246" height="24.2133" fill="black">
<rect fill="white" x="41.8463" y="86.1535" width="35.0246" height="24.2133"/>
<path d="M68.0106 89.6844C65.5005 89.6777 50.8645 92.7629 48.5707 93.7822C46.6173 94.6892 44.6294 96.2605 45.1394 98.68C45.7454 100.963 47.5262 102.715 49.6704 103.613L49.6667 103.619C52.4855 104.996 55.5797 105.597 58.6454 105.4C60.2767 105.284 61.8887 104.934 63.4875 104.38C66.3669 103.323 68.9552 101.524 70.9784 99.1263L70.9726 99.1225C72.5721 97.4359 73.4941 95.1138 73.1269 92.7805C72.6169 90.361 70.1639 89.7258 68.0106 89.6844Z"/>
</mask>
<path d="M68.0106 89.6844C65.5005 89.6777 50.8645 92.7629 48.5707 93.7822C46.6173 94.6892 44.6294 96.2605 45.1394 98.68C45.7454 100.963 47.5262 102.715 49.6704 103.613L49.6667 103.619C52.4855 104.996 55.5797 105.597 58.6454 105.4C60.2767 105.284 61.8887 104.934 63.4875 104.38C66.3669 103.323 68.9552 101.524 70.9784 99.1263L70.9726 99.1225C72.5721 97.4359 73.4941 95.1138 73.1269 92.7805C72.6169 90.361 70.1639 89.7258 68.0106 89.6844Z" fill="#E1D2FF" fill-opacity="0.6"/>
<path d="M68.0074 90.8869C68.6715 90.8886 69.2113 90.3517 69.2131 89.6875C69.2148 89.0234 68.6779 88.4836 68.0137 88.4819L68.0074 90.8869ZM48.5707 93.7822L48.0824 92.6832C48.0763 92.6859 48.0703 92.6887 48.0643 92.6915L48.5707 93.7822ZM45.1394 98.68L43.9628 98.9281C43.9671 98.9483 43.9719 98.9685 43.9772 98.9885L45.1394 98.68ZM49.6704 103.613L50.6821 104.263C50.8743 103.964 50.9243 103.595 50.8186 103.256C50.713 102.916 50.4626 102.641 50.1347 102.504L49.6704 103.613ZM49.6667 103.619L48.655 102.969C48.4694 103.258 48.4161 103.612 48.5086 103.943C48.601 104.273 48.8304 104.549 49.1389 104.699L49.6667 103.619ZM58.6454 105.4L58.7223 106.6L58.731 106.6L58.6454 105.4ZM63.4875 104.38L63.8814 105.516C63.8882 105.513 63.895 105.511 63.9018 105.508L63.4875 104.38ZM70.9784 99.1263L71.8974 99.9019C72.1188 99.6395 72.2175 99.2949 72.1686 98.9551C72.1197 98.6152 71.9279 98.3125 71.6415 98.1232L70.9784 99.1263ZM70.9726 99.1225L70.1001 98.295C69.8554 98.553 69.7375 98.9059 69.7779 99.2592C69.8183 99.6124 70.0129 99.9296 70.3095 100.126L70.9726 99.1225ZM73.1269 92.7805L74.3148 92.5936C74.3116 92.5731 74.3078 92.5527 74.3036 92.5324L73.1269 92.7805ZM68.0337 88.4821C67.3697 88.4693 66.821 88.9973 66.8083 89.6613C66.7955 90.3253 67.3234 90.8739 67.9875 90.8867L68.0337 88.4821ZM68.0137 88.4819C67.2607 88.4799 65.7647 88.6942 64.032 88.9936C62.2528 89.3009 60.1013 89.7208 57.9615 90.1719C55.8217 90.623 53.6838 91.1072 51.9319 91.5442C50.2258 91.9697 48.7706 92.3774 48.0824 92.6832L49.059 94.8811C49.5177 94.6772 50.7522 94.3171 52.5139 93.8777C54.2298 93.4498 56.3379 92.972 58.4576 92.5252C60.5773 92.0784 62.6988 91.6646 64.4414 91.3635C66.2306 91.0544 67.5054 90.8856 68.0074 90.8869L68.0137 88.4819ZM48.0643 92.6915C47.0104 93.1809 45.8471 93.8918 45.0095 94.8917C44.1389 95.931 43.6186 97.2953 43.9628 98.9281L46.3161 98.432C46.1503 97.6453 46.369 97.0141 46.8531 96.4361C47.3703 95.8188 48.1777 95.2905 49.0772 94.8728L48.0643 92.6915ZM43.9772 98.9885C44.6963 101.698 46.7857 103.709 49.2061 104.722L50.1347 102.504C48.2666 101.722 46.7944 100.228 46.3017 98.3716L43.9772 98.9885ZM48.6587 102.963L48.655 102.969L50.6784 104.269L50.6821 104.263L48.6587 102.963ZM49.1389 104.699C52.146 106.168 55.4486 106.81 58.7223 106.6L58.5685 104.2C55.7108 104.383 52.825 103.823 50.1944 102.538L49.1389 104.699ZM58.731 106.6C60.478 106.475 62.1936 106.101 63.8814 105.516L63.0936 103.243C61.5837 103.767 60.0754 104.093 58.5598 104.201L58.731 106.6ZM63.9018 105.508C66.9768 104.38 69.7392 102.459 71.8974 99.9019L70.0594 98.3508C68.1712 100.588 65.757 102.266 63.0732 103.251L63.9018 105.508ZM71.6415 98.1232L71.6357 98.1193L70.3095 100.126L70.3153 100.129L71.6415 98.1232ZM71.8451 99.95C73.6507 98.0462 74.7506 95.363 74.3148 92.5936L71.939 92.9674C72.2376 94.8647 71.4936 96.8256 70.1001 98.295L71.8451 99.95ZM74.3036 92.5324C73.9594 90.8997 72.9327 89.8615 71.7167 89.262C70.5466 88.6853 69.1954 88.5044 68.0337 88.4821L67.9875 90.8867C68.979 90.9057 69.9309 91.0632 70.6533 91.4192C71.3296 91.7526 71.7844 92.2418 71.9502 93.0285L74.3036 92.5324Z" fill="url(#paint1_linear_2915_40850)" mask="url(#path-3-outside-2_2915_40850)"/>
</g>
<g filter="url(#filter2_bd_2915_40850)">
<path d="M57.081 21.3697C55.3396 20.9788 53.5814 21.9958 53.0379 23.6428C52.8552 24.5592 53.0006 25.5301 53.5186 26.3039C54.0367 27.0777 54.8477 27.6261 55.7982 27.8278L55.9237 27.8656C58.7544 28.7162 60.7876 31.2213 60.9794 34.1092C61.0717 35.9913 62.6668 37.442 64.538 37.3862C66.4214 37.2899 67.8639 35.7365 67.7919 33.9046C67.3786 28.0803 63.2729 23.0979 57.5629 21.5145L57.081 21.3697Z" fill="url(#paint2_linear_2915_40850)"/>
<path d="M55.8231 27.7102L55.8232 27.7098L55.8328 27.7127L55.9583 27.7504C58.8354 28.615 60.9041 31.1617 61.0994 34.1012L61.0994 34.1012L61.0995 34.1033C61.1886 35.9187 62.7272 37.3192 64.5331 37.266C66.3518 37.1723 67.7401 35.6737 67.6718 33.9112C67.2614 28.1393 63.1919 23.2002 57.5308 21.6304L57.5308 21.6304L57.5283 21.6296L57.0505 21.4861C55.3734 21.1119 53.6808 22.0906 53.1544 23.6735C52.9793 24.561 53.1221 25.4954 53.6186 26.237C54.1188 26.9842 54.9026 27.5148 55.8231 27.7102Z" stroke="url(#paint3_linear_2915_40850)" stroke-opacity="0.5" stroke-width="0.240504"/>
</g>
<defs>
<filter id="filter0_b_2915_40850" x="-7.68522" y="-11.3932" width="121.122" height="119.86" filterUnits="userSpaceOnUse" color-interpolation-filters="sRGB">
<feFlood flood-opacity="0" result="BackgroundImageFix"/>
<feGaussianBlur in="BackgroundImageFix" stdDeviation="9.01888"/>
<feComposite in2="SourceAlpha" operator="in" result="effect1_backgroundBlur_2915_40850"/>
<feBlend mode="normal" in="SourceGraphic" in2="effect1_backgroundBlur_2915_40850" result="shape"/>
</filter>
<filter id="filter1_b_2915_40850" x="25.8177" y="70.4442" width="66.6302" height="54.2327" filterUnits="userSpaceOnUse" color-interpolation-filters="sRGB">
<feFlood flood-opacity="0" result="BackgroundImageFix"/>
<feGaussianBlur in="BackgroundImageFix" stdDeviation="9.01888"/>
<feComposite in2="SourceAlpha" operator="in" result="effect1_backgroundBlur_2915_40850"/>
<feBlend mode="normal" in="SourceGraphic" in2="effect1_backgroundBlur_2915_40850" result="shape"/>
</filter>
<filter id="filter2_bd_2915_40850" x="34.9251" y="3.24837" width="50.9076" height="52.1771" filterUnits="userSpaceOnUse" color-interpolation-filters="sRGB">
<feFlood flood-opacity="0" result="BackgroundImageFix"/>
<feGaussianBlur in="BackgroundImageFix" stdDeviation="9.01888"/>
<feComposite in2="SourceAlpha" operator="in" result="effect1_backgroundBlur_2915_40850"/>
<feColorMatrix in="SourceAlpha" type="matrix" values="0 0 0 0 0 0 0 0 0 0 0 0 0 0 0 0 0 0 127 0" result="hardAlpha"/>
<feOffset dx="6.01259" dy="6.01259"/>
<feGaussianBlur stdDeviation="6.01259"/>
<feColorMatrix type="matrix" values="0 0 0 0 0.57165 0 0 0 0 0.15375 0 0 0 0 0.9 0 0 0 0.5 0"/>
<feBlend mode="normal" in2="effect1_backgroundBlur_2915_40850" result="effect2_dropShadow_2915_40850"/>
<feBlend mode="normal" in="SourceGraphic" in2="effect2_dropShadow_2915_40850" result="shape"/>
</filter>
<linearGradient id="paint0_linear_2915_40850" x1="14.8892" y1="23.4288" x2="76.6002" y2="76.8402" gradientUnits="userSpaceOnUse">
<stop stop-color="white" stop-opacity="0.25"/>
<stop offset="1" stop-color="white" stop-opacity="0"/>
</linearGradient>
<linearGradient id="paint1_linear_2915_40850" x1="49.0074" y1="94.9555" x2="58.3806" y2="109.132" gradientUnits="userSpaceOnUse">
<stop stop-color="white" stop-opacity="0.25"/>
<stop offset="1" stop-color="white" stop-opacity="0"/>
</linearGradient>
<linearGradient id="paint2_linear_2915_40850" x1="67.2743" y1="25.4195" x2="62.6245" y2="39.5844" gradientUnits="userSpaceOnUse">
<stop stop-color="white"/>
<stop offset="1" stop-color="white" stop-opacity="0.2"/>
</linearGradient>
<linearGradient id="paint3_linear_2915_40850" x1="61.5524" y1="35.1705" x2="64.7742" y2="24.2804" gradientUnits="userSpaceOnUse">
<stop stop-color="white"/>
<stop offset="1" stop-color="white" stop-opacity="0"/>
</linearGradient>
</defs>
</svg>
