<svg width="89" height="109" viewBox="0 0 89 109" fill="none" xmlns="http://www.w3.org/2000/svg">
<g filter="url(#filter0_b_27152_35464)">
<mask id="path-1-outside-1_27152_35464" maskUnits="userSpaceOnUse" x="-1.18476" y="-1.20418" width="57.4343" height="55.1176" fill="black">
<rect fill="white" x="-1.18476" y="-1.20418" width="57.4343" height="55.1176"/>
<path d="M49.415 26.4568C46.9573 24.5694 45.6404 22.7625 44.9256 19.3717L44.6826 18.2188C43.7512 13.8002 42.1341 11.1676 39.323 8.78676C34.9832 5.08377 28.6845 3.62831 23.0684 4.81215L22.8296 4.86249C17.3315 6.02145 12.3103 9.73526 9.73759 14.7079C8.01795 18.1035 7.50882 21.312 8.46602 25.853L8.70905 27.0059C9.4238 30.3967 9.00732 32.569 7.46154 35.3003C6.3246 37.3121 6.30666 39.5936 6.80418 41.9538C7.30227 44.3167 8.54947 46.3911 10.4892 47.8821C12.9802 49.6347 16.1421 50.4223 19.1233 50.0466C23.4676 49.6364 27.7483 48.9243 32.0524 48.0171C36.3537 47.1104 40.5318 45.9116 44.7006 44.6551C47.577 43.796 50.152 41.7992 51.7236 39.1902C52.8938 37.0436 53.2002 34.6417 52.7021 32.2788C52.2046 29.9186 51.2673 27.8385 49.415 26.4568Z"/>
</mask>
<path d="M49.415 26.4568C46.9573 24.5694 45.6404 22.7625 44.9256 19.3717L44.6826 18.2188C43.7512 13.8002 42.1341 11.1676 39.323 8.78676C34.9832 5.08377 28.6845 3.62831 23.0684 4.81215L22.8296 4.86249C17.3315 6.02145 12.3103 9.73526 9.73759 14.7079C8.01795 18.1035 7.50882 21.312 8.46602 25.853L8.70905 27.0059C9.4238 30.3967 9.00732 32.569 7.46154 35.3003C6.3246 37.3121 6.30666 39.5936 6.80418 41.9538C7.30227 44.3167 8.54947 46.3911 10.4892 47.8821C12.9802 49.6347 16.1421 50.4223 19.1233 50.0466C23.4676 49.6364 27.7483 48.9243 32.0524 48.0171C36.3537 47.1104 40.5318 45.9116 44.7006 44.6551C47.577 43.796 50.152 41.7992 51.7236 39.1902C52.8938 37.0436 53.2002 34.6417 52.7021 32.2788C52.2046 29.9186 51.2673 27.8385 49.415 26.4568Z" fill="#E1D2FF" fill-opacity="0.6"/>
<path d="M49.0035 26.9928C49.2995 27.2201 49.7237 27.1644 49.951 26.8684C50.1783 26.5724 50.1226 26.1482 49.8266 25.9209L49.0035 26.9928ZM39.323 8.78676L38.8843 9.30079L38.8862 9.3024L39.323 8.78676ZM9.73759 14.7079L9.13741 14.3974L9.13477 14.4026L9.73759 14.7079ZM7.46154 35.3003L6.87346 34.9675L6.87326 34.9679L7.46154 35.3003ZM10.4892 47.8821L10.0774 48.4179C10.085 48.4237 10.0926 48.4293 10.1004 48.4348L10.4892 47.8821ZM19.1233 50.0466L19.0598 49.3739C19.0528 49.3745 19.0458 49.3753 19.0388 49.3762L19.1233 50.0466ZM44.7006 44.6551L44.5072 44.0076L44.5056 44.0081L44.7006 44.6551ZM51.7236 39.1902L52.3024 39.5389C52.3074 39.5306 52.3123 39.5222 52.3169 39.5137L51.7236 39.1902ZM49.8191 25.9152C49.5199 25.6921 49.0965 25.7537 48.8734 26.0528C48.6503 26.3519 48.7119 26.7753 49.011 26.9985L49.8191 25.9152ZM49.8266 25.9209C48.6342 25.0052 47.7528 24.1351 47.0825 23.1086C46.4132 22.0836 45.9315 20.8674 45.5868 19.2324L44.2644 19.5111C44.6345 21.2668 45.1687 22.6495 45.9509 23.8475C46.7322 25.044 47.7382 26.0211 49.0035 26.9928L49.8266 25.9209ZM45.5868 19.2324L45.3438 18.0794L44.0214 18.3582L44.2644 19.5111L45.5868 19.2324ZM45.3438 18.0794C44.3842 13.5269 42.6951 10.7572 39.7597 8.27112L38.8862 9.3024C41.5732 11.578 43.1182 14.0735 44.0214 18.3582L45.3438 18.0794ZM39.7616 8.27273C35.2525 4.42532 28.7372 2.92662 22.929 4.15096L23.2078 5.47335C28.6319 4.32999 34.7138 5.74222 38.8843 9.30079L39.7616 8.27273ZM22.929 4.15096L22.6902 4.2013L22.9689 5.52369L23.2078 5.47335L22.929 4.15096ZM22.6902 4.2013C17.0015 5.40044 11.8069 9.23764 9.13743 14.3974L10.3378 15.0184C12.8136 10.2329 17.6615 6.64247 22.9689 5.52369L22.6902 4.2013ZM9.13477 14.4026C7.34259 17.9414 6.8173 21.3076 7.80483 25.9924L9.12722 25.7136C8.20034 21.3165 8.69332 18.2655 10.3404 15.0132L9.13477 14.4026ZM7.80483 25.9924L8.04786 27.1453L9.37025 26.8666L9.12722 25.7136L7.80483 25.9924ZM8.04786 27.1453C8.39358 28.7854 8.45715 30.0898 8.26565 31.2943C8.07418 32.4987 7.62085 33.6469 6.87346 34.9675L8.04962 35.6331C8.84801 34.2224 9.37581 32.9189 9.60034 31.5065C9.82484 30.0944 9.73928 28.6172 9.37025 26.8666L8.04786 27.1453ZM6.87326 34.9679C5.62235 37.1813 5.62859 39.6529 6.14298 42.0931L7.46537 41.8144C6.98472 39.5342 7.02685 37.4429 8.04982 35.6328L6.87326 34.9679ZM6.14298 42.0931C6.67244 44.6049 8.00297 46.8233 10.0774 48.4179L10.901 47.3464C9.09596 45.9589 7.93209 44.0285 7.46537 41.8144L6.14298 42.0931ZM10.1004 48.4348C12.7279 50.2834 16.0584 51.1139 19.2078 50.717L19.0388 49.3762C16.2258 49.7307 13.2325 48.986 10.8781 47.3295L10.1004 48.4348ZM19.1868 50.7193C23.5626 50.3061 27.8693 49.5894 32.1917 48.6783L31.913 47.3559C27.6274 48.2592 23.3727 48.9666 19.0598 49.3739L19.1868 50.7193ZM32.1917 48.6783C36.5224 47.7654 40.7231 46.5597 44.8956 45.3021L44.5056 44.0081C40.3406 45.2635 36.185 46.4553 31.913 47.3559L32.1917 48.6783ZM44.8939 45.3026C47.9329 44.395 50.6447 42.2908 52.3024 39.5389L51.1448 38.8416C49.6593 41.3075 47.2212 43.1971 44.5072 44.0076L44.8939 45.3026ZM52.3169 39.5137C53.568 37.2187 53.8929 34.6517 53.3633 32.1394L52.0409 32.4182C52.5076 34.6318 52.2196 36.8686 51.1303 38.8668L52.3169 39.5137ZM53.3633 32.1394C52.8489 29.6992 51.857 27.4354 49.8191 25.9152L49.011 26.9985C50.6776 28.2416 51.5603 30.138 52.0409 32.4182L53.3633 32.1394Z" fill="url(#paint0_linear_27152_35464)" mask="url(#path-1-outside-1_27152_35464)"/>
</g>
<g filter="url(#filter1_b_27152_35464)">
<mask id="path-3-outside-2_27152_35464" maskUnits="userSpaceOnUse" x="23.6609" y="48.5043" width="19.6756" height="13.4977" fill="black">
<rect fill="white" x="23.6609" y="48.5043" width="19.6756" height="13.4977"/>
<path d="M38.2166 50.3966C36.8061 50.3928 28.5818 52.1265 27.2928 52.6992C26.1952 53.2089 25.0781 54.0919 25.3647 55.4514C25.7052 56.7343 26.7059 57.719 27.9108 58.2233L27.9087 58.2266C29.4926 59.0003 31.2314 59.3381 32.9541 59.2277C33.8707 59.1623 34.7765 58.9657 35.6749 58.6542C37.2929 58.0604 38.7474 57.0495 39.8843 55.7022L39.881 55.7001C40.7798 54.7523 41.2979 53.4475 41.0916 52.1363C40.805 50.7768 39.4266 50.4198 38.2166 50.3966Z"/>
</mask>
<path d="M38.2166 50.3966C36.8061 50.3928 28.5818 52.1265 27.2928 52.6992C26.1952 53.2089 25.0781 54.0919 25.3647 55.4514C25.7052 56.7343 26.7059 57.719 27.9108 58.2233L27.9087 58.2266C29.4926 59.0003 31.2314 59.3381 32.9541 59.2277C33.8707 59.1623 34.7765 58.9657 35.6749 58.6542C37.2929 58.0604 38.7474 57.0495 39.8843 55.7022L39.881 55.7001C40.7798 54.7523 41.2979 53.4475 41.0916 52.1363C40.805 50.7768 39.4266 50.4198 38.2166 50.3966Z" fill="#E1D2FF" fill-opacity="0.6"/>
<path d="M38.2148 51.0723C38.588 51.0733 38.8913 50.7715 38.8923 50.3983C38.8933 50.0251 38.5915 49.7218 38.2184 49.7208L38.2148 51.0723ZM27.2928 52.6992L27.0184 52.0816L27.0082 52.0863L27.2928 52.6992ZM25.3647 55.4514L24.7035 55.5908C24.7059 55.6022 24.7086 55.6135 24.7116 55.6248L25.3647 55.4514ZM27.9108 58.2233L28.4793 58.5886C28.5873 58.4205 28.6153 58.2133 28.556 58.0225C28.4966 57.8318 28.3559 57.6771 28.1717 57.6L27.9108 58.2233ZM27.9087 58.2266L27.3402 57.8613C27.2359 58.0237 27.206 58.2228 27.2579 58.4086C27.3099 58.5944 27.4388 58.7491 27.6121 58.8338L27.9087 58.2266ZM32.9541 59.2277L32.9973 59.9021L33.0022 59.9017L32.9541 59.2277ZM35.6749 58.6542L35.8963 59.2927L35.9078 59.2885L35.6749 58.6542ZM39.8843 55.7022L40.4007 56.138C40.5251 55.9906 40.5806 55.797 40.5531 55.606C40.5256 55.415 40.4178 55.2449 40.2569 55.1385L39.8843 55.7022ZM39.881 55.7001L39.3907 55.2351C39.2532 55.38 39.187 55.5784 39.2097 55.7769C39.2324 55.9754 39.3417 56.1536 39.5084 56.2638L39.881 55.7001ZM41.0916 52.1363L41.7591 52.0313C41.7573 52.0198 41.7552 52.0083 41.7528 51.997L41.0916 52.1363ZM38.2296 49.721C37.8564 49.7138 37.5481 50.0104 37.541 50.3836C37.5338 50.7567 37.8305 51.065 38.2036 51.0722L38.2296 49.721ZM38.2184 49.7208C37.7952 49.7197 36.9546 49.8402 35.9809 50.0084C34.9811 50.1811 33.7722 50.417 32.5698 50.6705C31.3674 50.924 30.166 51.1961 29.1816 51.4416C28.2229 51.6807 27.4052 51.9099 27.0184 52.0817L27.5672 53.3167C27.825 53.2022 28.5187 52.9998 29.5086 52.7529C30.4728 52.5124 31.6574 52.244 32.8485 51.9929C34.0396 51.7418 35.2317 51.5093 36.211 51.3401C37.2164 51.1664 37.9327 51.0715 38.2148 51.0723L38.2184 49.7208ZM27.0082 52.0863C26.416 52.3613 25.7624 52.7608 25.2917 53.3227C24.8025 53.9067 24.5101 54.6733 24.7035 55.5908L26.0259 55.3121C25.9327 54.87 26.0556 54.5153 26.3277 54.1905C26.6183 53.8436 27.072 53.5468 27.5774 53.3121L27.0082 52.0863ZM24.7116 55.6248C25.1157 57.1474 26.2898 58.2774 27.6499 58.8466L28.1717 57.6C27.122 57.1606 26.2947 56.3212 26.0178 55.2781L24.7116 55.6248ZM27.3423 57.8581L27.3402 57.8613L28.4772 58.5918L28.4793 58.5886L27.3423 57.8581ZM27.6121 58.8338C29.3019 59.6591 31.1577 60.0199 32.9973 59.9021L32.9109 58.5534C31.305 58.6563 29.6834 58.3415 28.2052 57.6194L27.6121 58.8338ZM33.0022 59.9017C33.9839 59.8317 34.9479 59.6214 35.8963 59.2926L35.4536 58.0157C34.6052 58.3099 33.7576 58.4929 32.906 58.5537L33.0022 59.9017ZM35.9078 59.2885C37.6357 58.6544 39.1879 57.5752 40.4007 56.138L39.3678 55.2664C38.3068 56.5238 36.9502 57.4663 35.4421 58.0198L35.9078 59.2885ZM40.2569 55.1385L40.2536 55.1364L39.5084 56.2638L39.5117 56.2659L40.2569 55.1385ZM40.3713 56.1651C41.3859 55.0953 42.004 53.5875 41.7591 52.0313L40.4241 52.2414C40.5918 53.3075 40.1738 54.4094 39.3907 55.2351L40.3713 56.1651ZM41.7528 51.997C41.5594 51.0795 40.9825 50.4961 40.2991 50.1592C39.6417 49.8351 38.8824 49.7335 38.2296 49.721L38.2036 51.0722C38.7607 51.0829 39.2957 51.1713 39.7016 51.3714C40.0816 51.5587 40.3372 51.8336 40.4304 52.2757L41.7528 51.997Z" fill="url(#paint1_linear_27152_35464)" mask="url(#path-3-outside-2_27152_35464)"/>
</g>
<g filter="url(#filter2_bd_27152_35464)">
<path d="M32.0757 12.0088C31.0972 11.7891 30.1092 12.3606 29.8038 13.2861C29.7012 13.801 29.7829 14.3466 30.074 14.7814C30.3651 15.2163 30.8208 15.5244 31.3549 15.6378L31.4254 15.659C33.016 16.137 34.1586 17.5447 34.2664 19.1674C34.3182 20.225 35.2145 21.0402 36.266 21.0088C37.3243 20.9547 38.1349 20.0818 38.0945 19.0524C37.8622 15.7796 35.5551 12.9799 32.3465 12.0901L32.0757 12.0088Z" fill="url(#paint2_linear_27152_35464)"/>
<path d="M31.3689 15.5717L31.369 15.5714L31.3743 15.573L31.4449 15.5942C33.0616 16.0801 34.2241 17.5112 34.3338 19.1629L34.3338 19.1629L34.3339 19.1641C34.3839 20.1843 35.2485 20.9712 36.2633 20.9413C37.2852 20.8887 38.0654 20.0466 38.027 19.0561C37.7964 15.8128 35.5096 13.0374 32.3285 12.1552L32.3285 12.1553L32.3271 12.1548L32.0586 12.0742C31.1162 11.8639 30.1651 12.4139 29.8693 13.3033C29.7709 13.802 29.8511 14.3271 30.1301 14.7438C30.4112 15.1637 30.8516 15.4619 31.3689 15.5717Z" stroke="url(#paint3_linear_27152_35464)" stroke-opacity="0.5" stroke-width="0.135145"/>
</g>
<g filter="url(#filter3_b_27152_35464)">
<mask id="path-7-outside-3_27152_35464" maskUnits="userSpaceOnUse" x="32.9729" y="48.2394" width="56.9521" height="61.603" fill="black">
<rect fill="white" x="32.9729" y="48.2394" width="56.9521" height="61.603"/>
<path fill-rule="evenodd" clip-rule="evenodd" d="M72.7474 59.8385L80.1206 88.0458C80.2261 88.8529 80.1911 89.4724 80.0489 90.0837C79.703 91.5078 78.7662 92.7092 77.4225 93.4441C76.0799 94.1752 74.5058 94.3689 72.976 93.9846L68.5599 92.6399L65.8658 101.486C65.2452 103.524 63.0901 104.673 61.0523 104.052L48.2515 100.154C46.2138 99.5339 45.0649 97.3789 45.6855 95.3412L48.3797 86.4949L43.557 85.0264C42.9449 84.8012 42.3623 84.4791 41.842 84.0963C39.2636 82.108 38.8005 78.5818 40.8039 76.2573L62.8055 56.7929C63.5642 56.1042 64.5489 55.6107 65.6355 55.4318C68.8009 54.8438 71.9932 56.8355 72.7474 59.8385Z"/>
</mask>
<path fill-rule="evenodd" clip-rule="evenodd" d="M72.7474 59.8385L80.1206 88.0458C80.2261 88.8529 80.1911 89.4724 80.0489 90.0837C79.703 91.5078 78.7662 92.7092 77.4225 93.4441C76.0799 94.1752 74.5058 94.3689 72.976 93.9846L68.5599 92.6399L65.8658 101.486C65.2452 103.524 63.0901 104.673 61.0523 104.052L48.2515 100.154C46.2138 99.5339 45.0649 97.3789 45.6855 95.3412L48.3797 86.4949L43.557 85.0264C42.9449 84.8012 42.3623 84.4791 41.842 84.0963C39.2636 82.108 38.8005 78.5818 40.8039 76.2573L62.8055 56.7929C63.5642 56.1042 64.5489 55.6107 65.6355 55.4318C68.8009 54.8438 71.9932 56.8355 72.7474 59.8385Z" fill="#E1D2FF" fill-opacity="0.6"/>
<path d="M80.1206 88.0458L80.5986 87.9833C80.596 87.9633 80.5921 87.9434 80.587 87.9239L80.1206 88.0458ZM72.7474 59.8385L72.2798 59.956L72.2809 59.9605L72.7474 59.8385ZM80.0489 90.0837L80.5174 90.1974L80.5185 90.1929L80.0489 90.0837ZM77.4225 93.4441L77.6531 93.8675L77.6538 93.8671L77.4225 93.4441ZM72.976 93.9846L72.8355 94.4458C72.8431 94.4481 72.8508 94.4502 72.8585 94.4522L72.976 93.9846ZM68.5599 92.6399L68.7004 92.1787C68.5781 92.1414 68.446 92.1543 68.3331 92.2145C68.2203 92.2746 68.136 92.3772 68.0987 92.4995L68.5599 92.6399ZM65.8658 101.486L66.327 101.627L65.8658 101.486ZM61.0523 104.052L60.9119 104.513L61.0523 104.052ZM48.2515 100.154L48.392 99.6932L48.392 99.6932L48.2515 100.154ZM45.6855 95.3412L45.2243 95.2008L45.6855 95.3412ZM48.3797 86.4949L48.8409 86.6353C48.9185 86.3806 48.7749 86.1113 48.5202 86.0337L48.3797 86.4949ZM43.557 85.0264L43.3905 85.4789C43.3991 85.482 43.4078 85.4849 43.4165 85.4876L43.557 85.0264ZM41.842 84.0963L41.5475 84.4782L41.5563 84.4847L41.842 84.0963ZM40.8039 76.2573L40.4845 75.8962C40.4682 75.9106 40.4529 75.9261 40.4387 75.9426L40.8039 76.2573ZM62.8055 56.7929L63.125 57.1539L63.1296 57.1498L62.8055 56.7929ZM65.6355 55.4318L65.7138 55.9076L65.7235 55.9058L65.6355 55.4318ZM80.587 87.9239L73.2139 59.7166L72.2809 59.9605L79.6541 88.1678L80.587 87.9239ZM80.5185 90.1929C80.6752 89.5196 80.7109 88.8416 80.5986 87.9833L79.6425 88.1084C79.7413 88.8643 79.7071 89.4252 79.5793 89.9745L80.5185 90.1929ZM77.6538 93.8671C79.1111 93.0701 80.138 91.7594 80.5174 90.1974L79.5804 89.97C79.2679 91.2563 78.4213 92.3484 77.1912 93.0211L77.6538 93.8671ZM72.8585 94.4522C74.5024 94.8651 76.2012 94.6582 77.6531 93.8675L77.1919 93.0207C75.9587 93.6923 74.5092 93.8726 73.0935 93.517L72.8585 94.4522ZM68.4194 93.1011L72.8355 94.4458L73.1165 93.5234L68.7004 92.1787L68.4194 93.1011ZM68.0987 92.4995L65.4045 101.346L66.327 101.627L69.0212 92.7803L68.0987 92.4995ZM65.4045 101.346C64.8615 103.129 62.9759 104.134 61.1928 103.591L60.9119 104.513C63.2044 105.212 65.6288 103.919 66.327 101.627L65.4045 101.346ZM61.1928 103.591L48.392 99.6932L48.111 100.616L60.9119 104.513L61.1928 103.591ZM48.392 99.6932C46.609 99.1502 45.6037 97.2646 46.1467 95.4816L45.2243 95.2008C44.5261 97.4932 45.8186 99.9175 48.111 100.616L48.392 99.6932ZM46.1467 95.4816L48.8409 86.6353L47.9185 86.3545L45.2243 95.2008L46.1467 95.4816ZM43.4165 85.4876L48.2392 86.9561L48.5202 86.0337L43.6975 84.5652L43.4165 85.4876ZM41.5563 84.4847C42.11 84.8921 42.7324 85.2368 43.3905 85.4789L43.7235 84.5739C43.1573 84.3657 42.6145 84.0661 42.1278 83.708L41.5563 84.4847ZM40.4387 75.9426C38.2366 78.4975 38.7728 82.3383 41.5476 84.4781L42.1365 83.7145C39.7545 81.8777 39.3643 78.666 41.1691 76.572L40.4387 75.9426ZM62.4861 56.4318L40.4845 75.8962L41.1234 76.6184L63.125 57.1539L62.4861 56.4318ZM65.5572 54.9561C64.3774 55.1504 63.3078 55.6859 62.4815 56.4359L63.1296 57.1498C63.8207 56.5225 64.7204 56.0711 65.7138 55.9075L65.5572 54.9561ZM73.215 59.7211C72.3956 56.4585 68.9503 54.3257 65.5475 54.9578L65.7235 55.9058C68.6516 55.3619 71.5907 57.2124 72.2798 59.956L73.215 59.7211Z" fill="url(#paint4_linear_27152_35464)" mask="url(#path-7-outside-3_27152_35464)"/>
</g>
<defs>
<filter id="filter0_b_27152_35464" x="-4.31849" y="-6.40199" width="68.0618" height="67.3518" filterUnits="userSpaceOnUse" color-interpolation-filters="sRGB">
<feFlood flood-opacity="0" result="BackgroundImageFix"/>
<feGaussianBlur in="BackgroundImageFix" stdDeviation="5.06794"/>
<feComposite in2="SourceAlpha" operator="in" result="effect1_backgroundBlur_27152_35464"/>
<feBlend mode="normal" in="SourceGraphic" in2="effect1_backgroundBlur_27152_35464" result="shape"/>
</filter>
<filter id="filter1_b_27152_35464" x="14.5077" y="39.5848" width="37.4407" height="30.4749" filterUnits="userSpaceOnUse" color-interpolation-filters="sRGB">
<feFlood flood-opacity="0" result="BackgroundImageFix"/>
<feGaussianBlur in="BackgroundImageFix" stdDeviation="5.06794"/>
<feComposite in2="SourceAlpha" operator="in" result="effect1_backgroundBlur_27152_35464"/>
<feBlend mode="normal" in="SourceGraphic" in2="effect1_backgroundBlur_27152_35464" result="shape"/>
</filter>
<filter id="filter2_bd_27152_35464" x="19.6258" y="1.82604" width="28.6057" height="29.3196" filterUnits="userSpaceOnUse" color-interpolation-filters="sRGB">
<feFlood flood-opacity="0" result="BackgroundImageFix"/>
<feGaussianBlur in="BackgroundImageFix" stdDeviation="5.06794"/>
<feComposite in2="SourceAlpha" operator="in" result="effect1_backgroundBlur_27152_35464"/>
<feColorMatrix in="SourceAlpha" type="matrix" values="0 0 0 0 0 0 0 0 0 0 0 0 0 0 0 0 0 0 127 0" result="hardAlpha"/>
<feOffset dx="3.37863" dy="3.37863"/>
<feGaussianBlur stdDeviation="3.37863"/>
<feColorMatrix type="matrix" values="0 0 0 0 0.57165 0 0 0 0 0.15375 0 0 0 0 0.9 0 0 0 0.5 0"/>
<feBlend mode="normal" in2="effect1_backgroundBlur_27152_35464" result="effect2_dropShadow_27152_35464"/>
<feBlend mode="normal" in="SourceGraphic" in2="effect2_dropShadow_27152_35464" result="shape"/>
</filter>
<filter id="filter3_b_27152_35464" x="27.5052" y="43.2757" width="64.7298" height="72.9979" filterUnits="userSpaceOnUse" color-interpolation-filters="sRGB">
<feFlood flood-opacity="0" result="BackgroundImageFix"/>
<feGaussianBlur in="BackgroundImageFix" stdDeviation="5.78548"/>
<feComposite in2="SourceAlpha" operator="in" result="effect1_backgroundBlur_27152_35464"/>
<feBlend mode="normal" in="SourceGraphic" in2="effect1_backgroundBlur_27152_35464" result="shape"/>
</filter>
<linearGradient id="paint0_linear_27152_35464" x1="8.36661" y1="13.1652" x2="43.0436" y2="43.1784" gradientUnits="userSpaceOnUse">
<stop stop-color="white" stop-opacity="0.25"/>
<stop offset="1" stop-color="white" stop-opacity="0"/>
</linearGradient>
<linearGradient id="paint1_linear_27152_35464" x1="27.5382" y1="53.3585" x2="32.8052" y2="61.3248" gradientUnits="userSpaceOnUse">
<stop stop-color="white" stop-opacity="0.25"/>
<stop offset="1" stop-color="white" stop-opacity="0"/>
</linearGradient>
<linearGradient id="paint2_linear_27152_35464" x1="37.8036" y1="14.2845" x2="35.1908" y2="22.2441" gradientUnits="userSpaceOnUse">
<stop stop-color="white"/>
<stop offset="1" stop-color="white" stop-opacity="0.2"/>
</linearGradient>
<linearGradient id="paint3_linear_27152_35464" x1="34.5883" y1="19.7638" x2="36.3988" y2="13.6444" gradientUnits="userSpaceOnUse">
<stop stop-color="white"/>
<stop offset="1" stop-color="white" stop-opacity="0"/>
</linearGradient>
<linearGradient id="paint4_linear_27152_35464" x1="53.249" y1="56.8454" x2="73.6078" y2="98.4566" gradientUnits="userSpaceOnUse">
<stop stop-color="white" stop-opacity="0.25"/>
<stop offset="1" stop-color="white" stop-opacity="0"/>
</linearGradient>
</defs>
</svg>
