<svg width="11" height="12" viewBox="0 0 11 12" fill="none" xmlns="http://www.w3.org/2000/svg">
<path d="M4.444 5.00105C4.4715 4.8166 4.532 4.6545 4.609 4.51477C4.686 4.37503 4.796 4.25766 4.9335 4.16823C5.0655 4.08438 5.2305 4.04526 5.434 4.03967C5.5605 4.04526 5.676 4.06762 5.7805 4.11233C5.8905 4.16264 5.9895 4.22971 6.0665 4.31355C6.1435 4.39739 6.204 4.498 6.2535 4.60979C6.303 4.72158 6.325 4.84455 6.3305 4.96751H7.315C7.304 4.70481 7.2545 4.46447 7.161 4.24648C7.0675 4.02849 6.941 3.83845 6.776 3.68195C6.611 3.52544 6.413 3.40248 6.182 3.31305C5.951 3.22362 5.698 3.18449 5.4175 3.18449C5.06 3.18449 4.7465 3.24597 4.4825 3.37453C4.2185 3.50309 3.9985 3.67077 3.8225 3.88876C3.6465 4.10674 3.5145 4.35827 3.432 4.64892C3.3495 4.93956 3.3 5.24139 3.3 5.56558V5.71649C3.3 6.04068 3.344 6.34251 3.4265 6.63316C3.509 6.92381 3.641 7.17533 3.817 7.38773C3.993 7.60013 4.213 7.7734 4.477 7.89637C4.741 8.01933 5.0545 8.0864 5.412 8.0864C5.6705 8.0864 5.9125 8.04169 6.138 7.95785C6.3635 7.87401 6.5615 7.75663 6.732 7.60572C6.9025 7.4548 7.04 7.28153 7.139 7.08031C7.238 6.87909 7.2985 6.66669 7.304 6.43753H6.3195C6.314 6.55491 6.2865 6.6611 6.237 6.76171C6.1875 6.86232 6.1215 6.94616 6.039 7.01883C5.9565 7.09149 5.863 7.14738 5.753 7.18651C5.6485 7.22564 5.5385 7.23681 5.423 7.2424C5.225 7.23681 5.06 7.19769 4.9335 7.11385C4.796 7.02442 4.686 6.90704 4.609 6.7673C4.532 6.62757 4.4715 6.45989 4.444 6.27543C4.4165 6.09098 4.4 5.90094 4.4 5.71649V5.56558C4.4 5.36995 4.4165 5.1855 4.444 5.00105ZM5.5 0.0488281C2.464 0.0488281 0 2.55289 0 5.63824C0 8.7236 2.464 11.2277 5.5 11.2277C8.536 11.2277 11 8.7236 11 5.63824C11 2.55289 8.536 0.0488281 5.5 0.0488281ZM5.5 10.1098C3.0745 10.1098 1.1 8.10317 1.1 5.63824C1.1 3.17331 3.0745 1.16671 5.5 1.16671C7.9255 1.16671 9.9 3.17331 9.9 5.63824C9.9 8.10317 7.9255 10.1098 5.5 10.1098Z" fill="#70779B"/>
</svg>
