<svg width="24" height="24" viewBox="0 0 24 24" fill="none" xmlns="http://www.w3.org/2000/svg">
<path d="M8.49154 16.0001L11.1582 22.0001C11.9539 22.0001 12.7169 21.684 13.2795 21.1214C13.8421 20.5588 14.1582 19.7957 14.1582 19.0001V15.0001H19.8182C20.1081 15.0033 20.3953 14.9436 20.6598 14.8248C20.9243 14.7061 21.1598 14.5313 21.3501 14.3125C21.5403 14.0938 21.6807 13.8362 21.7615 13.5578C21.8424 13.2794 21.8617 12.9867 21.8182 12.7001L20.4382 3.70006C20.3659 3.22316 20.1236 2.78845 19.7561 2.47606C19.3886 2.16366 18.9205 1.99461 18.4382 2.00006H7.1582H4.1582C3.62777 2.00006 3.11906 2.21078 2.74399 2.58585C2.36892 2.96092 2.1582 3.46963 2.1582 4.00006V11.0001C2.1582 11.5305 2.36892 12.0392 2.74399 12.4143C3.11906 12.7893 3.62777 13.0001 4.1582 13.0001H7.1582V5.00006" stroke="#FE0B37" stroke-width="2" stroke-linecap="round" stroke-linejoin="round"/>
</svg>
