<svg width="16" height="17" viewBox="0 0 16 17" fill="none" xmlns="http://www.w3.org/2000/svg">
<path d="M8.00033 3.16667C3.33366 3.16667 0.666992 8.5 0.666992 8.5C0.666992 8.5 1.12738 9.42078 2.00033 10.4971C3.22831 12.0113 5.27268 13.8333 8.00033 13.8333C10.728 13.8333 14.0003 11.5 15.3337 8.5C15.3337 8.5 12.667 3.16667 8.00033 3.16667Z" stroke="white" stroke-linecap="round" stroke-linejoin="round"/>
<path d="M10.0004 7.48783C9.77969 7.11177 9.44218 6.81812 9.0392 6.6516C8.63623 6.48508 8.18988 6.45481 7.76812 6.5654C7.34635 6.67599 6.97228 6.92138 6.70287 7.26421C6.43345 7.60704 6.28345 8.02852 6.27571 8.46447C6.26796 8.90042 6.40289 9.32697 6.65996 9.67915C6.91703 10.0313 7.28214 10.2899 7.69971 10.4154C8.11728 10.5409 8.56443 10.5265 8.97306 10.3744C9.38169 10.2223 9.72943 9.9408 9.96331 9.57281" stroke="white" stroke-linecap="round" stroke-linejoin="round"/>
</svg>
