<svg width="24" height="24" viewBox="0 0 24 24" fill="none" xmlns="http://www.w3.org/2000/svg">
<path d="M12 4C5 4 1 12 1 12C1 12 1.69058 13.3812 3 14.9957C4.84198 17.2669 7.90854 20 12 20C16.0915 20 21 16.5 23 12C23 12 19 4 12 4Z" stroke="#C2C7CC" stroke-width="2" stroke-linecap="round" stroke-linejoin="round"/>
<path d="M15.0015 10.4817C14.6705 9.91765 14.1642 9.47718 13.5598 9.2274C12.9553 8.97762 12.2858 8.93222 11.6532 9.0981C11.0205 9.26399 10.4594 9.63208 10.0553 10.1463C9.65116 10.6606 9.42615 11.2928 9.41454 11.9467C9.40292 12.6006 9.60532 13.2404 9.99092 13.7687C10.3765 14.297 10.9242 14.6848 11.5505 14.873C12.1769 15.0613 12.8476 15.0397 13.4606 14.8116C14.0735 14.5834 14.5951 14.1612 14.9459 13.6092" stroke="#C2C7CC" stroke-width="2" stroke-linecap="round" stroke-linejoin="round"/>
</svg>
