<svg width="25" height="24" viewBox="0 0 25 24" fill="none" xmlns="http://www.w3.org/2000/svg">
<path d="M20.9386 6.25787C20.1848 4.73352 18.0132 3.48632 15.4872 4.21247C14.2801 4.55599 13.227 5.29269 12.4999 6.30221C11.7727 5.29269 10.7196 4.55599 9.51256 4.21247C6.98094 3.49741 4.815 4.73352 4.06113 6.25787C3.00348 8.39195 3.44229 10.7921 5.36633 13.3918C6.87405 15.4261 9.02874 17.4882 12.1567 19.8828C12.2556 19.9587 12.3773 20 12.5027 20C12.6281 20 12.7498 19.9587 12.8487 19.8828C15.971 17.4937 18.1313 15.4483 19.639 13.3918C21.5575 10.7921 21.9963 8.39195 20.9386 6.25787Z" fill="#C2C7CC"/>
</svg>
