<svg width="24" height="25" viewBox="0 0 24 25" fill="none" xmlns="http://www.w3.org/2000/svg">
<path d="M20.1666 3.32002C19.7866 3.24002 19.4066 3.44 19.2666 3.8C19.0466 4.32 16.9266 6.51998 15.1066 6.57998C14.0666 6.61998 13.1066 5.89999 12.0866 5.13999C10.7866 4.17999 9.30656 3.10001 7.42656 3.46001C4.64656 4.00001 3.36656 6.48 3.30656 6.6C3.22656 6.76 3.20655 6.95999 3.24655 7.13999L4.04655 10.72L6.38657 21.1C6.46657 21.48 6.80657 21.72 7.16657 21.72C7.22657 21.72 7.28655 21.72 7.34655 21.7C7.78655 21.6 8.04655 21.18 7.94655 20.74L6.58657 14.68C6.94657 14.12 7.96657 12.74 9.56657 12.38C10.5266 12.16 11.2866 12.42 12.1666 12.7C13.1466 13.02 14.2666 13.4 15.7066 13.08C18.7066 12.4 20.7666 8.80002 20.8266 4.12002C20.8066 3.72002 20.5466 3.40002 20.1666 3.32002ZM15.3266 11.52C14.3266 11.74 13.5466 11.48 12.6466 11.18C11.6666 10.86 10.5666 10.48 9.18657 10.8C7.82657 11.1 6.80656 11.9 6.10656 12.66L6.02656 12.3L4.84655 7.1C5.18655 6.58 6.12656 5.33999 7.70656 5.03999C8.90656 4.81999 9.92656 5.55999 11.1066 6.43999C12.2466 7.27999 13.5666 8.23998 15.1466 8.17998C16.4866 8.11998 17.8666 7.34001 18.9466 6.46001C18.4866 8.86001 17.3066 11.06 15.3266 11.52Z" fill="#4C3DAA"/>
</svg>
