<svg width="24" height="24" viewBox="0 0 24 24" fill="none" xmlns="http://www.w3.org/2000/svg">
<path d="M3 2H6.5M23 19C23 19.5304 22.7893 20.0391 22.4142 20.4142C22.0391 20.7893 21.5304 21 21 21H3C2.46957 21 1.96086 20.7893 1.58579 20.4142C1.21071 20.0391 1 19.5304 1 19V7C1 5.89543 1.89543 5 3 5H21C21.5304 5 22.0391 5.21071 22.4142 5.58579C22.7893 5.96086 23 6.46957 23 7V19Z" stroke="#556883" stroke-width="1.5" stroke-linecap="round" stroke-linejoin="round"/>
<path d="M8.55078 15.0243C8.99211 15.7765 9.66714 16.3638 10.4731 16.6968C11.279 17.0298 12.1717 17.0904 13.0153 16.8692C13.8588 16.648 14.6069 16.1572 15.1458 15.4716C15.6846 14.7859 15.9846 13.943 16.0001 13.0711C16.0156 12.1992 15.7457 11.3461 15.2316 10.6417C14.7174 9.93734 13.9872 9.42029 13.1521 9.16928C12.3169 8.91828 11.4226 8.94706 10.6054 9.25126C9.78811 9.55546 9.09264 10.1184 8.62487 10.8544" stroke="#556883" stroke-width="1.5" stroke-linecap="round" stroke-linejoin="round"/>
</svg>
