<svg width="24" height="24" viewBox="0 0 24 24" fill="none" xmlns="http://www.w3.org/2000/svg">
<path d="M8.84059 8.39997L11.2406 3C11.9567 3 12.6434 3.28446 13.1497 3.79081C13.6561 4.29715 13.9406 4.9839 13.9406 5.69998V9.29996H19.0345C19.2954 9.29701 19.5539 9.35081 19.7919 9.45765C20.03 9.5645 20.242 9.72182 20.4132 9.91872C20.5844 10.1156 20.7108 10.3474 20.7835 10.598C20.8563 10.8486 20.8737 11.112 20.8345 11.3699L19.5925 19.4699C19.5274 19.8991 19.3094 20.2903 18.9786 20.5715C18.6479 20.8527 18.2266 21.0048 17.7925 20.9999H7.6406H4.94061C4.46323 20.9999 4.00539 20.8102 3.66783 20.4727C3.33027 20.1351 3.14063 19.6773 3.14062 19.1999V12.8999C3.14062 12.4226 3.33027 11.9647 3.66783 11.6272C4.00539 11.2896 4.46323 11.0999 4.94061 11.0999H7.6406V18.2999" stroke="white" stroke-width="1.5" stroke-linecap="round" stroke-linejoin="round"/>
</svg>
