<svg width="150" height="169" viewBox="0 0 150 169" fill="none" xmlns="http://www.w3.org/2000/svg">
<g filter="url(#filter0_b_27111_17634)">
<mask id="path-1-outside-1_27111_17634" maskUnits="userSpaceOnUse" x="-1.31671" y="81.0349" width="90.9687" height="89.4207" fill="black">
<rect fill="white" x="-1.31671" y="81.0349" width="90.9687" height="89.4207"/>
<path d="M49.1747 89.1644C47.042 89.3528 44.9651 89.9311 43.0058 90.7871C38.6761 92.6417 35.1114 95.9001 32.8134 100.043C32.4403 99.9513 32.016 99.9111 31.6255 99.8635C31.2322 99.8098 30.4711 99.5913 29.8969 99.5464L28.4863 99.534C27.7161 99.4638 26.9586 99.4989 26.176 99.5782C26.0882 99.5464 25.9665 99.5219 25.8165 99.5171L25.6333 99.5972C23.5256 99.7748 21.4822 100.261 19.5002 101.056L19.1587 101.206C18.2893 101.585 17.4487 102.023 16.6318 102.531L16.2592 102.694C15.3806 103.222 14.5471 103.845 13.7823 104.549C3.85357 113.402 5.21793 127.782 13.529 137.241C17.9703 141.99 23.3977 145.687 29.3886 148.058C37.9908 151.251 46.8596 153.515 55.8935 154.819L56.9193 154.966L57.4907 154.158C62.6335 146.623 66.9613 138.594 70.4204 130.168C72.7792 124.149 73.7377 117.626 73.2399 111.154C71.8873 98.6547 62.2634 87.8833 49.1747 89.1644Z"/>
</mask>
<path d="M49.1747 89.1644C47.042 89.3528 44.9651 89.9311 43.0058 90.7871C38.6761 92.6417 35.1114 95.9001 32.8134 100.043C32.4403 99.9513 32.016 99.9111 31.6255 99.8635C31.2322 99.8098 30.4711 99.5913 29.8969 99.5464L28.4863 99.534C27.7161 99.4638 26.9586 99.4989 26.176 99.5782C26.0882 99.5464 25.9665 99.5219 25.8165 99.5171L25.6333 99.5972C23.5256 99.7748 21.4822 100.261 19.5002 101.056L19.1587 101.206C18.2893 101.585 17.4487 102.023 16.6318 102.531L16.2592 102.694C15.3806 103.222 14.5471 103.845 13.7823 104.549C3.85357 113.402 5.21793 127.782 13.529 137.241C17.9703 141.99 23.3977 145.687 29.3886 148.058C37.9908 151.251 46.8596 153.515 55.8935 154.819L56.9193 154.966L57.4907 154.158C62.6335 146.623 66.9613 138.594 70.4204 130.168C72.7792 124.149 73.7377 117.626 73.2399 111.154C71.8873 98.6547 62.2634 87.8833 49.1747 89.1644Z" fill="#FF749F" fill-opacity="0.35"/>
<path d="M43.0058 90.7871L43.3125 91.5032L43.3176 91.5009L43.0058 90.7871ZM32.8134 100.043L32.6266 100.8C32.9682 100.884 33.3239 100.729 33.4946 100.421L32.8134 100.043ZM31.6255 99.8635L31.5199 100.635L31.5313 100.637L31.6255 99.8635ZM29.8969 99.5464L29.9576 98.7698C29.9397 98.7684 29.9217 98.7676 29.9037 98.7675L29.8969 99.5464ZM28.4863 99.534L28.4156 100.31C28.4368 100.312 28.4581 100.313 28.4795 100.313L28.4863 99.534ZM26.176 99.5782L25.9105 100.311C26.0205 100.35 26.1381 100.365 26.2546 100.353L26.176 99.5782ZM25.8165 99.5171L25.8411 98.7385C25.7255 98.7349 25.6106 98.757 25.5047 98.8033L25.8165 99.5171ZM25.6333 99.5972L25.6987 100.373C25.7838 100.366 25.867 100.345 25.9452 100.311L25.6333 99.5972ZM19.5002 101.056L19.21 100.333C19.2028 100.336 19.1956 100.339 19.1884 100.343L19.5002 101.056ZM16.6318 102.531L16.9437 103.245C16.9781 103.23 17.0115 103.213 17.0435 103.193L16.6318 102.531ZM16.2592 102.694L15.9473 101.98C15.9166 101.994 15.8867 102.009 15.8579 102.027L16.2592 102.694ZM13.7823 104.549L14.3008 105.131L14.3098 105.122L13.7823 104.549ZM13.529 137.241L12.9438 137.755C12.9491 137.761 12.9545 137.767 12.96 137.773L13.529 137.241ZM29.3886 148.058L29.1019 148.782C29.1071 148.784 29.1123 148.786 29.1175 148.788L29.3886 148.058ZM55.8935 154.819L55.7822 155.59L55.7829 155.59L55.8935 154.819ZM56.9193 154.966L56.8086 155.737C57.0981 155.779 57.3864 155.654 57.5553 155.416L56.9193 154.966ZM57.4907 154.158L58.1268 154.608L58.1341 154.597L57.4907 154.158ZM70.4204 130.168L71.1411 130.464L71.1457 130.452L70.4204 130.168ZM73.2399 111.154L74.0165 111.094C74.0159 111.086 74.0152 111.078 74.0143 111.07L73.2399 111.154ZM49.1061 88.3884C46.8786 88.5853 44.7196 89.1883 42.6939 90.0733L43.3176 91.5009C45.2105 90.6739 47.2055 90.1204 49.2432 89.9403L49.1061 88.3884ZM42.6991 90.0711C38.2069 91.9953 34.5121 95.3745 32.1322 99.6656L33.4946 100.421C35.7107 96.4256 39.1454 93.2881 43.3125 91.5032L42.6991 90.0711ZM33.0002 99.2872C32.5678 99.1804 32.0758 99.1336 31.7196 99.0903L31.5313 100.637C31.9562 100.689 32.3128 100.722 32.6266 100.8L33.0002 99.2872ZM31.7309 99.0917C31.5733 99.0702 31.3366 99.0141 30.9929 98.9401C30.682 98.8732 30.3023 98.7968 29.9576 98.7698L29.8361 100.323C30.0657 100.341 30.3537 100.396 30.6652 100.463C30.9439 100.523 31.2843 100.603 31.52 100.635L31.7309 99.0917ZM29.9037 98.7675L28.4931 98.7551L28.4795 100.313L29.89 100.325L29.9037 98.7675ZM28.557 98.7583C27.7178 98.6817 26.9057 98.7213 26.0975 98.8032L26.2546 100.353C27.0114 100.277 27.7143 100.246 28.4156 100.31L28.557 98.7583ZM26.4416 98.8459C26.2634 98.7813 26.0584 98.7454 25.8411 98.7385L25.792 100.296C25.8315 100.297 25.8619 100.301 25.8831 100.304C25.9049 100.308 25.9135 100.312 25.9105 100.311L26.4416 98.8459ZM25.5047 98.8033L25.3215 98.8833L25.9452 100.311L26.1284 100.231L25.5047 98.8033ZM25.5679 98.8209C23.3823 99.0051 21.2632 99.5092 19.21 100.333L19.7904 101.779C21.7012 101.012 23.6688 100.544 25.6987 100.373L25.5679 98.8209ZM19.1884 100.343L18.8468 100.492L19.4705 101.919L19.8121 101.77L19.1884 100.343ZM18.8468 100.492C17.9448 100.886 17.0707 101.341 16.2201 101.87L17.0435 103.193C17.8267 102.705 18.6337 102.285 19.4705 101.919L18.8468 100.492ZM16.3199 101.818L15.9473 101.98L16.571 103.408L16.9437 103.245L16.3199 101.818ZM15.8579 102.027C14.9341 102.582 14.0584 103.236 13.2548 103.976L14.3098 105.122C15.0359 104.454 15.827 103.863 16.6605 103.362L15.8579 102.027ZM13.2639 103.968C2.92746 113.184 4.43522 128.071 12.9438 137.755L14.1141 136.727C6.00064 127.492 4.77967 113.62 14.3007 105.131L13.2639 103.968ZM12.96 137.773C17.4796 142.606 23.0034 146.368 29.1019 148.782L29.6752 147.333C23.7921 145.005 18.4609 141.374 14.0979 136.709L12.96 137.773ZM29.1175 148.788C37.771 152 46.6934 154.278 55.7822 155.59L56.0048 154.048C47.0259 152.752 38.2106 150.502 29.6597 147.327L29.1175 148.788ZM55.7829 155.59L56.8086 155.737L57.0299 154.195L56.0042 154.048L55.7829 155.59ZM57.5553 155.416L58.1267 154.608L56.8547 153.708L56.2833 154.516L57.5553 155.416ZM58.1341 154.597C63.3075 147.018 67.6612 138.941 71.141 130.464L69.6998 129.872C66.2614 138.248 61.9595 146.229 56.8473 153.719L58.1341 154.597ZM71.1457 130.452C73.5478 124.323 74.5233 117.681 74.0165 111.094L72.4632 111.214C72.9521 117.57 72.0105 123.976 69.6951 129.884L71.1457 130.452ZM74.0143 111.07C72.6304 98.2808 62.7357 87.0544 49.0988 88.3891L49.2505 89.9396C61.7912 88.7123 71.1443 99.0287 72.4654 111.238L74.0143 111.07Z" fill="url(#paint0_linear_27111_17634)" mask="url(#path-1-outside-1_27111_17634)"/>
</g>
<g filter="url(#filter1_b_27111_17634)">
<mask id="path-3-outside-2_27111_17634" maskUnits="userSpaceOnUse" x="53.1135" y="-1.15427" width="80.2932" height="77.8418" fill="black">
<rect fill="white" x="53.1135" y="-1.15427" width="80.2932" height="77.8418"/>
<path d="M117.531 9.94333C115.645 8.92982 113.592 8.27268 111.484 7.91223C106.848 7.0848 102.079 7.8506 97.8835 10.0516C97.6223 9.76973 97.2897 9.50316 96.9894 9.24897C96.6903 8.98811 96.1742 8.38763 95.7189 8.03474L94.5468 7.24987C93.9416 6.76822 93.2893 6.38163 92.5917 6.01825C92.5358 5.94336 92.4476 5.85609 92.3248 5.76978L92.1277 5.73607C90.2686 4.72713 88.2941 4.01128 86.2007 3.58793L85.8333 3.5251C84.8981 3.36515 83.9554 3.26923 82.9935 3.24566L82.5927 3.17711C81.5684 3.13599 80.5297 3.19899 79.504 3.36733C66.345 5.31417 59.5893 18.0814 61.3413 30.5505C62.4455 36.9581 64.9516 43.028 68.6566 48.2991C74.0923 55.6917 80.2616 62.4534 87.0957 68.5037L87.8721 69.19L88.7934 68.8285C97.2288 65.3553 105.255 61.0213 112.772 55.8786C118.049 52.1436 122.432 47.2176 125.569 41.5354C131.302 30.3465 129.174 16.0598 117.531 9.94333Z"/>
</mask>
<path d="M117.531 9.94333C115.645 8.92982 113.592 8.27268 111.484 7.91223C106.848 7.0848 102.079 7.8506 97.8835 10.0516C97.6223 9.76973 97.2897 9.50316 96.9894 9.24897C96.6903 8.98811 96.1742 8.38763 95.7189 8.03474L94.5468 7.24987C93.9416 6.76822 93.2893 6.38163 92.5917 6.01825C92.5358 5.94336 92.4476 5.85609 92.3248 5.76978L92.1277 5.73607C90.2686 4.72713 88.2941 4.01128 86.2007 3.58793L85.8333 3.5251C84.8981 3.36515 83.9554 3.26923 82.9935 3.24566L82.5927 3.17711C81.5684 3.13599 80.5297 3.19899 79.504 3.36733C66.345 5.31417 59.5893 18.0814 61.3413 30.5505C62.4455 36.9581 64.9516 43.028 68.6566 48.2991C74.0923 55.6917 80.2616 62.4534 87.0957 68.5037L87.8721 69.19L88.7934 68.8285C97.2288 65.3553 105.255 61.0213 112.772 55.8786C118.049 52.1436 122.432 47.2176 125.569 41.5354C131.302 30.3465 129.174 16.0598 117.531 9.94333Z" fill="#FF749F" fill-opacity="0.35"/>
<path d="M111.484 7.91223L111.348 8.6791L111.353 8.68005L111.484 7.91223ZM97.8835 10.0516L97.3121 10.5811C97.5512 10.8392 97.9337 10.9049 98.2453 10.7414L97.8835 10.0516ZM96.9894 9.24897L96.4774 9.83614L96.4862 9.84354L96.9894 9.24897ZM95.7189 8.03474L96.1961 7.41905C96.1819 7.40802 96.1673 7.3975 96.1523 7.38748L95.7189 8.03474ZM94.5468 7.24987L94.0617 7.85936C94.0784 7.87265 94.0956 7.88525 94.1134 7.89713L94.5468 7.24987ZM92.5917 6.01825L91.9677 6.48447C92.0377 6.57825 92.128 6.65503 92.2318 6.70911L92.5917 6.01825ZM92.3248 5.76978L92.7729 5.13256C92.6783 5.06606 92.5701 5.02145 92.4561 5.00195L92.3248 5.76978ZM92.1277 5.73607L91.7562 6.42072C91.8312 6.46142 91.9123 6.48952 91.9964 6.5039L92.1277 5.73607ZM86.2007 3.58793L86.3551 2.82442C86.3475 2.82287 86.3398 2.82143 86.332 2.82011L86.2007 3.58793ZM85.8333 3.5251L85.702 4.29292L85.8333 3.5251ZM82.9935 3.24566L82.8621 4.01348C82.8992 4.01982 82.9367 4.02347 82.9744 4.02439L82.9935 3.24566ZM82.5927 3.17711L82.724 2.40928C82.6909 2.40362 82.6574 2.40011 82.6239 2.39876L82.5927 3.17711ZM79.504 3.36733L79.618 4.13801L79.6302 4.13602L79.504 3.36733ZM61.3413 30.5505L60.5699 30.6589C60.571 30.6669 60.5723 30.6748 60.5736 30.6828L61.3413 30.5505ZM68.6566 48.2991L68.0193 48.7471C68.0225 48.7516 68.0258 48.7561 68.029 48.7606L68.6566 48.2991ZM87.0957 68.5037L86.5793 69.087L86.5798 69.0874L87.0957 68.5037ZM87.8721 69.19L87.3562 69.7737C87.5754 69.9673 87.8845 70.022 88.1567 69.9151L87.8721 69.19ZM88.7934 68.8285L89.078 69.5537L89.09 69.5488L88.7934 68.8285ZM112.772 55.8786L113.212 56.5216L113.222 56.5144L112.772 55.8786ZM125.569 41.5354L126.251 41.912C126.255 41.9049 126.259 41.8978 126.263 41.8907L125.569 41.5354ZM117.9 9.25718C115.93 8.19857 113.795 7.51707 111.616 7.1444L111.353 8.68005C113.389 9.02828 115.361 9.66108 117.162 10.6295L117.9 9.25718ZM111.621 7.14537C106.81 6.28689 101.867 7.08231 97.5216 9.36179L98.2453 10.7414C102.291 8.61888 106.885 7.88272 111.348 8.67909L111.621 7.14537ZM98.4549 9.52215C98.1521 9.19545 97.7666 8.88626 97.4927 8.6544L96.4862 9.84354C96.8128 10.1201 97.0924 10.344 97.3121 10.5811L98.4549 9.52215ZM97.5014 8.66187C97.3815 8.55732 97.2145 8.38041 96.9678 8.12986C96.7447 7.90327 96.4694 7.63088 96.1961 7.41905L95.2417 8.65043C95.4237 8.79148 95.6341 8.99578 95.8576 9.22287C96.0576 9.426 96.2982 9.67976 96.4775 9.83608L97.5014 8.66187ZM96.1523 7.38748L94.9802 6.60261L94.1134 7.89713L95.2855 8.682L96.1523 7.38748ZM95.0319 6.64038C94.3726 6.1156 93.6721 5.70271 92.9516 5.32739L92.2318 6.70911C92.9065 7.06055 93.5107 7.42084 94.0617 7.85936L95.0319 6.64038ZM93.2157 5.55203C93.1023 5.40023 92.9507 5.25763 92.7729 5.13256L91.8767 6.40699C91.9091 6.42975 91.9325 6.44955 91.9481 6.46432C91.9642 6.47952 91.9696 6.48705 91.9677 6.48447L93.2157 5.55203ZM92.4561 5.00195L92.2591 4.96825L91.9964 6.5039L92.1935 6.5376L92.4561 5.00195ZM92.4993 5.05143C90.5715 4.00522 88.5237 3.26297 86.3551 2.82442L86.0463 4.35145C88.0644 4.75958 89.9657 5.44904 91.7562 6.42072L92.4993 5.05143ZM86.332 2.82011L85.9646 2.75727L85.702 4.29292L86.0694 4.35576L86.332 2.82011ZM85.9646 2.75727C84.9944 2.59133 84.0141 2.49147 83.0125 2.46692L82.9744 4.02439C83.8967 4.047 84.8019 4.13897 85.702 4.29292L85.9646 2.75727ZM83.1248 2.47783L82.724 2.40928L82.4613 3.94493L82.8621 4.01348L83.1248 2.47783ZM82.6239 2.39876C81.547 2.35554 80.4556 2.42177 79.3779 2.59864L79.6302 4.13602C80.6039 3.97622 81.5898 3.91645 82.5614 3.95545L82.6239 2.39876ZM79.39 2.59675C65.6907 4.62353 58.7762 17.8934 60.5699 30.6589L62.1127 30.4421C60.4023 18.2694 66.9993 6.00481 79.618 4.13792L79.39 2.59675ZM60.5736 30.6828C61.6973 37.2034 64.2477 43.3812 68.0193 48.7471L69.2939 47.8512C65.6555 42.6748 63.1937 36.7129 62.1089 30.4182L60.5736 30.6828ZM68.029 48.7606C73.4972 56.1972 79.7037 62.9998 86.5793 69.087L87.6121 67.9205C80.8195 61.9069 74.6875 55.1861 69.2842 47.8377L68.029 48.7606ZM86.5798 69.0874L87.3562 69.7737L88.388 68.6063L87.6116 67.9201L86.5798 69.0874ZM88.1567 69.9151L89.078 69.5536L88.5088 68.1033L87.5876 68.4649L88.1567 69.9151ZM89.09 69.5488C97.5756 66.0549 105.649 61.6951 113.212 56.5215L112.332 55.2357C104.86 60.3476 96.882 64.6556 88.4968 68.1082L89.09 69.5488ZM113.222 56.5144C118.596 52.7106 123.058 47.6955 126.251 41.912L124.887 41.1589C121.806 46.7397 117.501 51.5765 112.322 55.2428L113.222 56.5144ZM126.263 41.8907C132.129 30.442 130.024 15.6263 117.894 9.25373L117.169 10.6329C128.324 16.4932 130.476 30.251 124.876 41.1802L126.263 41.8907Z" fill="url(#paint1_linear_27111_17634)" mask="url(#path-3-outside-2_27111_17634)"/>
</g>
<g filter="url(#filter2_b_27111_17634)">
<mask id="path-5-outside-3_27111_17634" maskUnits="userSpaceOnUse" x="77.115" y="61.6758" width="74.2374" height="72.7479" fill="black">
<rect fill="white" x="77.115" y="61.6758" width="74.2374" height="72.7479"/>
<path d="M138.892 81.5741C137.624 80.3912 136.15 79.453 134.573 78.736C131.111 77.1318 127.217 76.7488 123.475 77.6084C123.329 77.3337 123.123 77.0563 122.94 76.7952C122.76 76.5291 122.479 75.9522 122.195 75.5819L121.439 74.7253C121.064 74.2231 120.632 73.7857 120.161 73.3572C120.132 73.287 120.081 73.2004 120.003 73.1075L119.855 73.0404C118.607 71.8666 117.207 70.8987 115.654 70.1354L115.379 70.0104C114.679 69.6923 113.96 69.4228 113.212 69.206L112.912 69.0697C112.118 68.8263 111.291 68.6616 110.452 68.582C99.7405 67.3946 91.8152 76.0054 90.6173 86.1365C90.1616 91.3848 90.8738 96.6574 92.6902 101.551C95.4252 108.464 98.8651 115.034 102.972 121.184L103.439 121.881L104.236 121.788C111.561 120.806 118.743 119.064 125.694 116.585C130.598 114.746 135.048 111.79 138.678 107.985C145.476 100.4 146.754 88.7666 138.892 81.5741Z"/>
</mask>
<path d="M138.892 81.5741C137.624 80.3912 136.15 79.453 134.573 78.736C131.111 77.1318 127.217 76.7488 123.475 77.6084C123.329 77.3337 123.123 77.0563 122.94 76.7952C122.76 76.5291 122.479 75.9522 122.195 75.5819L121.439 74.7253C121.064 74.2231 120.632 73.7857 120.161 73.3572C120.132 73.287 120.081 73.2004 120.003 73.1075L119.855 73.0404C118.607 71.8666 117.207 70.8987 115.654 70.1354L115.379 70.0104C114.679 69.6923 113.96 69.4228 113.212 69.206L112.912 69.0697C112.118 68.8263 111.291 68.6616 110.452 68.582C99.7405 67.3946 91.8152 76.0054 90.6173 86.1365C90.1616 91.3848 90.8738 96.6574 92.6902 101.551C95.4252 108.464 98.8651 115.034 102.972 121.184L103.439 121.881L104.236 121.788C111.561 120.806 118.743 119.064 125.694 116.585C130.598 114.746 135.048 111.79 138.678 107.985C145.476 100.4 146.754 88.7666 138.892 81.5741Z" fill="#FF749F" fill-opacity="0.35"/>
<path d="M134.573 78.736L134.308 79.3087L134.312 79.3106L134.573 78.736ZM123.475 77.6084L122.918 77.9054C123.053 78.157 123.339 78.2873 123.617 78.2235L123.475 77.6084ZM122.94 76.7952L122.418 77.1497L122.423 77.1573L122.94 76.7952ZM122.195 75.5819L122.696 75.1978C122.687 75.1863 122.678 75.175 122.668 75.1641L122.195 75.5819ZM121.439 74.7253L120.933 75.1028C120.943 75.1167 120.954 75.1301 120.965 75.1431L121.439 74.7253ZM120.161 73.3572L119.575 73.5938C119.611 73.6818 119.666 73.7605 119.736 73.8243L120.161 73.3572ZM120.003 73.1075L120.485 72.7006C120.425 72.629 120.349 72.5717 120.264 72.5329L120.003 73.1075ZM119.855 73.0404L119.423 73.5003C119.473 73.5476 119.531 73.5864 119.594 73.615L119.855 73.0404ZM115.654 70.1354L115.932 69.569C115.927 69.5662 115.921 69.5635 115.915 69.5609L115.654 70.1354ZM113.212 69.206L112.95 69.7806C112.978 69.7932 113.007 69.8038 113.036 69.8123L113.212 69.206ZM112.912 69.0697L113.173 68.4952C113.148 68.4839 113.123 68.4742 113.097 68.4663L112.912 69.0697ZM110.452 68.582L110.383 69.2094L110.393 69.2103L110.452 68.582ZM90.6173 86.1365L89.9906 86.0624C89.9898 86.0689 89.9891 86.0754 89.9886 86.0819L90.6173 86.1365ZM92.6902 101.551L92.0983 101.771L92.1033 101.783L92.6902 101.551ZM102.972 121.184L102.448 121.534L102.448 121.535L102.972 121.184ZM103.439 121.881L102.915 122.232C103.047 122.429 103.278 122.536 103.513 122.508L103.439 121.881ZM104.236 121.788L104.309 122.415L104.32 122.414L104.236 121.788ZM125.694 116.585L125.906 117.179L125.915 117.176L125.694 116.585ZM138.678 107.985L139.134 108.42C139.139 108.416 139.143 108.411 139.148 108.406L138.678 107.985ZM139.323 81.1125C137.998 79.8769 136.465 78.9027 134.834 78.1615L134.312 79.3106C135.836 80.0032 137.25 80.9054 138.462 82.0357L139.323 81.1125ZM134.839 78.1634C131.246 76.499 127.209 76.1031 123.334 76.9933L123.617 78.2235C127.224 77.3945 130.975 77.7647 134.308 79.3087L134.839 78.1634ZM124.032 77.3113C123.862 76.9929 123.624 76.6712 123.457 76.4331L122.423 77.1573C122.622 77.4413 122.795 77.6744 122.918 77.9054L124.032 77.3113ZM123.462 76.4407C123.39 76.3341 123.296 76.161 123.154 75.9139C123.026 75.6903 122.866 75.4202 122.696 75.1978L121.694 75.9659C121.808 76.1139 121.93 76.3174 122.059 76.5414C122.174 76.7418 122.31 76.9902 122.418 77.1497L123.462 76.4407ZM122.668 75.1641L121.912 74.3075L120.965 75.1431L121.722 75.9997L122.668 75.1641ZM121.944 74.3477C121.536 73.8006 121.072 73.3327 120.585 72.8901L119.736 73.8243C120.192 74.2388 120.591 74.6456 120.933 75.1028L121.944 74.3477ZM120.746 73.1205C120.688 72.9782 120.599 72.8352 120.485 72.7006L119.52 73.5144C119.541 73.5389 119.555 73.5592 119.564 73.574C119.574 73.5892 119.576 73.5963 119.575 73.5938L120.746 73.1205ZM120.264 72.5329L120.116 72.4659L119.594 73.615L119.741 73.682L120.264 72.5329ZM120.287 72.5806C118.993 71.3634 117.541 70.3597 115.932 69.569L115.376 70.7018C116.873 71.4377 118.22 72.3698 119.423 73.5003L120.287 72.5806ZM115.915 69.5609L115.64 69.4359L115.118 70.585L115.393 70.71L115.915 69.5609ZM115.64 69.4359C114.914 69.1059 114.167 68.8255 113.387 68.5998L113.036 69.8123C113.754 70.0201 114.444 70.2788 115.118 70.585L115.64 69.4359ZM113.473 68.6315L113.173 68.4952L112.65 69.6442L112.95 69.7806L113.473 68.6315ZM113.097 68.4663C112.262 68.2104 111.393 68.0373 110.512 67.9537L110.393 69.2103C111.189 69.2858 111.973 69.4423 112.727 69.6731L113.097 68.4663ZM110.522 67.9547C99.3702 66.7186 91.2169 75.6905 89.9906 86.0624L91.2441 86.2106C92.4134 76.3203 100.111 68.0706 110.383 69.2093L110.522 67.9547ZM89.9886 86.0819C89.5248 91.4227 90.2495 96.789 92.0985 101.771L93.2818 101.332C91.4982 96.5258 90.7983 91.3468 91.2461 86.1911L89.9886 86.0819ZM92.1033 101.783C94.8547 108.738 98.3153 115.347 102.448 121.534L103.497 120.833C99.4149 114.721 95.9957 108.191 93.277 101.319L92.1033 101.783ZM102.448 121.535L102.915 122.232L103.964 121.53L103.497 120.833L102.448 121.535ZM103.513 122.508L104.309 122.415L104.162 121.161L103.366 121.255L103.513 122.508ZM104.32 122.414C111.689 121.425 118.913 119.674 125.906 117.179L125.482 115.99C118.573 118.455 111.434 120.186 104.152 121.162L104.32 122.414ZM125.915 117.176C130.91 115.303 135.44 112.293 139.134 108.42L138.221 107.549C134.656 111.286 130.286 114.189 125.472 115.994L125.915 117.176ZM139.148 108.406C146.104 100.645 147.509 88.6022 139.318 81.1084L138.466 82.0397C145.998 88.9311 144.848 100.154 138.208 107.563L139.148 108.406Z" fill="url(#paint2_linear_27111_17634)" mask="url(#path-5-outside-3_27111_17634)"/>
</g>
<g filter="url(#filter3_b_27111_17634)">
<mask id="path-7-outside-4_27111_17634" maskUnits="userSpaceOnUse" x="41.1578" y="8.03916" width="18.3119" height="18.3119" fill="black">
<rect fill="white" x="41.1578" y="8.03916" width="18.3119" height="18.3119"/>
<path d="M51.6882 10.3185C51.2904 10.347 50.9017 10.4483 50.5342 10.6017C49.722 10.9338 49.048 11.5298 48.6071 12.2945C48.5379 12.2761 48.459 12.2673 48.3864 12.2573C48.3134 12.2461 48.1723 12.203 48.0654 12.1929L47.8027 12.1862C47.6595 12.1708 47.5183 12.175 47.3723 12.1873C47.356 12.1811 47.3334 12.1762 47.3055 12.1749L47.2711 12.1892C46.878 12.2158 46.4959 12.3 46.1243 12.4421L46.0602 12.4688C45.8971 12.5369 45.7392 12.6158 45.5854 12.708L45.5155 12.7372C45.3502 12.8328 45.1931 12.9463 45.0485 13.0751C43.1718 14.6934 43.3816 17.3761 44.9005 19.1636C45.7131 20.0618 46.7127 20.7671 47.8213 21.2272C49.4137 21.8486 51.0587 22.2975 52.7373 22.5683L52.9279 22.5988L53.0369 22.4501C54.018 21.0625 54.8489 19.5803 55.5191 18.0215C55.977 16.9077 56.1757 15.6955 56.1029 14.4885C55.8895 12.1562 54.1301 10.1202 51.6882 10.3185Z"/>
</mask>
<path d="M51.6882 10.3185C51.2904 10.347 50.9017 10.4483 50.5342 10.6017C49.722 10.9338 49.048 11.5298 48.6071 12.2945C48.5379 12.2761 48.459 12.2673 48.3864 12.2573C48.3134 12.2461 48.1723 12.203 48.0654 12.1929L47.8027 12.1862C47.6595 12.1708 47.5183 12.175 47.3723 12.1873C47.356 12.1811 47.3334 12.1762 47.3055 12.1749L47.2711 12.1892C46.878 12.2158 46.4959 12.3 46.1243 12.4421L46.0602 12.4688C45.8971 12.5369 45.7392 12.6158 45.5854 12.708L45.5155 12.7372C45.3502 12.8328 45.1931 12.9463 45.0485 13.0751C43.1718 14.6934 43.3816 17.3761 44.9005 19.1636C45.7131 20.0618 46.7127 20.7671 47.8213 21.2272C49.4137 21.8486 51.0587 22.2975 52.7373 22.5683L52.9279 22.5988L53.0369 22.4501C54.018 21.0625 54.8489 19.5803 55.5191 18.0215C55.977 16.9077 56.1757 15.6955 56.1029 14.4885C55.8895 12.1562 54.1301 10.1202 51.6882 10.3185Z" fill="#FF749F" fill-opacity="0.35"/>
<path d="M50.5342 10.6017L50.5891 10.7361L50.59 10.7357L50.5342 10.6017ZM48.6071 12.2945L48.57 12.4347C48.6334 12.4515 48.7001 12.4237 48.7329 12.3669L48.6071 12.2945ZM48.3864 12.2573L48.3644 12.4007L48.3665 12.401L48.3864 12.2573ZM48.0654 12.1929L48.0792 12.0481L48.0691 12.0478L48.0654 12.1929ZM47.8027 12.1862L47.7871 12.331L47.7991 12.3313L47.8027 12.1862ZM47.3723 12.1873L47.3206 12.3229C47.3409 12.3307 47.3628 12.3338 47.3845 12.3319L47.3723 12.1873ZM47.3055 12.1749L47.3125 12.0299C47.291 12.0289 47.2695 12.0326 47.2496 12.0409L47.3055 12.1749ZM47.2711 12.1892L47.2809 12.334C47.2968 12.3329 47.3124 12.3292 47.327 12.3231L47.2711 12.1892ZM46.1243 12.4421L46.0724 12.3065L46.0684 12.3082L46.1243 12.4421ZM45.5854 12.708L45.6413 12.8419C45.6478 12.8392 45.6541 12.8361 45.6601 12.8325L45.5854 12.708ZM45.5155 12.7372L45.4596 12.6033C45.4539 12.6057 45.4483 12.6084 45.4428 12.6116L45.5155 12.7372ZM45.0485 13.0751L45.1432 13.185L45.1449 13.1834L45.0485 13.0751ZM44.9005 19.1636L44.7899 19.2576L44.7929 19.2609L44.9005 19.1636ZM47.8213 21.2272L47.7656 21.3613L47.7685 21.3624L47.8213 21.2272ZM52.7373 22.5683L52.7142 22.7115L52.7144 22.7115L52.7373 22.5683ZM52.9279 22.5988L52.905 22.7421C52.9587 22.7507 53.0128 22.7285 53.045 22.6846L52.9279 22.5988ZM53.0369 22.4501L53.154 22.5358L53.1554 22.5339L53.0369 22.4501ZM55.5191 18.0215L55.6525 18.0788L55.6534 18.0767L55.5191 18.0215ZM56.1029 14.4885L56.2478 14.4798L56.2474 14.4753L56.1029 14.4885ZM51.6778 10.1738C51.2623 10.2036 50.8583 10.3092 50.4783 10.4678L50.59 10.7357C50.9452 10.5875 51.3185 10.4905 51.6986 10.4632L51.6778 10.1738ZM50.4792 10.4674C49.6366 10.812 48.9379 11.43 48.4814 12.222L48.7329 12.3669C49.158 11.6295 49.8074 11.0557 50.5891 10.7361L50.4792 10.4674ZM48.6443 12.1542C48.5641 12.1329 48.4726 12.1227 48.4064 12.1135L48.3665 12.401C48.4455 12.412 48.5118 12.4193 48.57 12.4347L48.6443 12.1542ZM48.4085 12.1139C48.3792 12.1094 48.3353 12.0982 48.2715 12.0833C48.2138 12.0699 48.1433 12.0545 48.0791 12.0484L48.0517 12.3373C48.0944 12.3414 48.1479 12.3526 48.2057 12.366C48.2574 12.378 48.3206 12.394 48.3644 12.4007L48.4085 12.1139ZM48.0691 12.0478L47.8064 12.0412L47.7991 12.3313L48.0618 12.338L48.0691 12.0478ZM47.8183 12.042C47.6622 12.0251 47.5108 12.03 47.36 12.0428L47.3845 12.3319C47.5257 12.32 47.6567 12.3164 47.7872 12.3305L47.8183 12.042ZM47.424 12.0518C47.391 12.0392 47.3529 12.0319 47.3125 12.0299L47.2985 12.3198C47.3059 12.3202 47.3115 12.3209 47.3155 12.3217C47.3195 12.3225 47.3211 12.3231 47.3206 12.3229L47.424 12.0518ZM47.2496 12.0409L47.2153 12.0553L47.327 12.3231L47.3614 12.3088L47.2496 12.0409ZM47.2613 12.0444C46.8537 12.072 46.4574 12.1594 46.0724 12.3066L46.1761 12.5776C46.5344 12.4407 46.9023 12.3596 47.2809 12.334L47.2613 12.0444ZM46.0684 12.3082L46.0043 12.3349L46.1161 12.6028L46.1802 12.576L46.0684 12.3082ZM46.0043 12.3349C45.8351 12.4055 45.6709 12.4876 45.5108 12.5836L45.6601 12.8325C45.8075 12.7441 45.9591 12.6683 46.1161 12.6028L46.0043 12.3349ZM45.5295 12.5741L45.4596 12.6033L45.5714 12.8711L45.6413 12.8419L45.5295 12.5741ZM45.4428 12.6116C45.2691 12.7122 45.1039 12.8314 44.952 12.9667L45.1449 13.1834C45.2822 13.0612 45.4314 12.9535 45.5882 12.8628L45.4428 12.6116ZM44.9537 12.9652C43 14.65 43.2349 17.4275 44.7899 19.2575L45.0111 19.0696C43.5283 17.3246 43.3436 14.7368 45.1432 13.185L44.9537 12.9652ZM44.7929 19.2609C45.6199 20.175 46.6371 20.8929 47.7656 21.3612L47.8769 21.0932C46.7882 20.6413 45.8064 19.9486 45.0081 19.0662L44.7929 19.2609ZM47.7685 21.3624C49.3704 21.9875 51.0254 22.4391 52.7142 22.7115L52.7604 22.425C51.092 22.1559 49.4569 21.7097 47.874 21.092L47.7685 21.3624ZM52.7144 22.7115L52.905 22.7421L52.9509 22.4556L52.7603 22.425L52.7144 22.7115ZM53.045 22.6846L53.1539 22.5358L52.9198 22.3644L52.8109 22.5131L53.045 22.6846ZM53.1554 22.5339C54.1423 21.138 54.9782 19.647 55.6525 18.0788L55.3858 17.9642C54.7196 19.5137 53.8937 20.987 52.9184 22.3663L53.1554 22.5339ZM55.6534 18.0767C56.1197 16.9424 56.3218 15.7083 56.2478 14.4798L55.9581 14.4973C56.0295 15.6827 55.8344 16.873 55.3849 17.9663L55.6534 18.0767ZM56.2474 14.4753C56.0291 12.0888 54.2206 9.96728 51.6765 10.1739L51.6999 10.4631C54.0396 10.2732 55.7499 12.2236 55.9584 14.5017L56.2474 14.4753Z" fill="url(#paint3_linear_27111_17634)" mask="url(#path-7-outside-4_27111_17634)"/>
</g>
<defs>
<filter id="filter0_b_27111_17634" x="-12.6651" y="69.5857" width="105.507" height="104.855" filterUnits="userSpaceOnUse" color-interpolation-filters="sRGB">
<feFlood flood-opacity="0" result="BackgroundImageFix"/>
<feGaussianBlur in="BackgroundImage" stdDeviation="9.34767"/>
<feComposite in2="SourceAlpha" operator="in" result="effect1_backgroundBlur_27111_17634"/>
<feBlend mode="normal" in="SourceGraphic" in2="effect1_backgroundBlur_27111_17634" result="shape"/>
</filter>
<filter id="filter1_b_27111_17634" x="41.5957" y="-16.3093" width="106.504" height="104.974" filterUnits="userSpaceOnUse" color-interpolation-filters="sRGB">
<feFlood flood-opacity="0" result="BackgroundImageFix"/>
<feGaussianBlur in="BackgroundImage" stdDeviation="9.34767"/>
<feComposite in2="SourceAlpha" operator="in" result="effect1_backgroundBlur_27111_17634"/>
<feBlend mode="normal" in="SourceGraphic" in2="effect1_backgroundBlur_27111_17634" result="shape"/>
</filter>
<filter id="filter2_b_27111_17634" x="74.7056" y="52.6934" width="85.3701" height="84.966" filterUnits="userSpaceOnUse" color-interpolation-filters="sRGB">
<feFlood flood-opacity="0" result="BackgroundImageFix"/>
<feGaussianBlur in="BackgroundImage" stdDeviation="7.57348"/>
<feComposite in2="SourceAlpha" operator="in" result="effect1_backgroundBlur_27111_17634"/>
<feBlend mode="normal" in="SourceGraphic" in2="effect1_backgroundBlur_27111_17634" result="shape"/>
</filter>
<filter id="filter3_b_27111_17634" x="40.0729" y="6.67717" width="19.6725" height="19.5495" filterUnits="userSpaceOnUse" color-interpolation-filters="sRGB">
<feFlood flood-opacity="0" result="BackgroundImageFix"/>
<feGaussianBlur in="BackgroundImage" stdDeviation="1.74137"/>
<feComposite in2="SourceAlpha" operator="in" result="effect1_backgroundBlur_27111_17634"/>
<feBlend mode="normal" in="SourceGraphic" in2="effect1_backgroundBlur_27111_17634" result="shape"/>
</filter>
<linearGradient id="paint0_linear_27111_17634" x1="12.8885" y1="112.13" x2="71.25" y2="144.361" gradientUnits="userSpaceOnUse">
<stop stop-color="white" stop-opacity="0.25"/>
<stop offset="1" stop-color="white" stop-opacity="0"/>
</linearGradient>
<linearGradient id="paint1_linear_27111_17634" x1="74.5947" y1="9.21189" x2="105.673" y2="68.1955" gradientUnits="userSpaceOnUse">
<stop stop-color="white" stop-opacity="0.25"/>
<stop offset="1" stop-color="white" stop-opacity="0"/>
</linearGradient>
<linearGradient id="paint2_linear_27111_17634" x1="105.401" y1="72.1493" x2="117.592" y2="124.772" gradientUnits="userSpaceOnUse">
<stop stop-color="white" stop-opacity="0.25"/>
<stop offset="1" stop-color="white" stop-opacity="0"/>
</linearGradient>
<linearGradient id="paint3_linear_27111_17634" x1="44.8586" y1="14.4842" x2="55.6299" y2="20.6676" gradientUnits="userSpaceOnUse">
<stop stop-color="white" stop-opacity="0.25"/>
<stop offset="1" stop-color="white" stop-opacity="0"/>
</linearGradient>
</defs>
</svg>
