<svg width="24" height="24" viewBox="0 0 24 24" fill="none" xmlns="http://www.w3.org/2000/svg">
<path d="M8.49154 8L11.1582 2C11.9539 2 12.7169 2.31607 13.2795 2.87868C13.8421 3.44129 14.1582 4.20435 14.1582 5V9H19.8182C20.1081 8.99672 20.3953 9.0565 20.6598 9.17522C20.9243 9.29393 21.1598 9.46873 21.3501 9.68751C21.5403 9.90629 21.6807 10.1638 21.7615 10.4423C21.8424 10.7207 21.8617 11.0134 21.8182 11.3L20.4382 20.3C20.3659 20.7769 20.1236 21.2116 19.7561 21.524C19.3886 21.8364 18.9205 22.0055 18.4382 22H7.1582H4.1582C3.62777 22 3.11906 21.7893 2.74399 21.4142C2.36892 21.0391 2.1582 20.5304 2.1582 20V13C2.1582 12.4696 2.36892 11.9609 2.74399 11.5858C3.11906 11.2107 3.62777 11 4.1582 11H7.1582V19" stroke="#3BB965" stroke-width="2" stroke-linecap="round" stroke-linejoin="round"/>
</svg>
