<svg width="44" height="20" viewBox="0 0 44 20" fill="none" xmlns="http://www.w3.org/2000/svg">
<path d="M3.16283 19.1305H9.23876V12.9754H10.0534C11.3093 12.9754 11.8185 13.1031 12.2258 13.665L15.0771 17.7769C15.8578 18.9006 16.8082 19.1305 18.5054 19.1305H21.8319V15.2995H21.4246C20.7457 15.2995 20.1347 15.2484 19.7613 14.7121L18.2339 12.5157C17.6908 11.724 16.7403 11.4175 16.7403 11.4175V11.3664C16.7403 11.3664 20.3044 10.2682 20.3044 6.61603C20.3044 2.93831 17.0119 0.869598 12.2937 0.869598H0.956482V4.70055H3.16283V19.1305ZM9.23876 9.14445V4.70055H11.4451C13.1423 4.70055 14.0927 5.4412 14.0927 6.89696C14.0927 8.35272 13.1423 9.14445 11.3433 9.14445H9.23876Z" fill="white"/>
<path d="M26.0841 19.1305H32.1601V13.4862H35.6563C40.3745 13.4862 43.5652 10.8301 43.5652 7.15236C43.5652 3.47465 40.3745 0.869598 35.6563 0.869598H23.8778V4.70055H26.0841V19.1305ZM32.1601 9.65525V4.70055H34.5361C36.403 4.70055 37.3535 5.6966 37.3535 7.15236C37.3535 8.60812 36.403 9.65525 34.4343 9.65525H32.1601Z" fill="white"/>
</svg>
