<svg width="118" height="22" viewBox="0 0 118 22" fill="none" xmlns="http://www.w3.org/2000/svg">
<path d="M2.14175 19.7043H6.49828V5.95331H8.85907C9.19981 5.95331 9.39451 6.14801 9.39451 6.48875V7.43794H13.2886V4.07927C13.2886 2.83803 12.7532 2.30259 11.5119 2.30259H0.559777V5.95331H2.14175V19.7043ZM17.3194 19.7043H21.6759V12.6463H22.0167C22.6738 12.6463 23.1849 12.6463 23.477 13.2061L26.0811 18.4144C26.6166 19.5096 27.3224 19.7043 28.5393 19.7043H31.0948V16.0536H30.6324C30.1456 16.0536 29.6832 16.005 29.4398 15.4939L27.8578 12.2812C27.2494 11.0643 26.5192 10.8939 26.5192 10.8939V10.8453C26.5192 10.8453 27.225 10.5289 27.8092 9.33631L31.2895 2.30259H26.5436L23.5987 8.48447C23.3066 9.01991 22.8685 9.01991 22.2601 9.01991H21.6759V4.07927C21.6759 2.83803 21.1405 2.30259 19.8993 2.30259H15.7374V5.95331H16.784C17.1247 5.95331 17.3194 6.14801 17.3194 6.48875V19.7043Z" fill="white"/>
<path d="M42.6873 3.52515H39.6538V9H38.604V2.65234H42.6873V3.52515ZM46.4834 9.10986C45.5964 9.10986 44.8843 8.81486 44.3472 8.22485C43.8101 7.63078 43.5415 6.83122 43.5415 5.82617C43.5415 4.82113 43.8101 4.0236 44.3472 3.43359C44.8843 2.83952 45.5964 2.54248 46.4834 2.54248C47.3664 2.54248 48.0764 2.83952 48.6135 3.43359C49.1506 4.0236 49.4192 4.82113 49.4192 5.82617C49.4192 6.82715 49.1506 7.62467 48.6135 8.21875C48.0764 8.81283 47.3664 9.10986 46.4834 9.10986ZM45.1223 7.55347C45.46 7.96851 45.9137 8.17603 46.4834 8.17603C47.0531 8.17603 47.5047 7.97054 47.8384 7.55957C48.172 7.14453 48.3389 6.56673 48.3389 5.82617C48.3389 5.08561 48.172 4.50985 47.8384 4.09888C47.5047 3.68384 47.0531 3.47632 46.4834 3.47632C45.9137 3.47632 45.46 3.68384 45.1223 4.09888C44.7887 4.51392 44.6218 5.08968 44.6218 5.82617C44.6218 6.56266 44.7887 7.13843 45.1223 7.55347ZM53.9355 2.54248C54.7493 2.54248 55.4045 2.84155 55.9009 3.4397C56.4014 4.03784 56.6516 4.83333 56.6516 5.82617C56.6516 6.81494 56.4034 7.61043 55.907 8.21265C55.4106 8.81079 54.7616 9.10986 53.96 9.10986C53.5124 9.10986 53.1116 9.00814 52.7576 8.80469C52.4036 8.60124 52.1309 8.32251 51.9397 7.96851H51.9153V11.1179H50.8533V2.65234H51.8604V3.72656H51.8848C52.0841 3.36035 52.3629 3.07145 52.7209 2.85986C53.079 2.64827 53.4839 2.54248 53.9355 2.54248ZM53.728 8.17603C54.2936 8.17603 54.7412 7.96444 55.0708 7.54126C55.4004 7.11808 55.5652 6.54639 55.5652 5.82617C55.5652 5.10596 55.4004 4.53426 55.0708 4.11108C54.7412 3.68791 54.2936 3.47632 53.728 3.47632C53.1828 3.47632 52.7433 3.69198 52.4097 4.12329C52.076 4.55461 51.9092 5.12223 51.9092 5.82617C51.9092 6.53418 52.076 7.10384 52.4097 7.53516C52.7433 7.9624 53.1828 8.17603 53.728 8.17603ZM60.7163 9.10986C59.8293 9.10986 59.1172 8.81486 58.5801 8.22485C58.043 7.63078 57.7744 6.83122 57.7744 5.82617C57.7744 4.82113 58.043 4.0236 58.5801 3.43359C59.1172 2.83952 59.8293 2.54248 60.7163 2.54248C61.5993 2.54248 62.3093 2.83952 62.8464 3.43359C63.3835 4.0236 63.6521 4.82113 63.6521 5.82617C63.6521 6.82715 63.3835 7.62467 62.8464 8.21875C62.3093 8.81283 61.5993 9.10986 60.7163 9.10986ZM59.3552 7.55347C59.693 7.96851 60.1466 8.17603 60.7163 8.17603C61.286 8.17603 61.7376 7.97054 62.0713 7.55957C62.4049 7.14453 62.5718 6.56673 62.5718 5.82617C62.5718 5.08561 62.4049 4.50985 62.0713 4.09888C61.7376 3.68384 61.286 3.47632 60.7163 3.47632C60.1466 3.47632 59.693 3.68384 59.3552 4.09888C59.0216 4.51392 58.8547 5.08968 58.8547 5.82617C58.8547 6.56266 59.0216 7.13843 59.3552 7.55347ZM69.1694 8.1272V3.52515H66.7891L66.5938 6.19849C66.5327 7.06925 66.3598 7.69588 66.075 8.07837V8.1272H69.1694ZM65.3181 10.6785H64.3293V8.1272H64.8604C65.2876 7.84644 65.5378 7.19539 65.6111 6.17407L65.8552 2.65234H70.2253V8.1272H71.2324V10.6785H70.2437V9H65.3181V10.6785ZM40.7585 15.6553L43.8103 19H42.4431L39.7026 15.9482H39.6538V19H38.604V12.6523H39.6538V15.46H39.7026L42.4126 12.6523H43.7249L40.7585 15.6553ZM47.5149 13.5129H45.9951V15.2891H47.3562C48.1456 15.2891 48.5403 14.988 48.5403 14.3857C48.5403 14.105 48.4528 13.8893 48.2778 13.7388C48.1029 13.5882 47.8486 13.5129 47.5149 13.5129ZM47.4417 16.1436H45.9951V18.1394H47.6309C48.0133 18.1394 48.3063 18.056 48.5098 17.8892C48.7132 17.7183 48.8149 17.4721 48.8149 17.1506C48.8149 16.4792 48.3572 16.1436 47.4417 16.1436ZM44.9453 19V12.6523H47.6614C48.2555 12.6523 48.7234 12.7968 49.0652 13.0857C49.407 13.3746 49.5779 13.7713 49.5779 14.2759C49.5779 14.5973 49.4762 14.8903 49.2727 15.1548C49.0733 15.4193 48.8271 15.582 48.5342 15.6431V15.6919C48.9329 15.7489 49.2524 15.9116 49.4924 16.1802C49.7366 16.4487 49.8586 16.7804 49.8586 17.175C49.8586 17.7366 49.6633 18.1821 49.2727 18.5117C48.8861 18.8372 48.3551 19 47.6797 19H44.9453ZM53.4229 18.2065C53.9233 18.2065 54.3424 18.0519 54.6802 17.7427C55.022 17.4294 55.1929 17.0448 55.1929 16.5891V16.0703L53.4961 16.1741C53.0688 16.2026 52.7372 16.3063 52.5012 16.4854C52.2693 16.6644 52.1533 16.9045 52.1533 17.2056C52.1533 17.5067 52.2693 17.7488 52.5012 17.9319C52.7332 18.115 53.0404 18.2065 53.4229 18.2065ZM53.1848 19.1099C52.5541 19.1099 52.0435 18.9349 51.6528 18.585C51.2663 18.235 51.073 17.7752 51.073 17.2056C51.073 16.6603 51.2724 16.2249 51.6711 15.8994C52.074 15.5739 52.6416 15.3908 53.374 15.3501L55.1929 15.2463V14.7153C55.1929 14.3288 55.0708 14.0256 54.8267 13.8059C54.5825 13.5862 54.2407 13.4763 53.8013 13.4763C53.3984 13.4763 53.0709 13.5658 52.8186 13.7449C52.5663 13.9198 52.4056 14.166 52.3364 14.4834H51.311C51.3477 13.9178 51.5918 13.4539 52.0435 13.0918C52.4992 12.7256 53.0933 12.5425 53.8257 12.5425C54.5703 12.5425 55.1603 12.7297 55.5957 13.104C56.0352 13.4784 56.2549 13.9809 56.2549 14.6116V19H55.2478V17.9075H55.2234C55.0321 18.2696 54.7514 18.5605 54.3811 18.7803C54.0108 19 53.6121 19.1099 53.1848 19.1099ZM62.1812 18.1272V13.5251H59.8008L59.6055 16.1985C59.5444 17.0693 59.3715 17.6959 59.0867 18.0784V18.1272H62.1812ZM58.3298 20.6785H57.3411V18.1272H57.8721C58.2993 17.8464 58.5496 17.1954 58.6228 16.1741L58.8669 12.6523H63.2371V18.1272H64.2441V20.6785H63.2554V19H58.3298V20.6785ZM68.5347 12.5425C69.3485 12.5425 70.0036 12.8416 70.5 13.4397C71.0005 14.0378 71.2507 14.8333 71.2507 15.8262C71.2507 16.8149 71.0025 17.6104 70.5061 18.2126C70.0097 18.8108 69.3607 19.1099 68.5591 19.1099C68.1115 19.1099 67.7107 19.0081 67.3567 18.8047C67.0027 18.6012 66.7301 18.3225 66.5388 17.9685H66.5144V21.1179H65.4524V12.6523H66.4595V13.7266H66.4839C66.6833 13.3604 66.962 13.0715 67.3201 12.8599C67.6781 12.6483 68.083 12.5425 68.5347 12.5425ZM68.3271 18.176C68.8927 18.176 69.3403 17.9644 69.6699 17.5413C69.9995 17.1181 70.1643 16.5464 70.1643 15.8262C70.1643 15.106 69.9995 14.5343 69.6699 14.1111C69.3403 13.6879 68.8927 13.4763 68.3271 13.4763C67.7819 13.4763 67.3424 13.692 67.0088 14.1233C66.6751 14.5546 66.5083 15.1222 66.5083 15.8262C66.5083 16.5342 66.6751 17.1038 67.0088 17.5352C67.3424 17.9624 67.7819 18.176 68.3271 18.176ZM74.7783 18.2065C75.2788 18.2065 75.6979 18.0519 76.0356 17.7427C76.3774 17.4294 76.5483 17.0448 76.5483 16.5891V16.0703L74.8516 16.1741C74.4243 16.2026 74.0927 16.3063 73.8567 16.4854C73.6248 16.6644 73.5088 16.9045 73.5088 17.2056C73.5088 17.5067 73.6248 17.7488 73.8567 17.9319C74.0886 18.115 74.3958 18.2065 74.7783 18.2065ZM74.5403 19.1099C73.9096 19.1099 73.3989 18.9349 73.0083 18.585C72.6217 18.235 72.4285 17.7752 72.4285 17.2056C72.4285 16.6603 72.6278 16.2249 73.0266 15.8994C73.4294 15.5739 73.9971 15.3908 74.7295 15.3501L76.5483 15.2463V14.7153C76.5483 14.3288 76.4263 14.0256 76.1821 13.8059C75.938 13.5862 75.5962 13.4763 75.1567 13.4763C74.7539 13.4763 74.4264 13.5658 74.1741 13.7449C73.9218 13.9198 73.7611 14.166 73.6919 14.4834H72.6665C72.7031 13.9178 72.9473 13.4539 73.3989 13.0918C73.8547 12.7256 74.4487 12.5425 75.1812 12.5425C75.9258 12.5425 76.5158 12.7297 76.9512 13.104C77.3906 13.4784 77.6104 13.9809 77.6104 14.6116V19H76.6033V17.9075H76.5789C76.3876 18.2696 76.1069 18.5605 75.7366 18.7803C75.3663 19 74.9675 19.1099 74.5403 19.1099ZM83.8479 12.6523V13.5251H81.7971V19H80.7473V13.5251H78.6965V12.6523H83.8479ZM87.5952 19.1099C86.7082 19.1099 85.9961 18.8149 85.459 18.2249C84.9219 17.6308 84.6533 16.8312 84.6533 15.8262C84.6533 14.8211 84.9219 14.0236 85.459 13.4336C85.9961 12.8395 86.7082 12.5425 87.5952 12.5425C88.4782 12.5425 89.1882 12.8395 89.7253 13.4336C90.2625 14.0236 90.531 14.8211 90.531 15.8262C90.531 16.8271 90.2625 17.6247 89.7253 18.2188C89.1882 18.8128 88.4782 19.1099 87.5952 19.1099ZM86.2341 17.5535C86.5719 17.9685 87.0256 18.176 87.5952 18.176C88.1649 18.176 88.6165 17.9705 88.9502 17.5596C89.2839 17.1445 89.4507 16.5667 89.4507 15.8262C89.4507 15.0856 89.2839 14.5098 88.9502 14.0989C88.6165 13.6838 88.1649 13.4763 87.5952 13.4763C87.0256 13.4763 86.5719 13.6838 86.2341 14.0989C85.9005 14.5139 85.7336 15.0897 85.7336 15.8262C85.7336 16.5627 85.9005 17.1384 86.2341 17.5535ZM94.5286 13.5129H93.0088V15.2891H94.3699C95.1593 15.2891 95.554 14.988 95.554 14.3857C95.554 14.105 95.4665 13.8893 95.2915 13.7388C95.1165 13.5882 94.8622 13.5129 94.5286 13.5129ZM94.4553 16.1436H93.0088V18.1394H94.6445C95.027 18.1394 95.32 18.056 95.5234 17.8892C95.7269 17.7183 95.8286 17.4721 95.8286 17.1506C95.8286 16.4792 95.3708 16.1436 94.4553 16.1436ZM91.959 19V12.6523H94.675C95.2691 12.6523 95.7371 12.7968 96.0789 13.0857C96.4207 13.3746 96.5916 13.7713 96.5916 14.2759C96.5916 14.5973 96.4898 14.8903 96.2864 15.1548C96.087 15.4193 95.8408 15.582 95.5479 15.6431V15.6919C95.9466 15.7489 96.266 15.9116 96.5061 16.1802C96.7502 16.4487 96.8723 16.7804 96.8723 17.175C96.8723 17.7366 96.677 18.1821 96.2864 18.5117C95.8998 18.8372 95.3688 19 94.6934 19H91.959Z" fill="white"/>
</svg>
