<svg width="45" height="20" viewBox="0 0 45 20" fill="none" xmlns="http://www.w3.org/2000/svg">
<path d="M2.20433 17.6996C2.20433 19.0798 2.95041 19.6752 4.67996 19.6752H16.0746C17.8042 19.6752 18.5503 19.0798 18.5503 17.6996V13.9648H13.1242V15.0203C13.1242 15.3992 12.8529 15.6157 12.3782 15.6157H9.02079C8.54602 15.6157 8.27471 15.3992 8.27471 15.0203V11.9621H15.1929V7.90257H8.27471V4.3843H11.5643C12.039 4.3843 12.3103 4.60081 12.3103 4.9797V6.03518H17.7364V2.30041C17.7364 0.920163 16.9903 0.324764 15.2607 0.324764H0V4.3843H2.20433V17.6996Z" fill="white"/>
<path d="M20.948 9.82409C20.948 16.4276 26.5775 20 32.6818 20C36.8192 20 39.227 18.3221 39.227 18.3221H39.2948C39.2948 18.3221 39.2609 18.728 39.2609 19.134V19.6752H44.3478V10.7172C44.3478 9.33694 43.6017 8.74154 41.8722 8.74154H36.7514V12.8011H38.2096C38.6844 12.8011 38.9557 13.0176 38.9557 13.3965V14.1272C38.9557 14.1272 37.1244 15.5345 33.9366 15.5345C30.4775 15.5345 27.2558 13.613 27.2558 9.79702C27.2558 6.41407 30.4097 4.41137 33.6314 4.41137C36.8192 4.41137 39.227 5.95399 39.227 5.95399L42.6183 2.51692C42.6183 2.51692 39.7018 0 33.4957 0C26.2723 0 20.948 4.27605 20.948 9.82409Z" fill="white"/>
</svg>
