<svg width="17" height="17" viewBox="0 0 17 17" fill="none" xmlns="http://www.w3.org/2000/svg">
<path d="M5.8992 5.4826C5.71932 4.83804 5.23104 4.90868 4.8972 5.20889C4.07482 6.01236 3.00402 7.6988 3.68934 10.1272C4.26329 12.1844 6.65149 13.5 6.65149 13.5H3.86748C3.86748 13.5 2.42998 11.7959 2.30148 9.79166C2.13872 7.25763 3.09824 5.65947 4.21187 4.61763C5.25697 3.63755 6.25068 3.34619 6.25068 3.34619L8.28339 10.3904L10.3161 3.34619C10.3161 3.34619 11.3098 3.63755 12.3549 4.61763C13.4685 5.65947 14.4281 7.25763 14.2653 9.79166C14.1368 11.7959 12.6993 13.5 12.6993 13.5H9.91528C9.91528 13.5 12.3033 12.1844 12.8774 10.1272C13.5628 7.69908 12.492 6.01264 11.6696 5.20889C11.3355 4.90868 10.8472 4.83804 10.6676 5.4826C10.0508 7.53986 8.28364 13.4343 8.28364 13.4343C8.28364 13.4343 6.51649 7.53789 5.89971 5.4826H5.8992Z" fill="#3BB965"/>
</svg>
