<svg width="17" height="17" viewBox="0 0 17 17" fill="none" xmlns="http://www.w3.org/2000/svg">
<path d="M9.58044 3.24251C9.58044 3.92873 9.02415 4.48502 8.33793 4.48502C7.65171 4.48502 7.09542 3.92873 7.09542 3.24251C7.09542 2.55629 7.65171 2 8.33793 2C9.02415 2 9.58044 2.55629 9.58044 3.24251Z" fill="#6C7F9C"/>
<path d="M7.9729 4.79565H8.35647C8.54084 4.79565 8.71569 4.87755 8.83373 5.01919L9.7607 6.48225C9.85595 6.59655 9.98906 6.67287 10.1358 6.69733L11.3788 6.9045C11.6058 6.94232 11.7721 7.13868 11.7721 7.36876C11.7721 7.65187 11.524 7.87091 11.2431 7.8358L9.28709 7.5913V9.28711C9.28709 9.43444 8.92661 9.52556 8.77956 9.53459L7.64536 9.60428C7.51583 9.61224 7.38283 9.5549 7.34641 9.43034C7.32994 9.37404 7.32144 9.31535 7.32144 9.25598V7.65058C7.32144 7.35366 6.93634 7.23706 6.77164 7.48412C6.72454 7.55477 6.69296 7.63461 6.679 7.71837L6.45562 9.05867C6.4175 9.28742 6.21959 9.45507 5.98769 9.45507C5.70495 9.45507 5.48498 9.20931 5.5162 8.9283L5.74423 6.87601C5.75981 6.7358 5.82264 6.60507 5.9224 6.50532L7.5336 4.97761C7.65011 4.86111 7.80813 4.79565 7.9729 4.79565Z" fill="#6C7F9C"/>
<path d="M7.62414 12.6795C7.64189 12.6499 7.6591 12.6199 7.67905 12.5917L8.75939 11.0655L7.4118 9.26436L6.60903 11.6416C6.58187 11.705 6.54522 11.7638 6.50034 11.8162L4.84158 13.7514C4.66506 13.9574 4.67686 14.2645 4.86864 14.4563C5.06043 14.648 5.36754 14.6598 5.57347 14.4833L7.48347 12.8462C7.5391 12.7985 7.58658 12.7422 7.62414 12.6795Z" fill="#6C7F9C"/>
<path d="M7.68695 10.2548L7.54631 9.17053L9.2809 9.24688L11.6705 13.8713C11.8028 14.1274 11.7127 14.4423 11.4649 14.5897C11.2234 14.7333 10.9122 14.6697 10.7465 14.4428L7.68695 10.2548Z" fill="#6C7F9C"/>
</svg>
