<svg width="16" height="17" viewBox="0 0 16 17" fill="none" xmlns="http://www.w3.org/2000/svg">
<path d="M8.86383 3.24251C8.86383 3.92873 8.30754 4.48502 7.62132 4.48502C6.9351 4.48502 6.37881 3.92873 6.37881 3.24251C6.37881 2.55629 6.9351 2 7.62132 2C8.30754 2 8.86383 2.55629 8.86383 3.24251Z" fill="white"/>
<path d="M7.25628 4.79565H7.63985C7.82423 4.79565 7.99908 4.87755 8.11712 5.01919L9.04409 6.48225C9.13934 6.59655 9.27245 6.67287 9.41921 6.69733L10.6622 6.9045C10.8892 6.94232 11.0555 7.13868 11.0555 7.36876C11.0555 7.65187 10.8074 7.87091 10.5264 7.8358L8.57047 7.5913V9.28711C8.57047 9.43444 8.21 9.52556 8.06294 9.53459L6.92875 9.60428C6.79922 9.61224 6.66622 9.5549 6.6298 9.43034C6.61333 9.37404 6.60482 9.31535 6.60482 9.25598V7.65058C6.60482 7.35366 6.21973 7.23706 6.05503 7.48412C6.00792 7.55477 5.97635 7.63461 5.96239 7.71837L5.73901 9.05867C5.70088 9.28742 5.50297 9.45507 5.27107 9.45507C4.98833 9.45507 4.76836 9.20931 4.79959 8.9283L5.02762 6.87601C5.0432 6.7358 5.10603 6.60507 5.20578 6.50532L6.81699 4.97761C6.9335 4.86111 7.09152 4.79565 7.25628 4.79565Z" fill="white"/>
<path d="M6.90752 12.6795C6.92527 12.6499 6.94248 12.6199 6.96243 12.5917L8.04278 11.0655L6.69518 9.26436L5.89242 11.6416C5.86525 11.705 5.8286 11.7638 5.78373 11.8162L4.12496 13.7514C3.94845 13.9574 3.96024 14.2645 4.15203 14.4563C4.34382 14.648 4.65093 14.6598 4.85686 14.4833L6.76685 12.8462C6.82249 12.7985 6.86997 12.7422 6.90752 12.6795Z" fill="white"/>
<path d="M6.97034 10.2548L6.8297 9.17053L8.56428 9.24688L10.9539 13.8713C11.0862 14.1274 10.9961 14.4423 10.7483 14.5897C10.5068 14.7333 10.1956 14.6697 10.0299 14.4428L6.97034 10.2548Z" fill="white"/>
</svg>
