<svg width="40" height="13" viewBox="0 0 40 13" fill="none" xmlns="http://www.w3.org/2000/svg">
<path fill-rule="evenodd" clip-rule="evenodd" d="M6.35662 1.31599C6.67109 1.31409 7.60569 1.22891 8.00156 2.5809C8.26823 3.49161 8.69301 4.9834 9.27591 7.05627H9.51331C10.1384 4.87091 10.5678 3.37912 10.8016 2.5809C11.2016 1.21483 12.2016 1.31602 12.6016 1.31602L15.6877 1.31602V11.0303H12.5422V5.30551H12.3313L10.5779 11.0303H8.21134L6.45792 5.30126H6.24699V11.0303H3.10156V1.31602L6.35662 1.31599ZM20.2044 1.31602V7.04506H20.4554L22.5882 2.33411C23.0023 1.39662 23.8847 1.31602 23.8847 1.31602H26.9285V11.0303H23.7174V5.30126H23.4665L21.3754 10.0122C20.9614 10.9455 20.0371 11.0303 20.0371 11.0303H16.9933V1.31602H20.2044ZM38.0276 5.93231C37.5797 7.21672 36.173 8.13657 34.6157 8.13657H31.2482V11.0303H28.1946V5.93231H38.0276Z" fill="#0F754E"/>
<path fill-rule="evenodd" clip-rule="evenodd" d="M34.7636 1.31567H28.0352C28.1953 3.4784 30.0359 5.32984 31.9412 5.32984H38.2404C38.604 3.53236 37.3526 1.31567 34.7636 1.31567Z" fill="url(#paint0_linear_2915_44203)"/>
<defs>
<linearGradient id="paint0_linear_2915_44203" x1="38.3022" y1="3.84076" x2="28.0352" y2="3.84076" gradientUnits="userSpaceOnUse">
<stop stop-color="#1F5CD7"/>
<stop offset="1" stop-color="#02AEFF"/>
</linearGradient>
</defs>
</svg>
