<svg width="25" height="24" viewBox="0 0 25 24" fill="none" xmlns="http://www.w3.org/2000/svg">
<path fill-rule="evenodd" clip-rule="evenodd" d="M18.4997 7.88315C18.4494 7.88563 18.3987 7.88688 18.3477 7.88688C16.6669 7.88688 15.3043 6.52427 15.3043 4.8434C15.3043 4.6771 15.3176 4.51392 15.3433 4.35486C15.1042 4.23832 14.8576 4.13691 14.6049 4.05141C14.3146 3.94921 14.0169 3.86896 13.7143 3.81141C13.5603 3.39839 13.1622 3.10425 12.6955 3.10425C12.6255 3.10425 12.557 3.11088 12.4906 3.12354C12.3523 3.13901 12.2208 3.19151 12.11 3.27527C11.9198 3.39712 11.77 3.57659 11.6854 3.78906C11.3399 3.8474 11.0003 3.93522 10.6703 4.05141C9.62088 4.40637 8.67727 5.03572 7.94261 5.88334C6.95169 7.02663 6.40784 8.48983 6.41147 10.0028V12.8666C6.33887 13.8389 6.07279 14.7869 5.62886 15.655C5.22937 16.2824 4.74782 16.8537 4.19698 17.3535L3.99988 17.5274L3.99991 18.1622H21.2753L21.2752 17.5274L21.0782 17.3535C20.5273 16.8537 20.0458 16.2824 19.6463 15.655C19.2024 14.7869 18.9363 13.8389 18.8637 12.8666V10.0028C18.8654 9.27468 18.7404 8.5581 18.4997 7.88315Z" fill="#C2C7CC"/>
<path d="M18.7448 7.09C20.1504 7.09 21.2898 5.95056 21.2898 4.545C21.2898 3.13944 20.1504 2 18.7448 2C17.3393 2 16.1998 3.13944 16.1998 4.545C16.1998 5.95056 17.3393 7.09 18.7448 7.09Z" fill="#C2C7CC"/>
<path d="M10.222 19.2C10.3287 19.7491 10.6188 20.2471 11.0466 20.611C11.5029 20.9992 12.0846 21.2084 12.6835 21.1997C13.2665 21.1863 13.826 20.9671 14.263 20.581C14.6719 20.2196 14.9489 19.7337 15.0525 19.2H10.222Z" fill="#C2C7CC"/>
</svg>
