<svg width="24" height="24" viewBox="0 0 24 24" fill="none" xmlns="http://www.w3.org/2000/svg">
<path d="M20.75 5C20.75 4.58579 20.4142 4.25 20 4.25C19.5858 4.25 19.25 4.58579 19.25 5H20.75ZM19.25 19C19.25 19.4142 19.5858 19.75 20 19.75C20.4142 19.75 20.75 19.4142 20.75 19H19.25ZM16 12.75C16.4142 12.75 16.75 12.4142 16.75 12C16.75 11.5858 16.4142 11.25 16 11.25V12.75ZM4 12L3.46967 11.4697C3.17678 11.7626 3.17678 12.2374 3.46967 12.5303L4 12ZM6.46967 15.5303C6.76256 15.8232 7.23744 15.8232 7.53033 15.5303C7.82322 15.2374 7.82322 14.7626 7.53033 14.4697L6.46967 15.5303ZM7.53033 9.53033C7.82322 9.23744 7.82322 8.76256 7.53033 8.46967C7.23744 8.17678 6.76256 8.17678 6.46967 8.46967L7.53033 9.53033ZM19.25 5V19H20.75V5H19.25ZM16 11.25H4V12.75H16V11.25ZM3.46967 12.5303L6.46967 15.5303L7.53033 14.4697L4.53033 11.4697L3.46967 12.5303ZM4.53033 12.5303L7.53033 9.53033L6.46967 8.46967L3.46967 11.4697L4.53033 12.5303Z" fill="#4C3DAA"/>
</svg>
