<svg width="286" height="164" viewBox="0 0 286 164" fill="none" xmlns="http://www.w3.org/2000/svg">
<g filter="url(#filter0_b_27149_35463)">
<mask id="path-1-outside-1_27149_35463" maskUnits="userSpaceOnUse" x="-0.866687" y="29.6284" width="81.357" height="93.1782" fill="black">
<rect fill="white" x="-0.866687" y="29.6284" width="81.357" height="93.1782"/>
<path fill-rule="evenodd" clip-rule="evenodd" d="M31.8724 46.8855L66.5707 66.5211C67.4606 67.1866 68.0303 67.8115 68.4872 68.5342C69.5376 70.2319 69.7936 72.2985 69.1974 74.3207C68.5987 76.3382 67.2499 78.0711 65.3809 79.2096L59.4803 82.4218L65.917 94.3578C67.1452 96.6353 66.3776 99.4438 64.2026 100.631L46.3872 110.354C44.2122 111.541 41.4534 110.657 40.2252 108.38L33.7736 96.4162L27.9121 99.6072C27.0947 99.9947 26.2115 100.261 25.3303 100.407C20.8735 101.048 16.9837 98.1426 16.6748 93.9562L19.1923 53.7612C19.262 52.3585 19.7429 50.9196 20.6298 49.6802C23.1486 46.0062 28.2083 44.7648 31.8724 46.8855Z"/>
</mask>
<path fill-rule="evenodd" clip-rule="evenodd" d="M31.8724 46.8855L66.5707 66.5211C67.4606 67.1866 68.0303 67.8115 68.4872 68.5342C69.5376 70.2319 69.7936 72.2985 69.1974 74.3207C68.5987 76.3382 67.2499 78.0711 65.3809 79.2096L59.4803 82.4218L65.917 94.3578C67.1452 96.6353 66.3776 99.4438 64.2026 100.631L46.3872 110.354C44.2122 111.541 41.4534 110.657 40.2252 108.38L33.7736 96.4162L27.9121 99.6072C27.0947 99.9947 26.2115 100.261 25.3303 100.407C20.8735 101.048 16.9837 98.1426 16.6748 93.9562L19.1923 53.7612C19.262 52.3585 19.7429 50.9196 20.6298 49.6802C23.1486 46.0062 28.2083 44.7648 31.8724 46.8855Z" fill="#BA90FF" fill-opacity="0.35"/>
<path d="M66.5707 66.5211L66.8805 66.0182C66.8625 66.0048 66.8439 65.9926 66.8246 65.9816L66.5707 66.5211ZM31.8724 46.8855L31.6142 47.4226L31.6186 47.425L31.8724 46.8855ZM68.4872 68.5342L68.9385 68.1869L68.9354 68.1819L68.4872 68.5342ZM69.1974 74.3207L69.7153 74.5017L69.7156 74.5006L69.1974 74.3207ZM65.3809 79.2096L65.6152 79.7516C65.6229 79.7475 65.6304 79.7431 65.6379 79.7385L65.3809 79.2096ZM59.4803 82.4218L59.246 81.8798C59.1077 81.9551 59.0033 82.0911 58.9586 82.2543C58.9139 82.4176 58.933 82.5932 59.0111 82.738L59.4803 82.4218ZM65.917 94.3578L66.3862 94.0416L65.917 94.3578ZM64.2026 100.631L63.9678 100.089L64.2026 100.631ZM46.3872 110.354L46.622 110.896L46.3872 110.354ZM40.2252 108.38L39.7559 108.696L40.2252 108.38ZM33.7736 96.4162L34.2428 96.1C34.0991 95.8335 33.794 95.7355 33.5393 95.8742L33.7736 96.4162ZM27.9121 99.6072L28.1199 100.163C28.1288 100.158 28.1376 100.154 28.1463 100.149L27.9121 99.6072ZM25.3303 100.407L25.3922 101.007L25.4032 101.005L25.3303 100.407ZM16.6748 93.9562L16.1308 93.9236C16.1288 93.9539 16.129 93.9844 16.1312 94.0147L16.6748 93.9562ZM19.1923 53.7612L19.7364 53.7939L19.7368 53.7853L19.1923 53.7612ZM20.6298 49.6802L21.0551 50.0517L21.0621 50.0415L20.6298 49.6802ZM66.8246 65.9816L32.1262 46.346L31.6186 47.425L66.3169 67.0606L66.8246 65.9816ZM68.9354 68.1819C68.4358 67.3919 67.8163 66.7181 66.8805 66.0182L66.261 67.0241C67.1048 67.6552 67.6248 68.2312 68.039 68.8864L68.9354 68.1819ZM69.7156 74.5006C70.3635 72.303 70.0857 70.0412 68.9385 68.1869L68.0359 68.8814C68.9895 70.4227 69.2237 72.2941 68.6793 74.1408L69.7156 74.5006ZM65.6379 79.7385C67.6163 78.5334 69.0678 76.6834 69.7153 74.5017L68.6796 74.1397C68.1296 75.993 66.8835 77.6088 65.124 78.6806L65.6379 79.7385ZM59.7146 82.9638L65.6152 79.7516L65.1467 78.6676L59.246 81.8798L59.7146 82.9638ZM59.0111 82.738L65.4477 94.6739L66.3862 94.0416L59.9496 82.1056L59.0111 82.738ZM65.4477 94.6739C66.5126 96.6485 65.8535 99.06 63.9678 100.089L64.4373 101.173C66.9017 99.8277 67.7778 96.622 66.3862 94.0416L65.4477 94.6739ZM63.9678 100.089L46.1525 109.812L46.622 110.896L64.4373 101.173L63.9678 100.089ZM46.1525 109.812C44.2322 110.86 41.7787 110.074 40.6944 108.064L39.7559 108.696C41.128 111.24 44.1922 112.222 46.622 110.896L46.1525 109.812ZM40.6944 108.064L34.2428 96.1L33.3044 96.7324L39.7559 108.696L40.6944 108.064ZM28.1463 100.149L34.0079 96.9583L33.5393 95.8742L27.6778 99.0651L28.1463 100.149ZM25.4032 101.005C26.3262 100.852 27.2552 100.573 28.1199 100.163L27.7042 99.0517C26.9341 99.4168 26.0968 99.6696 25.2573 99.8095L25.4032 101.005ZM16.1312 94.0147C16.4721 98.635 20.7211 101.679 25.3922 101.007L25.2683 99.8078C21.0258 100.418 17.4953 97.6501 17.2184 93.8977L16.1312 94.0147ZM18.6482 53.7286L16.1308 93.9236L17.2189 93.9888L19.7363 53.7939L18.6482 53.7286ZM20.2046 49.3089C19.2482 50.6453 18.7239 52.205 18.6477 53.7372L19.7368 53.7853C19.8002 52.512 20.2376 51.1939 21.055 50.0516L20.2046 49.3089ZM32.1306 46.3485C28.2362 44.0945 22.8826 45.4023 20.1975 49.319L21.0621 50.0415C23.4146 46.6101 28.1803 45.4351 31.6142 47.4225L32.1306 46.3485Z" fill="url(#paint0_linear_27149_35463)" mask="url(#path-1-outside-1_27149_35463)"/>
</g>
<g filter="url(#filter1_b_27149_35463)">
<path d="M270.307 62.5792C269.623 62.9738 269.177 63.6808 269.112 64.4679L268.375 75.3851C268.312 76.3102 267.713 77.1121 266.844 77.4375C265.985 77.7857 265.003 77.6067 264.318 76.9833L256.149 69.7179C255.866 69.4617 255.527 69.2771 255.158 69.1732L254.583 69.0286C254.376 69.0082 254.164 69.0228 253.962 69.0757L243.321 71.6394C242.797 71.7561 242.25 71.7066 241.755 71.4942C240.558 70.9407 240.021 69.5329 240.544 68.3217L245.057 58.3534C245.374 57.6228 245.316 56.7846 244.902 56.1052L239.104 46.7503C238.619 45.9673 238.631 44.9774 239.136 44.2083C239.632 43.4392 240.512 43.0082 241.423 43.0905L252.357 44.2109C253.18 44.3298 254.007 44.0186 254.549 43.3876L261.592 35.0253C261.756 34.8408 261.947 34.6813 262.161 34.5589L262.389 34.4583C262.517 34.373 262.654 34.3106 262.8 34.2683L263.053 34.2415L263.451 34.1836L264.345 34.4081C265.122 34.6915 265.705 35.3456 265.893 36.151L268.219 46.8224C268.384 47.6019 268.923 48.2496 269.656 48.5578L279.82 52.7389C280.68 53.0903 281.27 53.893 281.352 54.8162C281.416 55.7372 280.941 56.6109 280.133 57.06L270.307 62.5792Z" fill="#D7C6FF" fill-opacity="0.4"/>
<path d="M268.643 75.4034L268.643 75.4032L269.38 64.4899C269.38 64.4892 269.38 64.4886 269.38 64.4879C269.438 63.7894 269.834 63.1623 270.44 62.812C270.44 62.8118 270.44 62.8115 270.441 62.8113L280.264 57.2942C280.264 57.2942 280.264 57.2941 280.264 57.294C281.162 56.7944 281.69 55.8224 281.619 54.7976L281.619 54.7976L281.619 54.7926C281.528 53.7698 280.874 52.8804 279.922 52.491C279.922 52.4909 279.922 52.4909 279.922 52.4909L269.759 48.3107C269.759 48.3106 269.759 48.3105 269.758 48.3103C269.107 48.0357 268.628 47.4594 268.481 46.7669L268.48 46.7654L266.155 36.094L266.155 36.094L266.154 36.0901C265.945 35.1961 265.298 34.4705 264.437 34.1564C264.428 34.1532 264.419 34.1505 264.41 34.1482L263.517 33.9237C263.483 33.9152 263.447 33.9134 263.413 33.9184L263.02 33.9756L262.772 34.0018C262.756 34.0034 262.741 34.0065 262.726 34.0109C262.563 34.0582 262.407 34.1276 262.261 34.2222L262.053 34.3137C262.044 34.3175 262.036 34.3217 262.028 34.3264C261.787 34.4643 261.573 34.643 261.392 34.8475L261.392 34.8474L261.387 34.8527L254.346 43.213C254.346 43.2133 254.345 43.2137 254.345 43.214C253.863 43.775 253.127 44.0513 252.395 43.9457L252.395 43.9455L252.384 43.9443L241.45 42.8239L241.45 42.8239L241.447 42.8236C240.436 42.7324 239.461 43.2102 238.911 44.0622C238.35 44.9186 238.337 46.0204 238.876 46.8913L238.876 46.8915L244.673 56.2446C244.673 56.2449 244.673 56.2452 244.674 56.2454C245.041 56.8497 245.093 57.5949 244.812 58.2448C244.812 58.2455 244.811 58.2461 244.811 58.2468L240.3 68.2112L240.3 68.2112L240.298 68.2154C239.717 69.56 240.314 71.1229 241.642 71.7374L241.642 71.7375L241.649 71.7405C242.196 71.9752 242.801 72.0298 243.379 71.901L243.379 71.901L243.383 71.8999L254.024 69.3362L254.024 69.3362L254.029 69.335C254.194 69.2921 254.366 69.2788 254.537 69.2936L255.089 69.4321C255.418 69.5254 255.719 69.6899 255.969 69.9166L255.971 69.9181L264.138 77.1815C264.138 77.1819 264.139 77.1822 264.139 77.1826C264.899 77.8732 265.987 78.0724 266.942 77.6872C267.907 77.3242 268.572 76.4324 268.643 75.4034Z" stroke="url(#paint1_linear_27149_35463)" stroke-width="0.535972" stroke-linecap="round" stroke-linejoin="round"/>
</g>
<g filter="url(#filter2_bd_27149_35463)">
<path d="M252.666 127.845C252.224 127.32 251.448 127.221 250.898 127.599C250.629 127.837 250.447 128.168 250.425 128.525C250.403 128.883 250.524 129.24 250.768 129.523L250.797 129.564C251.466 130.484 251.504 131.725 250.89 132.654C250.479 133.251 250.63 134.067 251.215 134.486C251.814 134.896 252.618 134.756 253.023 134.179C254.254 132.299 254.158 129.817 252.779 128.002L252.666 127.845Z" fill="url(#paint2_linear_27149_35463)"/>
<path d="M250.803 129.493L250.803 129.493L250.805 129.496L250.835 129.537C251.514 130.472 251.554 131.734 250.928 132.679L250.928 132.679L250.928 132.68C250.532 133.256 250.677 134.044 251.242 134.448C251.821 134.844 252.595 134.708 252.985 134.153C254.204 132.29 254.11 129.83 252.743 128.03L252.743 128.03L252.742 128.029L252.629 127.874C252.203 127.368 251.457 127.273 250.927 127.635C250.666 127.866 250.492 128.185 250.471 128.528C250.45 128.873 250.566 129.219 250.803 129.493Z" stroke="url(#paint3_linear_27149_35463)" stroke-opacity="0.5" stroke-width="0.0925359"/>
</g>
<g filter="url(#filter3_b_27149_35463)">
<mask id="path-7-outside-2_27149_35463" maskUnits="userSpaceOnUse" x="228.253" y="145.84" width="14.7456" height="11.8965" fill="black">
<rect fill="white" x="228.253" y="145.84" width="14.7456" height="11.8965"/>
<path d="M240.088 151.306C239.321 150.718 234.122 148.252 233.182 148.029C232.373 147.851 231.398 147.869 230.99 148.729C230.643 149.569 230.78 150.52 231.227 151.295L231.225 151.296C231.767 152.374 232.574 153.28 233.558 153.934C234.085 154.278 234.66 154.547 235.279 154.75C236.406 155.098 237.618 155.15 238.796 154.888L238.795 154.885C239.678 154.742 240.501 154.246 240.933 153.446C241.341 152.586 240.738 151.82 240.088 151.306Z"/>
</mask>
<path d="M240.088 151.306C239.321 150.718 234.122 148.252 233.182 148.029C232.373 147.851 231.398 147.869 230.99 148.729C230.643 149.569 230.78 150.52 231.227 151.295L231.225 151.296C231.767 152.374 232.574 153.28 233.558 153.934C234.085 154.278 234.66 154.547 235.279 154.75C236.406 155.098 237.618 155.15 238.796 154.888L238.795 154.885C239.678 154.742 240.501 154.246 240.933 153.446C241.341 152.586 240.738 151.82 240.088 151.306Z" fill="#E1D2FF" fill-opacity="0.35"/>
<path d="M239.807 151.673C240.01 151.828 240.3 151.79 240.456 151.587C240.611 151.384 240.572 151.093 240.369 150.938L239.807 151.673ZM233.182 148.029L233.289 147.579L233.281 147.577L233.182 148.029ZM230.99 148.729L230.572 148.53C230.569 148.538 230.565 148.545 230.562 148.552L230.99 148.729ZM231.227 151.295L231.386 151.73C231.514 151.683 231.615 151.582 231.662 151.453C231.709 151.325 231.696 151.182 231.628 151.064L231.227 151.295ZM231.225 151.296L231.067 150.861C230.943 150.906 230.844 151.002 230.795 151.125C230.746 151.248 230.752 151.386 230.811 151.504L231.225 151.296ZM233.558 153.934L233.302 154.319L233.305 154.321L233.558 153.934ZM235.279 154.75L235.134 155.19L235.142 155.192L235.279 154.75ZM238.796 154.888L238.897 155.339C239.026 155.311 239.136 155.228 239.2 155.113C239.265 154.997 239.277 154.86 239.233 154.735L238.796 154.888ZM238.795 154.885L238.721 154.428C238.586 154.45 238.468 154.531 238.398 154.649C238.328 154.766 238.313 154.909 238.358 155.038L238.795 154.885ZM240.933 153.446L241.34 153.665C241.344 153.658 241.348 153.651 241.351 153.644L240.933 153.446ZM240.376 150.943C240.175 150.784 239.884 150.818 239.726 151.018C239.567 151.219 239.601 151.51 239.801 151.668L240.376 150.943ZM240.369 150.938C240.139 150.762 239.632 150.479 239.031 150.167C238.415 149.846 237.658 149.473 236.898 149.113C236.138 148.752 235.371 148.402 234.733 148.127C234.111 147.86 233.571 147.646 233.289 147.579L233.075 148.479C233.263 148.524 233.725 148.701 234.367 148.977C234.992 149.246 235.749 149.591 236.502 149.949C237.255 150.306 238.001 150.674 238.604 150.988C239.224 151.31 239.654 151.555 239.807 151.673L240.369 150.938ZM233.281 147.577C232.844 147.481 232.323 147.428 231.833 147.539C231.324 147.654 230.847 147.95 230.572 148.53L231.408 148.927C231.541 148.648 231.755 148.505 232.038 148.441C232.34 148.373 232.71 148.399 233.083 148.481L233.281 147.577ZM230.562 148.552C230.151 149.549 230.322 150.652 230.827 151.526L231.628 151.064C231.238 150.389 231.136 149.588 231.418 148.905L230.562 148.552ZM231.069 150.86L231.067 150.861L231.383 151.731L231.386 151.73L231.069 150.86ZM230.811 151.504C231.39 152.654 232.251 153.62 233.302 154.319L233.815 153.549C232.897 152.939 232.144 152.095 231.638 151.088L230.811 151.504ZM233.305 154.321C233.869 154.69 234.481 154.975 235.134 155.19L235.423 154.31C234.839 154.119 234.301 153.867 233.812 153.547L233.305 154.321ZM235.142 155.192C236.347 155.563 237.64 155.619 238.897 155.339L238.696 154.436C237.596 154.681 236.466 154.632 235.415 154.308L235.142 155.192ZM239.233 154.735L239.232 154.733L238.358 155.038L238.359 155.04L239.233 154.735ZM238.87 155.342C239.866 155.18 240.828 154.615 241.34 153.665L240.526 153.226C240.175 153.877 239.49 154.303 238.721 154.428L238.87 155.342ZM241.351 153.644C241.626 153.064 241.554 152.507 241.321 152.04C241.097 151.591 240.726 151.22 240.376 150.943L239.801 151.668C240.1 151.905 240.355 152.175 240.493 152.453C240.622 152.712 240.647 152.968 240.515 153.247L241.351 153.644Z" fill="url(#paint4_linear_27149_35463)" mask="url(#path-7-outside-2_27149_35463)"/>
</g>
<g filter="url(#filter4_b_27149_35463)">
<mask id="path-9-outside-3_27149_35463" maskUnits="userSpaceOnUse" x="221.968" y="111.939" width="44.4344" height="43.4847" fill="black">
<rect fill="white" x="221.968" y="111.939" width="44.4344" height="43.4847"/>
<path d="M256.119 142.91C255.563 140.862 255.595 139.331 256.612 137.188L256.958 136.459C258.283 133.665 258.494 131.56 257.95 129.097C257.122 125.28 254.294 121.874 250.744 120.19L250.593 120.118C247.117 118.469 242.841 118.41 239.377 120.052C237.031 121.188 235.423 122.725 234.061 125.596L233.715 126.325C232.698 128.469 231.57 129.479 229.595 130.326C228.142 130.951 227.186 132.186 226.478 133.678C225.769 135.172 225.588 136.82 226.026 138.437C226.656 140.425 228.052 142.165 229.832 143.197C232.369 144.775 234.997 146.163 237.718 147.454C240.437 148.744 243.211 149.824 246.003 150.868C247.926 151.594 250.157 151.574 252.096 150.804C253.623 150.12 254.787 148.939 255.495 147.445C256.203 145.953 256.555 144.431 256.119 142.91Z"/>
</mask>
<path d="M256.119 142.91C255.563 140.862 255.595 139.331 256.612 137.188L256.958 136.459C258.283 133.665 258.494 131.56 257.95 129.097C257.122 125.28 254.294 121.874 250.744 120.19L250.593 120.118C247.117 118.469 242.841 118.41 239.377 120.052C237.031 121.188 235.423 122.725 234.061 125.596L233.715 126.325C232.698 128.469 231.57 129.479 229.595 130.326C228.142 130.951 227.186 132.186 226.478 133.678C225.769 135.172 225.588 136.82 226.026 138.437C226.656 140.425 228.052 142.165 229.832 143.197C232.369 144.775 234.997 146.163 237.718 147.454C240.437 148.744 243.211 149.824 246.003 150.868C247.926 151.594 250.157 151.574 252.096 150.804C253.623 150.12 254.787 148.939 255.495 147.445C256.203 145.953 256.555 144.431 256.119 142.91Z" fill="#E1D2FF" fill-opacity="0.35"/>
<path d="M255.673 143.031C255.74 143.277 255.994 143.423 256.241 143.356C256.487 143.289 256.633 143.035 256.566 142.788L255.673 143.031ZM257.95 129.097L257.498 129.195L257.499 129.197L257.95 129.097ZM239.377 120.052L239.178 119.634L239.175 119.635L239.377 120.052ZM229.595 130.326L229.413 129.901L229.413 129.901L229.595 130.326ZM226.026 138.437L225.58 138.558C225.581 138.564 225.583 138.57 225.585 138.576L226.026 138.437ZM229.832 143.197L230.077 142.804C230.073 142.802 230.068 142.799 230.064 142.797L229.832 143.197ZM246.003 150.868L246.166 150.436L246.165 150.435L246.003 150.868ZM252.096 150.804L252.266 151.234C252.273 151.232 252.279 151.229 252.285 151.226L252.096 150.804ZM256.564 142.782C256.494 142.536 256.238 142.394 255.992 142.465C255.746 142.535 255.604 142.791 255.675 143.037L256.564 142.782ZM256.566 142.788C256.296 141.795 256.177 140.955 256.237 140.118C256.298 139.282 256.54 138.42 257.03 137.386L256.194 136.989C255.668 138.099 255.385 139.074 255.314 140.051C255.244 141.027 255.387 141.977 255.673 143.031L256.566 142.788ZM257.03 137.386L257.376 136.657L256.54 136.26L256.194 136.989L257.03 137.386ZM257.376 136.657C258.742 133.779 258.97 131.569 258.402 128.997L257.499 129.197C258.019 131.551 257.825 133.552 256.54 136.26L257.376 136.657ZM258.403 128.999C257.542 125.033 254.614 121.514 250.942 119.772L250.545 120.608C253.974 122.235 256.702 125.527 257.498 129.195L258.403 128.999ZM250.942 119.772L250.791 119.7L250.394 120.536L250.545 120.608L250.942 119.772ZM250.791 119.7C247.194 117.994 242.773 117.93 239.178 119.634L239.575 120.47C242.908 118.89 247.039 118.944 250.394 120.536L250.791 119.7ZM239.175 119.635C236.731 120.82 235.048 122.436 233.643 125.398L234.479 125.794C235.798 123.014 237.332 121.557 239.578 120.468L239.175 119.635ZM233.643 125.398L233.297 126.127L234.133 126.523L234.479 125.794L233.643 125.398ZM233.297 126.127C232.805 127.164 232.299 127.901 231.695 128.477C231.091 129.054 230.368 129.492 229.413 129.901L229.778 130.752C230.798 130.314 231.626 129.823 232.334 129.147C233.042 128.47 233.608 127.63 234.133 126.523L233.297 126.127ZM229.413 129.901C227.813 130.588 226.792 131.937 226.06 133.48L226.896 133.877C227.58 132.435 228.47 131.313 229.778 130.751L229.413 129.901ZM226.06 133.48C225.306 135.068 225.111 136.829 225.58 138.558L226.473 138.316C226.065 136.811 226.232 135.277 226.896 133.877L226.06 133.48ZM225.585 138.576C226.25 140.673 227.72 142.507 229.6 143.597L230.064 142.797C228.385 141.823 227.063 140.176 226.467 138.297L225.585 138.576ZM229.588 143.59C232.143 145.18 234.787 146.575 237.519 147.872L237.916 147.036C235.207 145.75 232.595 144.371 230.077 142.804L229.588 143.59ZM237.519 147.872C240.257 149.171 243.046 150.256 245.841 151.302L246.165 150.435C243.375 149.391 240.617 148.317 237.916 147.036L237.519 147.872ZM245.84 151.301C247.872 152.067 250.222 152.046 252.266 151.234L251.925 150.374C250.093 151.101 247.981 151.12 246.166 150.436L245.84 151.301ZM252.285 151.226C253.918 150.495 255.16 149.231 255.913 147.643L255.077 147.246C254.413 148.646 253.329 149.745 251.907 150.382L252.285 151.226ZM255.913 147.643C256.645 146.1 257.044 144.456 256.564 142.782L255.675 143.037C256.067 144.406 255.761 145.805 255.077 147.246L255.913 147.643Z" fill="url(#paint5_linear_27149_35463)" mask="url(#path-9-outside-3_27149_35463)"/>
</g>
<defs>
<filter id="filter0_b_27149_35463" x="0.146259" y="29.2633" width="85.895" height="98.2063" filterUnits="userSpaceOnUse" color-interpolation-filters="sRGB">
<feFlood flood-opacity="0" result="BackgroundImageFix"/>
<feGaussianBlur in="BackgroundImageFix" stdDeviation="7.99157"/>
<feComposite in2="SourceAlpha" operator="in" result="effect1_backgroundBlur_27149_35463"/>
<feBlend mode="normal" in="SourceGraphic" in2="effect1_backgroundBlur_27149_35463" result="shape"/>
</filter>
<filter id="filter1_b_27149_35463" x="225.35" y="20.7842" width="69.4073" height="70.2281" filterUnits="userSpaceOnUse" color-interpolation-filters="sRGB">
<feFlood flood-opacity="0" result="BackgroundImageFix"/>
<feGaussianBlur in="BackgroundImageFix" stdDeviation="6.43167"/>
<feComposite in2="SourceAlpha" operator="in" result="effect1_backgroundBlur_27149_35463"/>
<feBlend mode="normal" in="SourceGraphic" in2="effect1_backgroundBlur_27149_35463" result="shape"/>
</filter>
<filter id="filter2_bd_27149_35463" x="243.483" y="120.431" width="17.3413" height="21.231" filterUnits="userSpaceOnUse" color-interpolation-filters="sRGB">
<feFlood flood-opacity="0" result="BackgroundImageFix"/>
<feGaussianBlur in="BackgroundImageFix" stdDeviation="3.4701"/>
<feComposite in2="SourceAlpha" operator="in" result="effect1_backgroundBlur_27149_35463"/>
<feColorMatrix in="SourceAlpha" type="matrix" values="0 0 0 0 0 0 0 0 0 0 0 0 0 0 0 0 0 0 127 0" result="hardAlpha"/>
<feOffset dx="2.3134" dy="2.3134"/>
<feGaussianBlur stdDeviation="2.3134"/>
<feColorMatrix type="matrix" values="0 0 0 0 0.57165 0 0 0 0 0.15375 0 0 0 0 0.9 0 0 0 0.5 0"/>
<feBlend mode="normal" in2="effect1_backgroundBlur_27149_35463" result="effect2_dropShadow_27149_35463"/>
<feBlend mode="normal" in="SourceGraphic" in2="effect2_dropShadow_27149_35463" result="shape"/>
</filter>
<filter id="filter3_b_27149_35463" x="223.392" y="140.537" width="25.0767" height="21.9194" filterUnits="userSpaceOnUse" color-interpolation-filters="sRGB">
<feFlood flood-opacity="0" result="BackgroundImageFix"/>
<feGaussianBlur in="BackgroundImageFix" stdDeviation="3.4701"/>
<feComposite in2="SourceAlpha" operator="in" result="effect1_backgroundBlur_27149_35463"/>
<feBlend mode="normal" in="SourceGraphic" in2="effect1_backgroundBlur_27149_35463" result="shape"/>
</filter>
<filter id="filter4_b_27149_35463" x="218.387" y="111.448" width="47.2456" height="47.3525" filterUnits="userSpaceOnUse" color-interpolation-filters="sRGB">
<feFlood flood-opacity="0" result="BackgroundImageFix"/>
<feGaussianBlur in="BackgroundImageFix" stdDeviation="3.4701"/>
<feComposite in2="SourceAlpha" operator="in" result="effect1_backgroundBlur_27149_35463"/>
<feBlend mode="normal" in="SourceGraphic" in2="effect1_backgroundBlur_27149_35463" result="shape"/>
</filter>
<linearGradient id="paint0_linear_27149_35463" x1="11.6159" y1="63.39" x2="69.7093" y2="82.6761" gradientUnits="userSpaceOnUse">
<stop stop-color="white" stop-opacity="0.25"/>
<stop offset="1" stop-color="white" stop-opacity="0"/>
</linearGradient>
<linearGradient id="paint1_linear_27149_35463" x1="248.4" y1="35.3969" x2="265.491" y2="74.9245" gradientUnits="userSpaceOnUse">
<stop stop-color="white" stop-opacity="0.25"/>
<stop offset="1" stop-color="white" stop-opacity="0"/>
</linearGradient>
<linearGradient id="paint2_linear_27149_35463" x1="254.842" y1="131.461" x2="250.117" y2="134.713" gradientUnits="userSpaceOnUse">
<stop stop-color="white"/>
<stop offset="1" stop-color="white" stop-opacity="0.2"/>
</linearGradient>
<linearGradient id="paint3_linear_27149_35463" x1="250.818" y1="133.112" x2="254.342" y2="130.529" gradientUnits="userSpaceOnUse">
<stop stop-color="white"/>
<stop offset="1" stop-color="white" stop-opacity="0"/>
</linearGradient>
<linearGradient id="paint4_linear_27149_35463" x1="233.042" y1="148.49" x2="232.607" y2="155.015" gradientUnits="userSpaceOnUse">
<stop stop-color="white" stop-opacity="0.25"/>
<stop offset="1" stop-color="white" stop-opacity="0"/>
</linearGradient>
<linearGradient id="paint5_linear_27149_35463" x1="239.27" y1="118.643" x2="245.713" y2="149.377" gradientUnits="userSpaceOnUse">
<stop stop-color="white" stop-opacity="0.25"/>
<stop offset="1" stop-color="white" stop-opacity="0"/>
</linearGradient>
</defs>
</svg>
