<svg width="24" height="24" viewBox="0 0 24 24" fill="none" xmlns="http://www.w3.org/2000/svg">
<path d="M21.2058 4.54006C21.2058 4.08006 21.0258 3.66006 20.7058 3.34006L20.6658 3.30007C20.0058 2.64007 18.9458 2.64005 18.2858 3.28005L8.52577 12.3401C7.20577 12.0601 5.78577 12.4201 4.78577 13.4401C3.40577 14.8001 3.44577 16.3201 3.46577 17.2401C3.46577 17.3601 3.46577 17.4801 3.46577 17.5801C3.44577 18.3201 3.06577 19.2201 2.90577 19.5201C2.80577 19.7201 2.78577 19.9601 2.86577 20.1601C2.94577 20.3801 3.10577 20.5401 3.30577 20.6201C4.24577 21.0201 5.18577 21.2001 6.08577 21.2001C7.66577 21.2001 9.16577 20.6001 10.3058 19.4601C11.2458 18.5201 11.7658 17.3801 11.7658 16.2401C11.7658 15.9601 11.7258 15.7001 11.6858 15.4401L20.7258 5.72009C21.0258 5.40009 21.2058 4.98006 21.2058 4.54006ZM9.16577 18.3201C7.98577 19.5001 6.36577 19.8801 4.66577 19.4001C4.84577 18.9001 5.02577 18.2401 5.04577 17.6001C5.04577 17.4801 5.04577 17.3401 5.04577 17.2001C5.02577 16.3801 5.00577 15.46 5.90577 14.58C6.86577 13.62 8.44577 13.62 9.42577 14.58C9.90577 15.06 10.1658 15.6401 10.1658 16.2401C10.1658 16.9401 9.80577 17.6801 9.16577 18.3201ZM19.5858 4.60007L19.5658 4.62009L10.9458 13.88C10.8258 13.72 10.7058 13.5801 10.5658 13.4401C10.4258 13.3001 10.2658 13.1801 10.1258 13.0601L19.4058 4.44006L19.4258 4.42009C19.4658 4.38009 19.5258 4.38009 19.5658 4.42009L19.6058 4.46008C19.6258 4.48008 19.6258 4.50009 19.6258 4.52009C19.6058 4.56009 19.6058 4.58007 19.5858 4.60007Z" fill="#6C7F9C"/>
</svg>
