<svg width="24" height="24" viewBox="0 0 24 24" fill="none" xmlns="http://www.w3.org/2000/svg">
<path d="M7.98093 6.50631L8.08983 5.84859L7.76018 5.79401L7.51917 6.02545L7.98093 6.50631ZM4.68375 6.50631L5.11262 5.9959L4.87764 5.79846L4.57485 5.84859L4.68375 6.50631ZM1.56641 10.5803H0.89974V10.8385L1.07362 11.0293L1.56641 10.5803ZM11.0983 10.5803L11.5911 11.0293L11.7649 10.8385V10.5803H11.0983ZM7.97148 3.9236C7.97148 5.06927 7.17208 5.84753 6.36009 5.84753V7.18086C8.06436 7.18086 9.30481 5.63942 9.30481 3.9236H7.97148ZM6.36009 1.99967C7.17208 1.99967 7.97148 2.77793 7.97148 3.9236H9.30481C9.30481 2.20778 8.06436 0.666341 6.36009 0.666341V1.99967ZM4.7487 3.9236C4.7487 2.77793 5.54809 1.99967 6.36009 1.99967V0.666341C4.65581 0.666341 3.41536 2.20778 3.41536 3.9236H4.7487ZM6.36009 5.84753C5.54809 5.84753 4.7487 5.06927 4.7487 3.9236H3.41536C3.41536 5.63942 4.65581 7.18086 6.36009 7.18086V5.84753ZM7.87204 7.16402C9.32172 7.40404 10.4316 8.6494 10.4316 10.018H11.7649C11.7649 7.93247 10.1172 6.18426 8.08983 5.84859L7.87204 7.16402ZM6.36231 7.74866C7.07531 7.74866 7.86221 7.54459 8.44269 6.98716L7.51917 6.02545C7.26037 6.27398 6.8483 6.41533 6.36231 6.41533V7.74866ZM4.25487 7.01671C4.87139 7.53474 5.56943 7.74866 6.36231 7.74866V6.41533C5.83632 6.41533 5.45528 6.28383 5.11262 5.9959L4.25487 7.01671ZM2.23307 10.018C2.23307 8.6494 3.34296 7.40404 4.79264 7.16402L4.57485 5.84859C2.5475 6.18426 0.89974 7.93247 0.89974 10.018H2.23307ZM2.23307 10.5803V10.018H0.89974V10.5803H2.23307ZM10.6055 10.1313C9.73101 11.091 8.08945 11.6407 6.33234 11.6407C4.57523 11.6407 2.93367 11.091 2.05919 10.1313L1.07362 11.0293C2.29735 12.3723 4.37262 12.974 6.33234 12.974C8.29206 12.974 10.3673 12.3723 11.5911 11.0293L10.6055 10.1313ZM10.4316 10.018V10.5803H11.7649V10.018H10.4316Z" fill="#6A56E8"/>
<path d="M19.8481 16.8657L19.957 16.208L19.6274 16.1534L19.3864 16.3848L19.8481 16.8657ZM16.5509 16.8657L16.9798 16.3553L16.7448 16.1578L16.442 16.208L16.5509 16.8657ZM13.4336 20.9397H12.7669V21.1979L12.9408 21.3887L13.4336 20.9397ZM22.9655 20.9397L23.4582 21.3887L23.6321 21.1979V20.9397H22.9655ZM19.8387 14.283C19.8387 15.4286 19.0393 16.2069 18.2273 16.2069V17.5402C19.9315 17.5402 21.172 15.9988 21.172 14.283H19.8387ZM18.2273 12.359C19.0393 12.359 19.8387 13.1373 19.8387 14.283H21.172C21.172 12.5672 19.9315 11.0257 18.2273 11.0257V12.359ZM16.6159 14.283C16.6159 13.1373 17.4153 12.359 18.2273 12.359V11.0257C16.523 11.0257 15.2826 12.5672 15.2826 14.283H16.6159ZM18.2273 16.2069C17.4153 16.2069 16.6159 15.4286 16.6159 14.283H15.2826C15.2826 15.9988 16.523 17.5402 18.2273 17.5402V16.2069ZM19.7392 17.5234C21.1889 17.7634 22.2988 19.0088 22.2988 20.3774H23.6321C23.6321 18.2918 21.9844 16.5436 19.957 16.208L19.7392 17.5234ZM18.2295 18.108C18.9425 18.108 19.7294 17.904 20.3099 17.3465L19.3864 16.3848C19.1276 16.6334 18.7155 16.7747 18.2295 16.7747V18.108ZM16.1221 17.3761C16.7386 17.8941 17.4366 18.108 18.2295 18.108V16.7747C17.7035 16.7747 17.3225 16.6432 16.9798 16.3553L16.1221 17.3761ZM14.1003 20.3774C14.1003 19.0088 15.2101 17.7634 16.6598 17.5234L16.442 16.208C14.4147 16.5436 12.7669 18.2918 12.7669 20.3774H14.1003ZM14.1003 20.9397V20.3774H12.7669V20.9397H14.1003ZM22.4727 20.4907C21.5982 21.4504 19.9566 22.0001 18.1995 22.0001C16.4424 22.0001 14.8009 21.4504 13.9264 20.4907L12.9408 21.3887C14.1645 22.7317 16.2398 23.3334 18.1995 23.3334C20.1592 23.3334 22.2345 22.7317 23.4582 21.3887L22.4727 20.4907ZM22.2988 20.3774V20.9397H23.6321V20.3774H22.2988Z" fill="#6A56E8"/>
<path d="M12.5729 19.677L8.65905 15.4325L6.94015 20.9442L12.5729 19.677ZM12.5729 4.57031L16.4867 8.81477L18.2056 3.30308L12.5729 4.57031ZM8.56174 17.9262C6.72249 16.6522 5.51953 14.5284 5.51953 12.1236H4.51953C4.51953 14.8702 5.89496 17.2955 7.99233 18.7483L8.56174 17.9262ZM16.584 6.32105C18.4232 7.59504 19.6262 9.7189 19.6262 12.1236H20.6262C20.6262 9.37704 19.2508 6.95178 17.1534 5.499L16.584 6.32105Z" fill="#6A56E8"/>
</svg>
