<svg width="24" height="24" viewBox="0 0 24 24" fill="none" xmlns="http://www.w3.org/2000/svg">
<path d="M7.49994 16.5L7.00965 16.4019C6.97686 16.5659 7.02817 16.7353 7.14638 16.8536C7.26459 16.9718 7.43406 17.0231 7.59799 16.9903L7.49994 16.5ZM15.5501 5.62132L15.1965 5.26777L15.1965 5.26777L15.5501 5.62132ZM11.4637 15.3647L11.1101 15.0111L11.4637 15.3647ZM7.59799 16.9903L10.5397 16.4019L10.3436 15.4214L7.40188 16.0097L7.59799 16.9903ZM20.1463 5.26777L18.732 3.85355L18.0249 4.56066L19.4392 5.97487L20.1463 5.26777ZM7.598 13.4602L7.00965 16.4019L7.99023 16.5981L8.57858 13.6563L7.598 13.4602ZM11.8172 15.7182L18.732 8.8033L18.0249 8.0962L11.1101 15.0111L11.8172 15.7182ZM18.732 8.8033L20.1463 7.38909L19.4392 6.68198L18.0249 8.09619L18.732 8.8033ZM16.6107 3.85355L15.1965 5.26777L15.9036 5.97487L17.3178 4.56066L16.6107 3.85355ZM15.1965 5.26777L8.28167 12.1827L8.98878 12.8898L15.9036 5.97487L15.1965 5.26777ZM18.732 8.09619L15.9036 5.26777L15.1965 5.97487L18.0249 8.8033L18.732 8.09619ZM8.57858 13.6563C8.63665 13.3659 8.77938 13.0992 8.98878 12.8898L8.28167 12.1827C7.93267 12.5317 7.69479 12.9762 7.598 13.4602L8.57858 13.6563ZM18.732 3.85355C18.1463 3.26777 17.1965 3.26777 16.6107 3.85355L17.3178 4.56066C17.5131 4.3654 17.8297 4.3654 18.0249 4.56066L18.732 3.85355ZM19.4392 5.97487C19.6344 6.17014 19.6344 6.48672 19.4392 6.68198L20.1463 7.38909C20.732 6.8033 20.732 5.85355 20.1463 5.26777L19.4392 5.97487ZM10.5397 16.4019C11.0237 16.3051 11.4682 16.0673 11.8172 15.7182L11.1101 15.0111C10.9007 15.2205 10.634 15.3633 10.3436 15.4214L10.5397 16.4019Z" fill="#39393C"/>
<path d="M3 12.4324C6.39121 10.3781 8.39047 10.322 10 11M14 13C16.1912 13.6454 18.5247 13.6748 21.0734 12.8533" stroke="#39393C" stroke-linecap="round" stroke-linejoin="round" stroke-dasharray="2 2"/>
</svg>
