<svg width="24" height="24" viewBox="0 0 24 24" fill="none" xmlns="http://www.w3.org/2000/svg">
<path d="M18.3785 8.44975L11.4637 15.3647C11.1845 15.6439 10.8289 15.8342 10.4417 15.9117L7.49993 16.5L8.08829 13.5582C8.16572 13.1711 8.35603 12.8155 8.63522 12.5363L11.8786 9.29289L12.7964 8.375M18.3785 8.44975L19.7927 7.03553C20.1832 6.64501 20.1832 6.01184 19.7927 5.62132L18.3785 4.20711C17.988 3.81658 17.3548 3.81658 16.9643 4.20711L15.5501 5.62132M18.3785 8.44975L15.5501 5.62132M15.5501 5.62132L14.6322 6.53921" stroke="#151516" stroke-width="1.5" stroke-linecap="round" stroke-linejoin="round"/>
<path d="M3 12.4324C6.39121 10.3781 8.39047 10.322 10 11M14 13C16.1912 13.6454 18.5247 13.6748 21.0734 12.8533" stroke="#151516" stroke-width="1.5" stroke-linecap="round" stroke-linejoin="round" stroke-dasharray="2 2"/>
</svg>
