<svg width="24" height="24" viewBox="0 0 24 24" fill="none" xmlns="http://www.w3.org/2000/svg">
<path fill-rule="evenodd" clip-rule="evenodd" d="M12.1716 10.9704C14.3499 10.9704 16.1157 8.9623 16.1157 6.48519C16.1157 4.00809 14.3499 2 12.1716 2C9.99337 2 8.22754 4.00809 8.22754 6.48519C8.22754 8.9623 9.99337 10.9704 12.1716 10.9704ZM20.3701 17.0367C20.3701 14.0466 17.9829 11.4552 14.9729 10.9568C14.2464 11.6545 13.2084 11.9535 12.1705 11.9535C11.0288 11.9535 10.0947 11.6545 9.26435 10.9568C6.2544 11.4552 3.86719 14.0466 3.86719 17.0367V18.0103C7.4999 21.9971 16.7374 21.9971 20.3701 18.0103V17.0367Z" fill="white"/>
</svg>
