<svg width="26" height="26" viewBox="0 0 26 26" fill="none" xmlns="http://www.w3.org/2000/svg">
<path fill-rule="evenodd" clip-rule="evenodd" d="M13.165 5.3328C12.956 5.30724 12.746 5.29446 12.5355 5.29248C12.5 5.29248 12.4647 5.29248 12.4291 5.29292C12.2189 5.29623 12.0091 5.31032 11.8006 5.33698C11.3832 5.39073 10.972 5.49317 10.578 5.64188C9.93437 5.88443 9.33788 6.25056 8.82689 6.71407C8.27687 7.21327 7.8276 7.82394 7.51442 8.5007C7.29916 8.96598 7.14889 9.46143 7.06885 9.96856C7.03592 10.1772 7.01477 10.3873 7.00561 10.5984C6.9995 10.737 6.99732 10.876 7.00452 11.0145C7.01259 11.1707 7.03134 11.3263 7.0573 11.4805C7.10288 11.7488 7.17049 12.0132 7.25031 12.2729C7.33689 12.5549 7.43852 12.832 7.54888 13.1054C7.67384 13.4143 7.81037 13.7181 7.95431 14.0183C8.12922 14.3831 8.31525 14.7427 8.5087 15.0978C8.98239 15.968 9.49905 16.8141 10.0373 17.6449C10.5904 18.4983 11.167 19.3359 11.7655 20.1574C11.777 20.1731 11.7885 20.1888 11.8 20.2044C11.8591 20.2851 11.9183 20.3657 11.9783 20.4458C11.983 20.4514 11.9876 20.4572 11.9922 20.4629C12.0003 20.4729 12.0083 20.483 12.0169 20.4925C12.0577 20.5377 12.1046 20.5769 12.1559 20.609C12.2073 20.6412 12.2629 20.6659 12.3212 20.6826C12.4967 20.7331 12.6889 20.706 12.8441 20.609C12.8954 20.5769 12.9423 20.5377 12.9831 20.4925C12.9917 20.483 12.9997 20.4729 13.0078 20.4629C13.0124 20.4572 13.017 20.4514 13.0217 20.4458L13.0363 20.4264C13.293 20.0814 13.5436 19.732 13.7907 19.38C14.0947 18.9473 14.3926 18.5107 14.6844 18.0696C15.0155 17.5696 15.3382 17.064 15.6503 16.5516C15.9221 16.1054 16.1858 15.6541 16.4374 15.196C16.6328 14.8405 16.8213 14.481 16.9986 14.1159C17.1526 13.7993 17.2985 13.4786 17.4319 13.1525C17.5497 12.864 17.6581 12.5712 17.7497 12.2729C17.8295 12.0132 17.8971 11.7488 17.9427 11.4805C17.9687 11.3263 17.9874 11.1707 17.9955 11.0145C18.0027 10.876 18.0005 10.737 17.9944 10.5984C17.9852 10.3873 17.9641 10.1772 17.9311 9.96856C17.8511 9.46143 17.7008 8.96598 17.4856 8.5007C17.1678 7.81381 16.7098 7.19521 16.1485 6.69204C15.6346 6.23118 15.0358 5.86878 14.3904 5.62998C13.995 5.4837 13.583 5.38368 13.165 5.3328ZM12.05 7.74731C12.1863 7.72638 12.3237 7.7158 12.4616 7.71316C12.4807 7.71305 12.4903 7.713 12.4999 7.713C12.5095 7.713 12.5191 7.71305 12.5383 7.71316C12.6762 7.7158 12.8136 7.72638 12.9499 7.74731C13.2251 7.78983 13.494 7.87222 13.7461 7.99118C14.0364 8.12821 14.304 8.31348 14.5358 8.53664C14.7674 8.75958 14.9631 9.02042 15.1125 9.30637C15.2416 9.55354 15.336 9.81945 15.3916 10.0935C15.4594 10.4277 15.4697 10.774 15.423 11.1119C15.3809 11.4149 15.2922 11.7105 15.1607 11.9861C15.0062 12.3097 14.7934 12.6045 14.5358 12.8523C14.2693 13.109 13.9557 13.3149 13.6148 13.4559C13.2617 13.6015 12.8814 13.676 12.4999 13.676C12.1185 13.676 11.7381 13.6015 11.3851 13.4559C11.0442 13.3149 10.7306 13.109 10.464 12.8523C10.2067 12.6045 9.99363 12.3097 9.83922 11.9861C9.70771 11.7105 9.61894 11.4149 9.57685 11.1119C9.53018 10.774 9.54043 10.4277 9.60826 10.0935C9.66387 9.81945 9.7583 9.55354 9.88741 9.30637C10.0368 9.02042 10.2324 8.75958 10.464 8.53664C10.6959 8.31348 10.9635 8.12821 11.2538 7.99118C11.5059 7.87222 11.7748 7.78983 12.05 7.74731Z" fill="#6A56E8"/>
</svg>
