<svg width="24" height="24" viewBox="0 0 24 24" fill="none" xmlns="http://www.w3.org/2000/svg">
<path d="M12 5C12.2321 5 12.4546 5.09219 12.6187 5.25628C12.7828 5.42038 12.875 5.64294 12.875 5.875V11.125H18.125C18.3571 11.125 18.5796 11.2172 18.7437 11.3813C18.9078 11.5454 19 11.7679 19 12C19 12.2321 18.9078 12.4546 18.7437 12.6187C18.5796 12.7828 18.3571 12.875 18.125 12.875H12.875V18.125C12.875 18.3571 12.7828 18.5796 12.6187 18.7437C12.4546 18.9078 12.2321 19 12 19C11.7679 19 11.5454 18.9078 11.3813 18.7437C11.2172 18.5796 11.125 18.3571 11.125 18.125V12.875H5.875C5.64294 12.875 5.42038 12.7828 5.25628 12.6187C5.09219 12.4546 5 12.2321 5 12C5 11.7679 5.09219 11.5454 5.25628 11.3813C5.42038 11.2172 5.64294 11.125 5.875 11.125H11.125V5.875C11.125 5.64294 11.2172 5.42038 11.3813 5.25628C11.5454 5.09219 11.7679 5 12 5Z" fill="white"/>
</svg>
