<svg width="188" height="163" viewBox="0 0 188 163" fill="none" xmlns="http://www.w3.org/2000/svg">
<path d="M35.0265 158.423L90.0968 146.563L92.8688 144.109C99.4425 138.291 95.1618 127.437 86.3862 127.672C86.2079 127.677 86.0745 127.509 86.1189 127.336L86.3473 126.447C88.0928 119.655 83.5701 112.846 76.6318 111.821L76.2202 111.76C76.0931 111.741 75.9909 111.646 75.9639 111.52C75.0121 107.101 71.0048 104.017 66.4891 104.23L64.897 104.305C64.6957 104.314 64.5235 104.159 64.5093 103.958C64.048 97.3998 59.5393 91.7536 53.2245 89.9254L41.3248 86.4803C41.1654 86.4342 41.027 86.5992 41.1002 86.7481L42.3494 89.2878C43.2731 91.1658 43.1438 93.3908 42.0087 95.1491C40.8088 97.0077 40.3963 99.2669 40.8621 101.43L41.0881 102.479C41.1268 102.658 41.0606 102.845 40.9169 102.96L38.0499 105.259C33.5595 108.859 32.8377 115.417 36.4377 119.908C36.5658 120.067 36.5346 120.302 36.3691 120.423L33.4962 122.519C28.343 126.279 27.5674 133.668 31.8276 138.417L31.9295 138.53C32.2368 138.873 32.1416 139.412 31.7357 139.629C24.1216 143.695 24.9664 154.87 33.1053 157.745L35.0265 158.423Z" fill="#925E2F" fill-opacity="0.2"/>
<path d="M69.7716 32.1271L83.469 29.177L84.1585 28.5667C85.7935 27.1196 84.7288 24.4199 82.5461 24.4784C82.5017 24.4795 82.4686 24.4379 82.4796 24.3949L82.5364 24.1738C82.9706 22.4843 81.8457 20.7907 80.1199 20.5358L80.0175 20.5207C79.9859 20.5161 79.9605 20.4923 79.9538 20.461C79.7171 19.3618 78.7203 18.5949 77.5972 18.6477L77.2012 18.6663C77.1511 18.6687 77.1083 18.63 77.1047 18.58C76.99 16.9489 75.8686 15.5446 74.2979 15.0898L71.3381 14.233C71.2985 14.2215 71.2641 14.2625 71.2823 14.2996L71.593 14.9313C71.8227 15.3984 71.7906 15.9518 71.5082 16.3891C71.2098 16.8514 71.1072 17.4133 71.2231 17.9512L71.2793 18.2121C71.2889 18.2569 71.2724 18.3033 71.2367 18.3319L70.5236 18.9036C69.4067 19.799 69.2272 21.4303 70.1226 22.5472C70.1545 22.5869 70.1467 22.6453 70.1055 22.6753L69.391 23.1967C68.1092 24.1319 67.9163 25.9699 68.9759 27.1509L69.0013 27.1791C69.0777 27.2643 69.054 27.3986 68.9531 27.4525C67.0592 28.4637 67.2694 31.2433 69.2937 31.9583L69.7716 32.1271Z" fill="#925E2F" fill-opacity="0.2"/>
<path d="M85.0893 60.1317L130.938 70.3711L133.894 69.4805C140.903 67.3684 141.45 57.6537 134.722 54.7686C134.585 54.7099 134.542 54.5367 134.636 54.4213L135.119 53.8277C138.813 49.2923 137.764 42.5568 132.867 39.3589L132.576 39.1691C132.486 39.1106 132.442 39.0025 132.466 38.8979C133.287 35.2186 131.329 31.4845 127.835 30.0691L126.603 29.5701C126.447 29.507 126.371 29.3292 126.43 29.172C128.37 24.0443 126.926 18.1942 122.781 14.6054L114.971 7.84253C114.867 7.75195 114.704 7.82864 114.708 7.96697L114.767 10.3265C114.811 12.0713 113.937 13.7113 112.463 14.6467C110.906 15.6356 109.805 17.2026 109.403 19.0032L109.208 19.8765C109.174 20.0263 109.059 20.1444 108.91 20.1815L105.936 20.9216C101.279 22.0807 98.443 26.796 99.6021 31.4535C99.6434 31.6193 99.5379 31.786 99.3704 31.8197L96.4628 32.4045C91.2475 33.4536 88.0808 38.7794 89.6499 43.8625L89.6875 43.9841C89.8006 44.3507 89.5401 44.7263 89.1571 44.7488C81.9713 45.1702 78.7103 53.9291 83.8711 58.9471L85.0893 60.1317Z" fill="#925E2F" fill-opacity="0.2"/>
<path d="M118.108 117.587L153.241 132.19L155.723 131.895C161.611 131.194 163.411 123.522 158.449 120.277C158.348 120.211 158.338 120.066 158.429 119.988L158.898 119.582C162.481 116.483 162.59 110.963 159.133 107.725L158.928 107.533C158.864 107.474 158.844 107.381 158.878 107.301C160.049 104.482 159.011 101.229 156.423 99.609L155.511 99.0381C155.395 98.9659 155.359 98.8134 155.429 98.6963C157.696 94.8786 157.365 90.0098 154.563 86.5655L149.283 80.075C149.213 79.988 149.072 80.0264 149.056 80.1372L148.772 82.0276C148.562 83.4254 147.634 84.6107 146.328 85.15C144.947 85.7201 143.849 86.8154 143.275 88.1951L142.997 88.8643C142.949 88.9791 142.841 89.0571 142.717 89.0658L140.241 89.2386C136.363 89.5093 133.439 92.8722 133.71 96.7498C133.72 96.8879 133.612 97.006 133.474 97.0094L131.073 97.0677C126.766 97.1723 123.492 100.976 124.03 105.25L124.043 105.353C124.082 105.661 123.821 105.924 123.513 105.888C117.722 105.215 113.891 111.744 117.303 116.471L118.108 117.587Z" fill="#925E2F" fill-opacity="0.2"/>
</svg>
