<svg width="24" height="25" viewBox="0 0 24 25" fill="none" xmlns="http://www.w3.org/2000/svg">
<path d="M4 9V14.7695L11.617 22.3796C11.7817 22.5445 11.9773 22.6754 12.1926 22.7646C12.4079 22.8539 12.6387 22.8999 12.8717 22.8999C13.1048 22.8999 13.3356 22.8539 13.5509 22.7646C13.7661 22.6754 13.9617 22.5445 14.1264 22.3796L20.4843 16.0201C20.8146 15.6877 21 15.2381 21 14.7695C21 14.3008 20.8146 13.8512 20.4843 13.5189L12.8673 5.89986H9M8.01 9.89986C8.01 9.89986 8.00276 9.90262 8 9.89986C5.00001 6.89987 5.00001 0.899844 10 2.89986" stroke="#4C3DAA" stroke-width="2" stroke-linecap="round" stroke-linejoin="round"/>
</svg>
