<svg width="30" height="30" viewBox="0 0 30 30" fill="none" xmlns="http://www.w3.org/2000/svg">
<path d="M26.4555 4.47452C26.4055 3.97452 26.0305 3.59959 25.5305 3.54959C19.2055 3.04959 14.6805 6.12452 11.8555 9.97452C10.3055 9.47452 8.63055 9.64954 7.10555 10.4995C5.63055 11.3245 4.40555 12.7246 3.60555 14.4246C3.43055 14.8246 3.50555 15.2745 3.83055 15.5745C4.13055 15.8745 4.60555 15.9245 4.98055 15.7245C6.58055 14.8745 8.38055 15.0495 9.45555 16.1245L13.8555 20.5246L13.8805 20.5496C14.9555 21.6246 15.1305 23.4246 14.2805 25.0246C14.0805 25.3996 14.1555 25.8746 14.4305 26.1746C14.6305 26.3746 14.8805 26.4745 15.1555 26.4745C15.3055 26.4745 15.4555 26.4495 15.5805 26.3745C17.2805 25.5745 18.6805 24.3245 19.5055 22.8745C20.3805 21.3495 20.5555 19.6745 20.0305 18.0995C21.1555 17.2745 22.1805 16.3745 23.0305 15.3745C25.6555 12.3495 26.8055 8.67452 26.4555 4.47452ZM6.85555 13.1995C7.93055 12.1495 9.28055 11.4995 10.7055 11.7495C10.3055 12.4495 9.98055 13.1495 9.68055 13.8495C8.83055 13.3745 7.85555 13.1495 6.85555 13.1995ZM16.8305 23.1496C16.8555 22.1246 16.6305 21.1496 16.1805 20.2996C16.9055 19.9996 17.6055 19.6496 18.2805 19.2746C18.5305 20.6996 17.9055 22.0746 16.8305 23.1496ZM14.8305 18.6746L11.3055 15.1496C13.0805 10.4246 17.4555 5.34954 24.4805 5.49954C24.7305 13.8745 17.8305 17.4996 14.8305 18.6746ZM21.3055 8.69949C21.6055 8.99949 21.7805 9.42452 21.7805 9.84952C21.7805 10.2745 21.6055 10.6995 21.3055 10.9995C21.0055 11.2995 20.5805 11.4745 20.1555 11.4745C19.7305 11.4745 19.3055 11.2995 19.0055 10.9995C18.7055 10.6995 18.5305 10.2745 18.5305 9.84952C18.5305 9.42452 18.7055 8.99949 19.0055 8.69949C19.3055 8.39949 19.7305 8.22452 20.1555 8.22452C20.5805 8.22452 21.0055 8.39949 21.3055 8.69949ZM7.23055 19.0995C6.08055 20.2495 6.03055 22.5495 6.03055 22.9995C6.03055 23.5495 6.48055 23.9995 7.03055 23.9995H7.05555C7.58055 23.9995 9.78055 23.9246 10.9055 22.7996C11.6055 22.0996 11.7555 21.3746 11.7555 20.8996C11.7555 20.2246 11.4805 19.5746 10.9555 19.0496C9.70555 17.7746 8.13055 18.1745 7.23055 19.0995ZM9.50555 21.3745C9.25555 21.6245 8.70555 21.7995 8.13055 21.8745C8.23055 21.2995 8.40555 20.7496 8.63055 20.5246C8.80555 20.3496 8.95555 20.2495 9.13055 20.2495C9.25555 20.2495 9.40555 20.3245 9.55555 20.4745C9.70555 20.6245 9.78055 20.7746 9.78055 20.8996C9.75555 21.0496 9.63055 21.2495 9.50555 21.3745Z" fill="#3BB965"/>
</svg>
