<svg width="117" height="28" viewBox="0 0 117 28" fill="none" xmlns="http://www.w3.org/2000/svg">
<path d="M22.7031 7.32446C23.2233 8.00154 23.6568 8.74414 24.0253 9.5304L14.0116 16.9781L9.80664 14.3136V11.1248L13.9899 13.7675L22.7031 7.32446Z" fill="#21A038"/>
<path d="M5.53595 14.0952C5.53595 13.9423 5.53595 13.8113 5.55763 13.6584L3.02167 13.5273C3.02167 13.7021 3 13.8986 3 14.0734C3 17.1311 4.23546 19.9049 6.22954 21.9143L8.02854 20.1014C6.48964 18.5725 5.53595 16.454 5.53595 14.0952Z" fill="url(#paint0_linear_2640_27021)"/>
<path d="M13.9881 5.57724C14.1398 5.57724 14.2699 5.57724 14.4216 5.59908L14.5516 3.04369C14.3782 3.04369 14.1832 3.02185 14.0098 3.02185C10.9753 3.02185 8.2226 4.26678 6.22852 6.27615L8.02752 8.08894C9.54475 6.53824 11.6689 5.57724 13.9881 5.57724Z" fill="url(#paint1_linear_2640_27021)"/>
<path d="M13.9893 22.6132C13.8376 22.6132 13.7075 22.6132 13.5558 22.5913L13.4258 25.1468C13.5992 25.1468 13.7943 25.1685 13.9676 25.1685C17.0021 25.1685 19.7548 23.9236 21.7488 21.9143L19.9498 20.1014C18.4326 21.6739 16.3302 22.6132 13.9893 22.6132Z" fill="url(#paint2_linear_2640_27021)"/>
<path d="M18.7548 7.06242L20.9005 5.46803C19.0149 3.93916 16.609 3 13.9863 3V5.55539C15.7637 5.57723 17.411 6.12325 18.7548 7.06242Z" fill="url(#paint3_linear_2640_27021)"/>
<path d="M25 14.0952C25 13.4181 24.9349 12.7629 24.8265 12.1077L22.464 13.8768C22.464 13.9423 22.464 14.0297 22.464 14.0952C22.464 16.6069 21.3802 18.8566 19.668 20.4072L21.3802 22.3074C23.591 20.298 25 17.3495 25 14.0952Z" fill="#21A038"/>
<path d="M13.9876 22.6132C11.495 22.6132 9.26251 21.5211 7.7236 19.7957L5.83789 21.5211C7.85365 23.7707 10.7581 25.1685 13.9876 25.1685V22.6132Z" fill="url(#paint4_linear_2640_27021)"/>
<path d="M8.332 7.78323L6.6197 5.88306C4.38719 7.91426 3 10.841 3 14.0953H5.53595C5.53595 11.6054 6.6197 9.33393 8.332 7.78323Z" fill="url(#paint5_linear_2640_27021)"/>
<path d="M60.0548 10.4073L62.2019 8.80811H55.0137V18.3875H62.2019V16.7883H57.0675V14.3425H61.4551V12.7433H57.0675V10.4073H60.0548Z" fill="#21A038"/>
<path d="M49.5823 12.5395H47.0929V10.4073H51.076L53.2231 8.80811H45.0391V18.3875H49.3178C51.7139 18.3875 53.0986 17.29 53.0986 15.3773C53.0986 13.5429 51.8539 12.5395 49.5823 12.5395ZM49.24 16.7883H47.0929V14.1387H49.24C50.547 14.1387 51.1538 14.5777 51.1538 15.4713C51.1538 16.365 50.5003 16.7883 49.24 16.7883Z" fill="#21A038"/>
<path d="M68.0204 8.80811H64.1152V18.3875H66.1689V15.6751H68.036C70.5254 15.6751 72.0813 14.3582 72.0813 12.2416C72.0813 10.1251 70.5254 8.80811 68.0204 8.80811ZM67.9738 14.076H66.1534V10.4073H67.9738C69.2963 10.4073 70.012 11.0658 70.012 12.2416C70.012 13.4175 69.2963 14.076 67.9738 14.076Z" fill="#21A038"/>
<path d="M41.5246 16.3178C40.9801 16.6157 40.3733 16.7725 39.7509 16.7725C37.8994 16.7725 36.5613 15.4399 36.5613 13.6056C36.5613 11.7712 37.8994 10.4386 39.7509 10.4386C40.4199 10.4229 41.0734 10.6424 41.618 11.0343L43.0961 9.93687L43.0027 9.8428C42.147 9.07457 40.9956 8.68262 39.6887 8.68262C38.2728 8.68262 36.9814 9.16864 36.0479 10.0466C35.1143 10.956 34.5853 12.2259 34.6165 13.5428C34.6009 14.8755 35.1143 16.1611 36.0479 17.1017C37.0281 18.0268 38.335 18.5441 39.6731 18.5128C41.1512 18.5128 42.4426 17.9954 43.3139 17.0547L41.9914 16.067L41.5246 16.3178Z" fill="#21A038"/>
<path d="M96.7727 8.82379V18.4031H98.8265V14.4836H103.199V18.4031H105.252V8.82379H103.199V12.759H98.8265V8.82379H96.7727ZM93.2408 18.4031H95.4035L91.3893 8.82379H89.3044L85.2124 18.4031H87.2818L88.1064 16.4747H92.4629L93.2408 18.4031ZM88.7288 14.8756L90.3158 11.0344L91.8094 14.8756H88.7288ZM109.858 14.5306H111.134L114.276 18.3875H116.921L112.721 13.4332L116.392 8.80811H114.043L110.994 12.9158H109.858V8.80811H107.804V18.3875H109.858V14.5306ZM78.4288 12.5552V10.423H83.7966V8.82379H76.375V18.4031H80.6537C83.0498 18.4031 84.4345 17.3057 84.4345 15.3929C84.4345 13.5586 83.1898 12.5552 80.9182 12.5552H78.4288ZM78.4288 16.804V14.1544H80.5759C81.8828 14.1544 82.4896 14.5933 82.4896 15.487C82.4896 16.3807 81.8517 16.8196 80.5759 16.8196H78.4288V16.804Z" fill="#21A038"/>
<defs>
<linearGradient id="paint0_linear_2640_27021" x1="5.95893" y1="21.6033" x2="3.3696" y2="14.0613" gradientUnits="userSpaceOnUse">
<stop offset="0.1444" stop-color="#F2E913"/>
<stop offset="0.3037" stop-color="#E7E518"/>
<stop offset="0.5823" stop-color="#CADB26"/>
<stop offset="0.891" stop-color="#A3CD39"/>
</linearGradient>
<linearGradient id="paint1_linear_2640_27021" x1="6.95138" y1="5.98779" x2="13.525" y2="3.46351" gradientUnits="userSpaceOnUse">
<stop offset="0.0592" stop-color="#0FA8E0"/>
<stop offset="0.5385" stop-color="#0099F9"/>
<stop offset="0.9234" stop-color="#0291EB"/>
</linearGradient>
<linearGradient id="paint2_linear_2640_27021" x1="13.2769" y1="22.9953" x2="21.1136" y2="21.2106" gradientUnits="userSpaceOnUse">
<stop offset="0.1226" stop-color="#A3CD39"/>
<stop offset="0.2846" stop-color="#86C339"/>
<stop offset="0.8693" stop-color="#21A038"/>
</linearGradient>
<linearGradient id="paint3_linear_2640_27021" x1="13.4653" y1="4.62759" x2="19.981" y2="6.6534" gradientUnits="userSpaceOnUse">
<stop offset="0.0566" stop-color="#0291EB"/>
<stop offset="0.79" stop-color="#0C8ACB"/>
</linearGradient>
<linearGradient id="paint4_linear_2640_27021" x1="6.48269" y1="21.9259" x2="13.4813" y2="24.561" gradientUnits="userSpaceOnUse">
<stop offset="0.1324" stop-color="#F2E913"/>
<stop offset="0.2977" stop-color="#EBE716"/>
<stop offset="0.5306" stop-color="#D9E01F"/>
<stop offset="0.8023" stop-color="#BBD62D"/>
<stop offset="0.9829" stop-color="#A3CD39"/>
</linearGradient>
<linearGradient id="paint5_linear_2640_27021" x1="4.9431" y1="14.4039" x2="7.74241" y2="7.06607" gradientUnits="userSpaceOnUse">
<stop offset="0.0698" stop-color="#A3CD39"/>
<stop offset="0.2599" stop-color="#81C55F"/>
<stop offset="0.9216" stop-color="#0FA8E0"/>
</linearGradient>
</defs>
</svg>
