<svg width="24" height="24" viewBox="0 0 24 24" fill="none" xmlns="http://www.w3.org/2000/svg">
<path d="M3 9.31372L2.77625 8.59787C2.49018 8.68729 2.28482 8.93843 2.25398 9.23655C2.22314 9.53467 2.37275 9.82253 2.63446 9.96861L3 9.31372ZM20 4L20.7136 4.23087C20.7999 3.96413 20.7302 3.67153 20.533 3.47232C20.3357 3.2731 20.0438 3.20052 19.7762 3.28415L20 4ZM14.5 21L13.8382 21.3529C13.9799 21.6185 14.2665 21.7737 14.5663 21.7471C14.8661 21.7205 15.1209 21.5172 15.2136 21.2309L14.5 21ZM3.22375 10.0296L20.2238 4.71585L19.7762 3.28415L2.77625 8.59787L3.22375 10.0296ZM19.2864 3.76913L13.7864 20.7691L15.2136 21.2309L20.7136 4.23087L19.2864 3.76913ZM15.1618 20.6471L11.1618 13.1471L9.83823 13.8529L13.8382 21.3529L15.1618 20.6471ZM10.8655 12.8451L3.36554 8.65883L2.63446 9.96861L10.1345 14.1549L10.8655 12.8451ZM11.0303 14.0303L20.5303 4.53033L19.4697 3.46967L9.96967 12.9697L11.0303 14.0303Z" fill="#556883"/>
</svg>
