<svg width="32" height="32" viewBox="0 0 32 32" fill="none" xmlns="http://www.w3.org/2000/svg">
<path d="M24.0007 25.3333V23.2593C23.3224 23.2593 22.6627 23.0376 22.1221 22.6281C21.5814 22.2185 21.1894 21.6435 21.0058 20.9906C20.8221 20.3377 20.8569 19.6426 21.1047 19.0113C21.3526 18.3799 21.7999 17.8469 22.3787 17.4933C22.8688 17.1939 23.4304 17.037 24.0007 17.037C24.1039 17.037 24.2074 17.0422 24.3109 17.0525C24.9858 17.1202 25.6201 17.4065 26.1172 17.8679C26.6143 18.3294 26.947 18.9406 27.0646 19.6086C27.1822 20.2766 27.0784 20.9647 26.7688 21.5682M8.4451 25.3333V23.2593C7.76684 23.2593 7.10717 23.0376 6.56652 22.6281C6.02587 22.2185 5.63387 21.6435 5.45021 20.9906C5.26655 20.3377 5.3013 19.6426 5.54915 19.0113C5.79701 18.3799 6.24439 17.8469 6.82319 17.4933C7.31325 17.1939 7.87479 17.037 8.4451 17.037C8.54835 17.037 8.65189 17.0422 8.75535 17.0525C9.43022 17.1202 10.0645 17.4065 10.5616 17.8679C11.0587 18.3294 11.3914 18.9406 11.5091 19.6086C11.6267 20.2766 11.5228 20.9647 11.2132 21.5682M16.1067 6.66667V8.74074C15.4284 8.74074 14.7687 8.96239 14.2281 9.37194C13.6874 9.78149 13.2954 10.3565 13.1118 11.0094C12.9281 11.6623 12.9629 12.3574 13.2107 12.9887C13.4586 13.6201 13.9059 14.1531 14.4847 14.5067C14.9748 14.8061 15.5363 14.963 16.1067 14.963C16.2099 14.963 16.3134 14.9578 16.4169 14.9475C17.0918 14.8798 17.7261 14.5935 18.2232 14.1321C18.7203 13.6706 19.053 13.0594 19.1706 12.3914C19.2882 11.7234 19.1844 11.0353 18.8748 10.4318M24.0007 13.9259V6.66667M8.4451 13.9259V6.66667M16.1067 18.0741L16.1067 25.3333" stroke="#151516" stroke-width="1.5" stroke-linecap="round" stroke-linejoin="round"/>
</svg>
