<svg width="24" height="25" viewBox="0 0 24 25" fill="none" xmlns="http://www.w3.org/2000/svg">
<path d="M21.164 4.0801C21.124 3.6801 20.824 3.38016 20.424 3.34016C15.364 2.94016 11.744 5.4001 9.48405 8.4801C8.24405 8.0801 6.90405 8.22012 5.68405 8.90012C4.50405 9.56012 3.52405 10.6802 2.88405 12.0402C2.74405 12.3602 2.80405 12.7201 3.06405 12.9601C3.30405 13.2001 3.68405 13.2401 3.98405 13.0801C5.26405 12.4001 6.70405 12.5401 7.56405 13.4001L11.084 16.9201L11.104 16.9402C11.964 17.8002 12.104 19.2401 11.424 20.5201C11.264 20.8201 11.324 21.2002 11.544 21.4402C11.704 21.6002 11.904 21.6801 12.124 21.6801C12.244 21.6801 12.364 21.6601 12.464 21.6001C13.824 20.9601 14.944 19.9601 15.604 18.8001C16.304 17.5801 16.444 16.2401 16.024 14.9801C16.924 14.3201 17.744 13.6001 18.424 12.8001C20.524 10.3801 21.444 7.4401 21.164 4.0801ZM5.48405 11.0601C6.34405 10.2201 7.42405 9.70012 8.56405 9.90012C8.24405 10.4601 7.98405 11.0201 7.74405 11.5801C7.06405 11.2001 6.28405 11.0201 5.48405 11.0601ZM13.464 19.0201C13.484 18.2001 13.304 17.4202 12.944 16.7402C13.524 16.5002 14.084 16.2201 14.624 15.9201C14.824 17.0601 14.324 18.1601 13.464 19.0201ZM11.864 15.4402L9.04405 12.6201C10.464 8.84014 13.964 4.78012 19.584 4.90012C19.784 11.6001 14.264 14.5002 11.864 15.4402ZM17.044 7.46008C17.284 7.70008 17.424 8.0401 17.424 8.3801C17.424 8.7201 17.284 9.06012 17.044 9.30012C16.804 9.54012 16.464 9.6801 16.124 9.6801C15.784 9.6801 15.444 9.54012 15.204 9.30012C14.964 9.06012 14.824 8.7201 14.824 8.3801C14.824 8.0401 14.964 7.70008 15.204 7.46008C15.444 7.22008 15.784 7.0801 16.124 7.0801C16.464 7.0801 16.804 7.22008 17.044 7.46008ZM5.78405 15.7801C4.86405 16.7001 4.82405 18.5401 4.82405 18.9001C4.82405 19.3401 5.18405 19.7001 5.62405 19.7001H5.64405C6.06405 19.7001 7.82405 19.6402 8.72405 18.7402C9.28405 18.1802 9.40405 17.6001 9.40405 17.2201C9.40405 16.6801 9.18405 16.1602 8.76405 15.7402C7.76405 14.7202 6.50405 15.0401 5.78405 15.7801ZM7.60405 17.6001C7.40405 17.8001 6.96405 17.9401 6.50405 18.0001C6.58405 17.5401 6.72405 17.1001 6.90405 16.9201C7.04405 16.7801 7.16405 16.7001 7.30405 16.7001C7.40405 16.7001 7.52405 16.7601 7.64405 16.8801C7.76405 17.0001 7.82405 17.1201 7.82405 17.2201C7.80405 17.3401 7.70405 17.5001 7.60405 17.6001Z" fill="#4C3DAA"/>
</svg>
