<svg width="484" height="226" viewBox="0 0 484 226" fill="none" xmlns="http://www.w3.org/2000/svg">
<path d="M35.548 8.53836C33.0189 7.82045 30.3094 8.14727 28.0191 9.42801L11.1462 18.8631C6.36218 21.5382 4.66236 27.5557 7.32699 32.3209L14.872 45.8138C17.5366 50.579 23.5704 52.2719 28.3374 49.6063L45.2103 40.1712C49.9772 37.5056 51.6958 31.4776 49.0311 26.7125L41.4861 13.2196C40.2063 10.9309 38.0769 9.25189 35.548 8.53836" fill="url(#paint0_linear_27192_35462)"/>
<g filter="url(#filter0_f_27192_35462)">
<path d="M31.7379 14.5703C30.13 14.0694 28.4227 14.244 26.9934 15.0432L16.4636 20.9313C13.4781 22.6008 12.4875 26.4815 14.237 29.6102L19.1908 38.4692C20.9403 41.5979 24.7759 42.7798 27.7508 41.1163L38.2806 35.2282C41.2554 33.5647 42.2578 29.6774 40.5083 26.5488L35.5544 17.6898C34.7142 16.1871 33.3455 15.0682 31.7379 14.5703" fill="#7056E9"/>
</g>
<g filter="url(#filter1_b_27192_35462)">
<mask id="path-3-outside-1_27192_35462" maskUnits="userSpaceOnUse" x="13.7304" y="8.55426" width="54.6587" height="51.0394" fill="black">
<rect fill="white" x="13.7304" y="8.55426" width="54.6587" height="51.0394"/>
<path d="M54.9497 13.7769C52.4304 12.2723 49.4149 11.842 46.5756 12.5611L25.6588 17.859C19.7283 19.3612 16.1573 25.3577 17.6535 31.265L21.8902 47.9916C23.3864 53.8988 29.4025 57.4671 35.3119 55.9703L56.2286 50.6724C62.138 49.1756 65.7323 43.1732 64.236 37.266L59.9994 20.5393C59.2808 17.7022 57.4701 15.2768 54.9497 13.7769"/>
</mask>
<path d="M54.9497 13.7769C52.4304 12.2723 49.4149 11.842 46.5756 12.5611L25.6588 17.859C19.7283 19.3612 16.1573 25.3577 17.6535 31.265L21.8902 47.9916C23.3864 53.8988 29.4025 57.4671 35.3119 55.9703L56.2286 50.6724C62.138 49.1756 65.7323 43.1732 64.236 37.266L59.9994 20.5393C59.2808 17.7022 57.4701 15.2768 54.9497 13.7769" fill="#FF95FB" fill-opacity="0.4"/>
<path d="M54.6755 14.2362C54.9291 14.3876 55.2575 14.3048 55.4089 14.0512C55.5604 13.7976 55.4776 13.4692 55.224 13.3177L54.6755 14.2362ZM55.2233 13.3173C54.9694 13.1662 54.6411 13.2495 54.4901 13.5034C54.339 13.7573 54.4223 14.0855 54.6762 14.2366L55.2233 13.3173ZM55.224 13.3177C52.5816 11.7396 49.42 11.2889 46.4442 12.0426L46.7069 13.0796C49.4097 12.3951 52.2792 12.805 54.6755 14.2362L55.224 13.3177ZM46.4442 12.0426L25.5275 17.3405L25.7902 18.3776L46.7069 13.0796L46.4442 12.0426ZM25.5275 17.3405C19.3112 18.915 15.5661 25.2021 17.135 31.3963L18.1721 31.1336C16.7485 25.5134 20.1454 19.8073 25.7902 18.3776L25.5275 17.3405ZM17.135 31.3963L21.3716 48.1229L22.4087 47.8603L18.1721 31.1336L17.135 31.3963ZM21.3716 48.1229C22.9407 54.3178 29.2488 58.0578 35.4432 56.4889L35.1806 55.4518C29.5563 56.8764 23.8321 53.4799 22.4087 47.8603L21.3716 48.1229ZM35.4432 56.4889L56.36 51.1909L56.0973 50.1539L35.1806 55.4518L35.4432 56.4889ZM56.36 51.1909C62.5543 49.622 66.3237 43.3296 64.7546 37.1346L63.7175 37.3973C65.1409 43.0168 61.7217 48.7293 56.0973 50.1539L56.36 51.1909ZM64.7546 37.1346L60.5179 20.408L59.4809 20.6707L63.7175 37.3973L64.7546 37.1346ZM60.5179 20.408C59.7644 17.4329 57.8654 14.8896 55.2233 13.3173L54.6762 14.2366C57.0748 15.664 58.7972 17.9714 59.4809 20.6707L60.5179 20.408Z" fill="url(#paint1_linear_27192_35462)" mask="url(#path-3-outside-1_27192_35462)"/>
</g>
<g filter="url(#filter2_bd_27192_35462)">
<mask id="path-5-inside-2_27192_35462" fill="white">
<path d="M53.5774 25.3407L53.4509 25.553L45.8358 35.6156C44.8882 36.847 43.5539 37.7257 42.0527 38.1059C40.5473 38.4872 38.9809 38.3432 37.5593 37.7119L26.0218 32.6356L25.6747 32.4306C25.029 31.9183 24.8619 30.9917 25.2888 30.2753C25.6924 29.5647 26.5867 29.2706 27.3685 29.5908L38.827 34.7998C40.332 35.5023 42.0915 35.0567 43.0616 33.7272L50.6778 23.6868C50.9225 23.3094 51.3078 23.0519 51.7584 22.9625C52.1904 22.8982 52.6436 22.9884 53.0178 23.2293C53.7027 23.7093 53.9279 24.5985 53.5774 25.3407"/>
</mask>
<path d="M53.5774 25.3407L53.4509 25.553L45.8358 35.6156C44.8882 36.847 43.5539 37.7257 42.0527 38.1059C40.5473 38.4872 38.9809 38.3432 37.5593 37.7119L26.0218 32.6356L25.6747 32.4306C25.029 31.9183 24.8619 30.9917 25.2888 30.2753C25.6924 29.5647 26.5867 29.2706 27.3685 29.5908L38.827 34.7998C40.332 35.5023 42.0915 35.0567 43.0616 33.7272L50.6778 23.6868C50.9225 23.3094 51.3078 23.0519 51.7584 22.9625C52.1904 22.8982 52.6436 22.9884 53.0178 23.2293C53.7027 23.7093 53.9279 24.5985 53.5774 25.3407" fill="url(#paint2_linear_27192_35462)"/>
<path d="M53.4509 25.553L53.5368 25.618L53.5428 25.6078L53.4509 25.553ZM45.8358 35.6156L45.9206 35.6809L45.9211 35.6802L45.8358 35.6156ZM37.5593 37.7119L37.6027 37.6142L37.6024 37.614L37.5593 37.7119ZM26.0218 32.6356L25.967 32.7284L25.9787 32.7335L26.0218 32.6356ZM25.6747 32.4306L25.6082 32.5144L25.614 32.519L25.6203 32.5227L25.6747 32.4306ZM25.2888 30.2753L25.3807 30.33L25.3818 30.3281L25.2888 30.2753ZM27.3685 29.5908L27.4128 29.4933L27.4091 29.4918L27.3685 29.5908ZM38.827 34.7998L38.8722 34.7028L38.8712 34.7024L38.827 34.7998ZM43.0616 33.7272L42.9763 33.6625L42.9751 33.6641L43.0616 33.7272ZM50.6778 23.6868L50.7633 23.7517L50.7676 23.745L50.6778 23.6868ZM51.7584 22.9625L51.7426 22.8566L51.7376 22.8576L51.7584 22.9625ZM53.0178 23.2293L53.0793 23.1417L53.0758 23.1394L53.0178 23.2293ZM53.4855 25.286L53.359 25.4983L53.5428 25.6078L53.6693 25.3955L53.4855 25.286ZM53.3656 25.4885L45.7505 35.5511L45.9211 35.6802L53.5362 25.6176L53.3656 25.4885ZM45.751 35.5504C44.818 36.7628 43.5042 37.6279 42.0264 38.0022L42.079 38.2097C43.6035 37.8235 44.9584 36.9312 45.9206 35.6809L45.751 35.5504ZM42.0264 38.0022C40.5448 38.3775 39.003 38.236 37.6027 37.6142L37.5159 37.8097C38.9589 38.4505 40.5498 38.597 42.079 38.2097L42.0264 38.0022ZM37.6024 37.614L26.0649 32.5377L25.9787 32.7335L37.5162 37.8099L37.6024 37.614ZM26.0762 32.5435L25.7291 32.3385L25.6203 32.5227L25.9674 32.7277L26.0762 32.5435ZM25.7412 32.3468C25.138 31.8682 24.9809 31.0011 25.3807 30.33L25.1969 30.2205C24.7429 30.9824 24.92 31.9683 25.6082 32.5144L25.7412 32.3468ZM25.3818 30.3281C25.7574 29.6668 26.5933 29.3889 27.328 29.6898L27.4091 29.4918C26.5801 29.1523 25.6273 29.4626 25.1958 30.2224L25.3818 30.3281ZM27.3243 29.6882L38.7827 34.8971L38.8712 34.7024L27.4128 29.4934L27.3243 29.6882ZM38.7817 34.8967C40.3325 35.6206 42.1473 35.1616 43.148 33.7903L42.9751 33.6641C42.0356 34.9517 40.3315 35.384 38.8722 34.7028L38.7817 34.8967ZM43.1468 33.7918L50.7631 23.7515L50.5926 23.6222L42.9763 33.6625L43.1468 33.7918ZM50.7676 23.745C50.996 23.3926 51.3562 23.1513 51.7792 23.0675L51.7376 22.8576C51.2595 22.9524 50.8489 23.2263 50.5881 23.6287L50.7676 23.745ZM51.7741 23.0683C52.1815 23.0076 52.6084 23.0929 52.9599 23.3193L53.0758 23.1394C52.6789 22.8839 52.1993 22.7887 51.7426 22.8567L51.7741 23.0683ZM52.9565 23.3169C53.5981 23.7666 53.8092 24.5994 53.4807 25.295L53.6742 25.3864C54.0466 24.5977 53.8073 23.6519 53.0792 23.1417L52.9565 23.3169Z" fill="url(#paint3_linear_27192_35462)" fill-opacity="0.5" mask="url(#path-5-inside-2_27192_35462)"/>
</g>
<path d="M454.858 18.3705C452.021 16.953 448.735 16.7335 445.733 17.7388L423.617 25.1447C417.346 27.2446 413.983 33.9975 416.075 40.2436L421.997 57.9294C424.089 64.1754 430.863 67.5339 437.111 65.4416L459.227 58.0357C465.475 55.9433 468.863 49.1821 466.772 42.9361L460.849 25.2503C459.845 22.2504 457.696 19.7829 454.858 18.3705" fill="url(#paint4_linear_27192_35462)"/>
<g filter="url(#filter3_f_27192_35462)">
<path d="M448.989 24.6689C447.195 23.7151 445.131 23.5395 443.258 24.1669L429.456 28.7887C425.543 30.0991 423.499 34.4778 424.872 38.5788L428.761 50.1907C430.134 54.2916 434.416 56.552 438.316 55.2463L452.118 50.6245C456.017 49.3188 458.076 44.9349 456.703 40.834L452.814 29.222C452.155 27.2524 450.783 25.6194 448.989 24.6689" fill="#7056E9"/>
</g>
<g filter="url(#filter4_b_27192_35462)">
<mask id="path-9-outside-3_27192_35462" maskUnits="userSpaceOnUse" x="426.679" y="23.7159" width="57.9611" height="53.2769" fill="black">
<rect fill="white" x="426.679" y="23.7159" width="57.9611" height="53.2769"/>
<path d="M476.686 28.928C474.036 26.5799 470.558 25.3943 467.031 25.6109L441.047 27.2064C433.68 27.6588 428.103 33.9678 428.554 41.306L429.83 62.0845C430.28 69.4227 436.613 75.0004 443.954 74.5497L469.938 72.9541C477.279 72.5034 482.884 66.1925 482.433 58.8543L481.158 38.0759C480.941 34.5515 479.338 31.2706 476.686 28.928"/>
</mask>
<path d="M476.686 28.928C474.036 26.5799 470.558 25.3943 467.031 25.6109L441.047 27.2064C433.68 27.6588 428.103 33.9678 428.554 41.306L429.83 62.0845C430.28 69.4227 436.613 75.0004 443.954 74.5497L469.938 72.9541C477.279 72.5034 482.884 66.1925 482.433 58.8543L481.158 38.0759C480.941 34.5515 479.338 31.2706 476.686 28.928" fill="#FF95FB" fill-opacity="0.4"/>
<path d="M476.258 29.411C476.525 29.6473 476.932 29.6227 477.169 29.356C477.405 29.0892 477.381 28.6814 477.114 28.445L476.258 29.411ZM477.113 28.4443C476.846 28.2084 476.438 28.2336 476.202 28.5007C475.966 28.7679 475.991 29.1757 476.259 29.4116L477.113 28.4443ZM477.114 28.445C474.335 25.9823 470.688 24.7398 466.991 24.9667L467.07 26.255C470.428 26.0488 473.738 27.1776 476.258 29.411L477.114 28.445ZM466.991 24.9667L441.007 26.5623L441.087 27.8505L467.07 26.255L466.991 24.9667ZM441.007 26.5623C433.285 27.0364 427.437 33.6509 427.91 41.3456L429.198 41.2665C428.769 34.2848 434.074 28.2811 441.087 27.8505L441.007 26.5623ZM427.91 41.3456L429.186 62.124L430.474 62.0449L429.198 41.2665L427.91 41.3456ZM429.186 62.124C429.658 69.8195 436.299 75.6663 443.994 75.1938L443.915 73.9055C436.928 74.3345 430.903 69.0258 430.474 62.0449L429.186 62.124ZM443.994 75.1938L469.977 73.5983L469.898 72.31L443.915 73.9055L443.994 75.1938ZM469.977 73.5983C477.672 73.1258 483.55 66.5105 483.078 58.8148L481.789 58.8939C482.218 65.8746 476.885 71.881 469.898 72.31L469.977 73.5983ZM483.078 58.8148L481.802 38.0363L480.513 38.1155L481.789 58.8939L483.078 58.8148ZM481.802 38.0363C481.575 34.3406 479.893 30.9001 477.113 28.4443L476.259 29.4116C478.782 31.6411 480.307 34.7623 480.513 38.1155L481.802 38.0363Z" fill="url(#paint5_linear_27192_35462)" mask="url(#path-9-outside-3_27192_35462)"/>
</g>
<g filter="url(#filter5_bd_27192_35462)">
<mask id="path-11-inside-4_27192_35462" fill="white">
<path d="M472.475 42.3304L472.278 42.5537L460.996 52.7772C459.597 54.0248 457.818 54.7676 455.953 54.8821C454.083 54.997 452.259 54.4754 450.715 53.4086L438.174 44.8063L437.808 44.4855C437.158 43.7334 437.167 42.5976 437.834 41.8439C438.471 41.0919 439.597 40.9435 440.452 41.4982L452.87 50.2401C454.497 51.4101 456.682 51.2759 458.13 49.9171L469.408 39.7202C469.783 39.3276 470.297 39.1086 470.851 39.1036C471.378 39.124 471.895 39.3325 472.285 39.702C472.989 40.4244 473.057 41.529 472.475 42.3304"/>
</mask>
<path d="M472.475 42.3304L472.278 42.5537L460.996 52.7772C459.597 54.0248 457.818 54.7676 455.953 54.8821C454.083 54.997 452.259 54.4754 450.715 53.4086L438.174 44.8063L437.808 44.4855C437.158 43.7334 437.167 42.5976 437.834 41.8439C438.471 41.0919 439.597 40.9435 440.452 41.4982L452.87 50.2401C454.497 51.4101 456.682 51.2759 458.13 49.9171L469.408 39.7202C469.783 39.3276 470.297 39.1086 470.851 39.1036C471.378 39.124 471.895 39.3325 472.285 39.702C472.989 40.4244 473.057 41.529 472.475 42.3304" fill="url(#paint6_linear_27192_35462)"/>
<path d="M472.278 42.5537L472.364 42.6494L472.37 42.6446L472.374 42.6392L472.278 42.5537ZM460.996 52.7772L461.082 52.8736L461.083 52.8729L460.996 52.7772ZM450.715 53.4086L450.788 53.3024L450.788 53.3021L450.715 53.4086ZM438.174 44.8063L438.089 44.9033L438.095 44.9084L438.101 44.9127L438.174 44.8063ZM437.808 44.4855L437.711 44.57L437.717 44.5767L437.723 44.5825L437.808 44.4855ZM437.834 41.8439L437.93 41.9294L437.932 41.9273L437.834 41.8439ZM440.452 41.4982L440.527 41.3926L440.523 41.39L440.452 41.4982ZM452.87 50.2401L452.945 50.1353L452.944 50.1346L452.87 50.2401ZM458.13 49.9171L458.043 49.8213L458.042 49.823L458.13 49.9171ZM469.408 39.7202L469.495 39.8162L469.502 39.8093L469.408 39.7202ZM470.851 39.1036L470.856 38.9745L470.85 38.9745L470.851 39.1036ZM472.285 39.702L472.377 39.6118L472.374 39.6083L472.285 39.702ZM472.378 42.2449L472.181 42.4682L472.374 42.6392L472.572 42.4159L472.378 42.2449ZM472.191 42.4581L460.909 52.6816L461.083 52.8729L472.364 42.6494L472.191 42.4581ZM460.91 52.6809C459.532 53.9093 457.781 54.6406 455.945 54.7533L455.961 55.011C457.855 54.8947 459.661 54.1403 461.082 52.8736L460.91 52.6809ZM455.945 54.7533C454.105 54.8663 452.309 54.3532 450.788 53.3024L450.641 53.5147C452.208 54.5976 454.062 55.1276 455.961 55.011L455.945 54.7533ZM450.788 53.3021L438.247 44.6998L438.101 44.9127L450.642 53.515L450.788 53.3021ZM438.259 44.7093L437.893 44.3885L437.723 44.5825L438.089 44.9033L438.259 44.7093ZM437.906 44.4011C437.298 43.6985 437.306 42.6353 437.93 41.9294L437.737 41.7584C437.028 42.5599 437.017 43.7683 437.711 44.57L437.906 44.4011ZM437.932 41.9273C438.525 41.2274 439.579 41.0853 440.382 41.6065L440.523 41.39C439.616 40.8018 438.417 40.9563 437.735 41.7604L437.932 41.9273ZM440.378 41.6038L452.795 50.3456L452.944 50.1346L440.527 41.3927L440.378 41.6038ZM452.794 50.3449C454.471 51.5504 456.725 51.4128 458.218 50.0112L458.042 49.823C456.64 51.139 454.523 51.2698 452.945 50.1353L452.794 50.3449ZM458.217 50.0128L469.495 39.816L469.322 39.6245L458.044 49.8214L458.217 50.0128ZM469.502 39.8093C469.851 39.4427 470.332 39.2373 470.853 39.2326L470.85 38.9745C470.262 38.9798 469.714 39.2125 469.315 39.6311L469.502 39.8093ZM470.846 39.2325C471.343 39.2518 471.83 39.4486 472.196 39.7956L472.374 39.6083C471.96 39.2165 471.413 38.9962 470.856 38.9746L470.846 39.2325ZM472.192 39.7921C472.852 40.4689 472.916 41.5035 472.371 42.2546L472.58 42.4062C473.198 41.5546 473.126 40.3798 472.377 39.6119L472.192 39.7921Z" fill="url(#paint7_linear_27192_35462)" fill-opacity="0.5" mask="url(#path-11-inside-4_27192_35462)"/>
</g>
<path d="M193.658 182.939C191.679 182.581 189.641 183.033 187.994 184.179L175.857 192.624C172.416 195.018 171.572 199.726 173.957 203.153L180.71 212.859C183.095 216.286 187.815 217.123 191.243 214.737L203.38 206.293C206.809 203.907 207.666 199.19 205.281 195.763L198.528 186.057C197.383 184.411 195.636 183.292 193.658 182.939" fill="url(#paint8_linear_27192_35462)"/>
<g filter="url(#filter6_f_27192_35462)">
<path d="M191.205 187.816C189.944 187.555 188.657 187.816 187.629 188.531L180.055 193.801C177.908 195.295 177.444 198.323 179.01 200.574L183.444 206.946C185.01 209.196 188.018 209.809 190.157 208.32L197.731 203.05C199.871 201.561 200.343 198.527 198.777 196.277L194.344 189.905C193.592 188.824 192.466 188.074 191.205 187.816" fill="#7056E9"/>
</g>
<g filter="url(#filter7_b_27192_35462)">
<mask id="path-15-outside-5_27192_35462" maskUnits="userSpaceOnUse" x="177.595" y="181.167" width="43.7799" height="41.9755" fill="black">
<rect fill="white" x="177.595" y="181.167" width="43.7799" height="41.9755"/>
<path d="M208.816 185.474C206.786 184.518 204.458 184.416 202.351 185.176L186.827 190.774C182.425 192.361 180.156 197.193 181.737 201.577L186.213 213.992C187.795 218.376 192.641 220.642 197.027 219.06L212.551 213.462C216.937 211.88 219.223 207.043 217.642 202.658L213.166 190.244C212.406 188.138 210.847 186.427 208.816 185.474"/>
</mask>
<path d="M208.816 185.474C206.786 184.518 204.458 184.416 202.351 185.176L186.827 190.774C182.425 192.361 180.156 197.193 181.737 201.577L186.213 213.992C187.795 218.376 192.641 220.642 197.027 219.06L212.551 213.462C216.937 211.88 219.223 207.043 217.642 202.658L213.166 190.244C212.406 188.138 210.847 186.427 208.816 185.474" fill="#FF95FB" fill-opacity="0.4"/>
<path d="M208.642 185.845C208.846 185.941 209.09 185.853 209.186 185.649C209.282 185.444 209.195 185.201 208.99 185.104L208.642 185.845ZM208.99 185.104C208.785 185.008 208.542 185.096 208.446 185.301C208.35 185.505 208.438 185.749 208.642 185.845L208.99 185.104ZM208.99 185.104C206.861 184.101 204.421 183.995 202.212 184.791L202.49 185.561C204.496 184.837 206.71 184.935 208.642 185.845L208.99 185.104ZM202.212 184.791L186.688 190.389L186.965 191.159L202.49 185.561L202.212 184.791ZM186.688 190.389C182.074 192.053 179.694 197.119 181.352 201.716L182.122 201.439C180.617 197.267 182.776 192.67 186.965 191.159L186.688 190.389ZM181.352 201.716L185.829 214.131L186.598 213.853L182.122 201.439L181.352 201.716ZM185.829 214.131C187.487 218.728 192.568 221.103 197.166 219.445L196.888 218.675C192.714 220.181 188.102 218.024 186.598 213.853L185.829 214.131ZM197.166 219.445L212.69 213.847L212.412 213.077L196.888 218.675L197.166 219.445ZM212.69 213.847C217.287 212.189 219.685 207.117 218.027 202.519L217.258 202.797C218.762 206.968 216.587 211.572 212.412 213.077L212.69 213.847ZM218.027 202.519L213.551 190.105L212.781 190.383L217.258 202.797L218.027 202.519ZM213.551 190.105C212.754 187.897 211.118 186.103 208.99 185.104L208.642 185.845C210.575 186.752 212.058 188.379 212.781 190.383L213.551 190.105Z" fill="url(#paint9_linear_27192_35462)" mask="url(#path-15-outside-5_27192_35462)"/>
</g>
<g filter="url(#filter8_bd_27192_35462)">
<mask id="path-17-inside-6_27192_35462" fill="white">
<path d="M208.634 194.379L208.554 194.55L203.511 202.779C202.881 203.787 201.932 204.556 200.817 204.958C199.7 205.361 198.497 205.368 197.368 204.994L188.206 201.994L187.926 201.864C187.397 201.522 187.2 200.83 187.471 200.252C187.725 199.681 188.384 199.39 189.003 199.576L198.115 202.683C199.313 203.105 200.619 202.634 201.258 201.549L206.303 193.337C206.461 193.032 206.735 192.807 207.071 192.705C207.395 192.624 207.747 192.658 208.05 192.814C208.607 193.128 208.845 193.788 208.634 194.379"/>
</mask>
<path d="M208.634 194.379L208.554 194.55L203.511 202.779C202.881 203.787 201.932 204.556 200.817 204.958C199.7 205.361 198.497 205.368 197.368 204.994L188.206 201.994L187.926 201.864C187.397 201.522 187.2 200.83 187.471 200.252C187.725 199.681 188.384 199.39 189.003 199.576L198.115 202.683C199.313 203.105 200.619 202.634 201.258 201.549L206.303 193.337C206.461 193.032 206.735 192.807 207.071 192.705C207.395 192.624 207.747 192.658 208.05 192.814C208.607 193.128 208.845 193.788 208.634 194.379" fill="url(#paint10_linear_27192_35462)"/>
<path d="M208.554 194.55L208.624 194.593L208.628 194.585L208.554 194.55ZM203.511 202.779L203.58 202.823L203.58 202.822L203.511 202.779ZM197.368 204.994L197.393 204.917L197.393 204.917L197.368 204.994ZM188.206 201.994L188.171 202.069L188.18 202.072L188.206 201.994ZM187.926 201.864L187.882 201.933L187.892 201.938L187.926 201.864ZM187.471 200.252L187.545 200.287L187.546 200.286L187.471 200.252ZM189.003 199.576L189.03 199.498L189.027 199.497L189.003 199.576ZM198.115 202.683L198.142 202.606L198.141 202.605L198.115 202.683ZM201.258 201.549L201.188 201.507L201.187 201.508L201.258 201.549ZM206.303 193.337L206.373 193.38L206.376 193.375L206.303 193.337ZM207.071 192.705L207.051 192.625L207.048 192.627L207.071 192.705ZM208.05 192.814L208.09 192.742L208.087 192.741L208.05 192.814ZM208.56 194.344L208.48 194.515L208.628 194.585L208.708 194.414L208.56 194.344ZM208.484 194.507L203.441 202.736L203.58 202.822L208.623 194.593L208.484 194.507ZM203.441 202.736C202.822 203.729 201.886 204.485 200.79 204.881L200.845 205.035C201.977 204.627 202.941 203.846 203.58 202.823L203.441 202.736ZM200.79 204.881C199.69 205.277 198.506 205.285 197.393 204.917L197.342 205.072C198.488 205.452 199.71 205.444 200.845 205.035L200.79 204.881ZM197.393 204.917L188.231 201.916L188.18 202.072L197.342 205.072L197.393 204.917ZM188.24 201.92L187.961 201.79L187.892 201.938L188.171 202.068L188.24 201.92ZM187.971 201.795C187.476 201.476 187.291 200.828 187.545 200.287L187.397 200.218C187.109 200.831 187.317 201.569 187.882 201.933L187.971 201.795ZM187.546 200.286C187.782 199.754 188.398 199.48 188.98 199.654L189.027 199.497C188.37 199.301 187.668 199.608 187.397 200.219L187.546 200.286ZM188.977 199.653L198.088 202.76L198.141 202.605L189.03 199.498L188.977 199.653ZM198.087 202.76C199.322 203.195 200.669 202.71 201.328 201.591L201.187 201.508C200.568 202.558 199.304 203.015 198.142 202.606L198.087 202.76ZM201.327 201.592L206.373 193.38L206.233 193.294L201.188 201.507L201.327 201.592ZM206.376 193.375C206.523 193.089 206.779 192.879 207.095 192.783L207.048 192.627C206.691 192.735 206.399 192.974 206.231 193.3L206.376 193.375ZM207.091 192.784C207.397 192.708 207.728 192.741 208.013 192.887L208.087 192.741C207.766 192.576 207.394 192.54 207.052 192.626L207.091 192.784ZM208.01 192.885C208.532 193.179 208.755 193.797 208.557 194.351L208.711 194.406C208.936 193.778 208.683 193.076 208.09 192.742L208.01 192.885Z" fill="url(#paint11_linear_27192_35462)" fill-opacity="0.5" mask="url(#path-17-inside-6_27192_35462)"/>
</g>
<path d="M265.102 56.4383C262.62 52.6273 258.716 49.9737 254.273 49.0404L221.545 42.1653C212.265 40.216 203.208 46.1311 201.267 55.3741L195.769 81.5462C193.827 90.7892 199.772 99.8555 209.018 101.798L241.746 108.673C250.993 110.615 260.086 104.708 262.027 95.4648L267.525 69.2928C268.458 64.8534 267.589 60.2434 265.102 56.4383" fill="url(#paint12_linear_27192_35462)"/>
<g filter="url(#filter9_f_27192_35462)">
<path d="M253.279 59.972C251.751 57.4913 249.326 55.7782 246.554 55.1958L226.129 50.9053C220.338 49.6889 214.635 53.6236 213.36 59.6923L209.751 76.876C208.476 82.9447 212.134 88.8459 217.905 90.0581L238.329 94.3486C244.1 95.5607 249.825 91.6307 251.1 85.5621L254.71 68.3784C255.322 65.4637 254.809 62.4489 253.279 59.972" fill="#7056E9"/>
</g>
<g filter="url(#filter10_b_27192_35462)">
<mask id="path-21-outside-7_27192_35462" maskUnits="userSpaceOnUse" x="192.492" y="47.3818" width="101.213" height="97.6915" fill="black">
<rect fill="white" x="192.492" y="47.3818" width="101.213" height="97.6915"/>
<path d="M284.456 85.3361C282.881 80.5103 279.437 76.5214 274.917 74.2318L241.618 57.3649C232.177 52.5827 220.704 56.3435 215.94 65.7478L202.452 92.3763C197.689 101.781 201.478 113.272 210.886 118.038L244.185 134.904C253.593 139.67 265.103 135.927 269.866 126.523L283.354 99.8947C285.642 95.378 286.038 90.1569 284.456 85.3361"/>
</mask>
<path d="M284.456 85.3361C282.881 80.5103 279.437 76.5214 274.917 74.2318L241.618 57.3649C232.177 52.5827 220.704 56.3435 215.94 65.7478L202.452 92.3763C197.689 101.781 201.478 113.272 210.886 118.038L244.185 134.904C253.593 139.67 265.103 135.927 269.866 126.523L283.354 99.8947C285.642 95.378 286.038 90.1569 284.456 85.3361" fill="#FF95FB" fill-opacity="0.4"/>
<path d="M283.576 85.6232C283.735 86.109 284.257 86.3743 284.743 86.2158C285.229 86.0572 285.494 85.5348 285.336 85.049L283.576 85.6232ZM285.335 85.0476C285.176 84.562 284.653 84.2976 284.167 84.4569C283.682 84.6162 283.417 85.139 283.577 85.6246L285.335 85.0476ZM285.336 85.049C283.684 79.9875 280.073 75.8059 275.335 73.4063L274.499 75.0573C278.802 77.2368 282.078 81.0331 283.576 85.6232L285.336 85.049ZM275.335 73.4063L242.036 56.5395L241.2 58.1904L274.499 75.0573L275.335 73.4063ZM242.036 56.5395C232.14 51.5267 220.11 55.4686 215.115 65.3297L216.766 66.1659C221.298 57.2185 232.214 53.6386 241.2 58.1904L242.036 56.5395ZM215.115 65.3297L201.627 91.9582L203.278 92.7944L216.766 66.1659L215.115 65.3297ZM201.627 91.9582C196.631 101.82 200.606 113.868 210.468 118.863L211.304 117.212C202.35 112.677 198.746 101.741 203.278 92.7944L201.627 91.9582ZM210.468 118.863L243.767 135.73L244.603 134.079L211.304 117.212L210.468 118.863ZM243.767 135.73C253.628 140.725 265.696 136.804 270.692 126.941L269.041 126.105C264.509 135.051 253.557 138.614 244.603 134.079L243.767 135.73ZM270.692 126.941L284.18 100.313L282.529 99.4766L269.041 126.105L270.692 126.941ZM284.18 100.313C286.579 95.5766 286.993 90.1013 285.335 85.0476L283.577 85.6246C285.082 90.2125 284.706 95.1793 282.529 99.4766L284.18 100.313Z" fill="url(#paint13_linear_27192_35462)" mask="url(#path-21-outside-7_27192_35462)"/>
</g>
<g filter="url(#filter11_bd_27192_35462)">
<mask id="path-23-inside-8_27192_35462" fill="white">
<path d="M269.52 98.8582L269.114 98.9913L247.745 103.458C245.11 103.986 242.371 103.616 239.981 102.405C237.584 101.191 235.705 99.2229 234.569 96.7837L225.293 77.0493L225.074 76.3874C224.814 74.9852 225.649 73.5871 227.021 73.138C228.355 72.6701 229.855 73.3031 230.511 74.6094L239.532 94.4269C240.697 97.0539 243.498 98.4727 246.274 97.8416L267.619 93.4055C268.367 93.1914 269.162 93.2936 269.851 93.6892C270.488 94.0964 270.976 94.7292 271.19 95.4688C271.538 96.8731 270.821 98.2888 269.52 98.8582"/>
</mask>
<path d="M269.52 98.8582L269.114 98.9913L247.745 103.458C245.11 103.986 242.371 103.616 239.981 102.405C237.584 101.191 235.705 99.2229 234.569 96.7837L225.293 77.0493L225.074 76.3874C224.814 74.9852 225.649 73.5871 227.021 73.138C228.355 72.6701 229.855 73.3031 230.511 74.6094L239.532 94.4269C240.697 97.0539 243.498 98.4727 246.274 97.8416L267.619 93.4055C268.367 93.1914 269.162 93.2936 269.851 93.6892C270.488 94.0964 270.976 94.7292 271.19 95.4688C271.538 96.8731 270.821 98.2888 269.52 98.8582" fill="url(#paint14_linear_27192_35462)"/>
<path d="M269.114 98.9913L269.152 99.1725L269.162 99.1704L269.171 99.1672L269.114 98.9913ZM247.745 103.458L247.782 103.639L247.783 103.639L247.745 103.458ZM234.569 96.7837L234.737 96.7055L234.737 96.705L234.569 96.7837ZM225.293 77.0493L225.118 77.1076L225.121 77.118L225.126 77.128L225.293 77.0493ZM225.074 76.3874L224.892 76.4211L224.894 76.4336L224.898 76.4457L225.074 76.3874ZM227.021 73.138L227.078 73.3139L227.082 73.3126L227.021 73.138ZM230.511 74.6094L230.679 74.5326L230.676 74.5263L230.511 74.6094ZM239.532 94.4269L239.702 94.3519L239.701 94.3502L239.532 94.4269ZM246.274 97.8416L246.236 97.6604L246.233 97.6611L246.274 97.8416ZM267.619 93.4055L267.657 93.5872L267.67 93.5834L267.619 93.4055ZM269.851 93.6892L269.951 93.5331L269.943 93.5287L269.851 93.6892ZM271.19 95.4688L271.37 95.4243L271.368 95.4173L271.19 95.4688ZM269.463 98.6824L269.056 98.8154L269.171 99.1672L269.578 99.0341L269.463 98.6824ZM269.076 98.8102L247.707 103.277L247.783 103.639L269.152 99.1725L269.076 98.8102ZM247.709 103.276C245.114 103.797 242.417 103.432 240.065 102.24L239.897 102.57C242.324 103.8 245.106 104.176 247.782 103.639L247.709 103.276ZM240.065 102.24C237.706 101.045 235.856 99.108 234.737 96.7055L234.401 96.8618C235.555 99.3378 237.463 101.337 239.897 102.57L240.065 102.24ZM234.737 96.705L225.461 76.9706L225.126 77.128L234.402 96.8624L234.737 96.705ZM225.469 76.991L225.25 76.3292L224.898 76.4457L225.118 77.1076L225.469 76.991ZM225.256 76.3537C225.013 75.0439 225.794 73.7345 227.078 73.3138L226.963 72.9621C225.505 73.4397 224.615 74.9266 224.892 76.4211L225.256 76.3537ZM227.082 73.3126C228.323 72.8771 229.729 73.4649 230.345 74.6924L230.676 74.5263C229.981 73.1413 228.386 72.463 226.959 72.9633L227.082 73.3126ZM230.342 74.686L239.364 94.5036L239.701 94.3502L230.679 74.5327L230.342 74.686ZM239.363 94.5019C240.563 97.2086 243.451 98.673 246.315 98.0221L246.233 97.6611C243.544 98.2723 240.83 96.8991 239.702 94.3519L239.363 94.5019ZM246.312 98.0228L267.656 93.5867L267.581 93.2243L246.236 97.6604L246.312 98.0228ZM267.67 93.5834C268.368 93.3835 269.112 93.4782 269.759 93.8497L269.943 93.5287C269.212 93.1089 268.365 92.9993 267.568 93.2276L267.67 93.5834ZM269.751 93.8451C270.352 94.229 270.811 94.8255 271.013 95.5202L271.368 95.4173C271.141 94.633 270.624 93.9637 269.951 93.5333L269.751 93.8451ZM271.011 95.5132C271.336 96.829 270.665 98.155 269.446 98.6887L269.594 99.0278C270.977 98.4226 271.739 96.9172 271.37 95.4243L271.011 95.5132Z" fill="url(#paint15_linear_27192_35462)" fill-opacity="0.5" mask="url(#path-23-inside-8_27192_35462)"/>
</g>
<defs>
<filter id="filter0_f_27192_35462" x="4.81668" y="5.73074" width="45.1127" height="44.6975" filterUnits="userSpaceOnUse" color-interpolation-filters="sRGB">
<feFlood flood-opacity="0" result="BackgroundImageFix"/>
<feBlend mode="normal" in="SourceGraphic" in2="BackgroundImageFix" result="shape"/>
<feGaussianBlur stdDeviation="4.27916" result="effect1_foregroundBlur_27192_35462"/>
</filter>
<filter id="filter1_b_27192_35462" x="8.75392" y="3.66304" width="64.3789" height="61.2068" filterUnits="userSpaceOnUse" color-interpolation-filters="sRGB">
<feFlood flood-opacity="0" result="BackgroundImageFix"/>
<feGaussianBlur in="BackgroundImageFix" stdDeviation="4.01171"/>
<feComposite in2="SourceAlpha" operator="in" result="effect1_backgroundBlur_27192_35462"/>
<feBlend mode="normal" in="SourceGraphic" in2="effect1_backgroundBlur_27192_35462" result="shape"/>
</filter>
<filter id="filter2_bd_27192_35462" x="17.0313" y="14.919" width="44.7344" height="31.4198" filterUnits="userSpaceOnUse" color-interpolation-filters="sRGB">
<feFlood flood-opacity="0" result="BackgroundImageFix"/>
<feGaussianBlur in="BackgroundImageFix" stdDeviation="4.01171"/>
<feComposite in2="SourceAlpha" operator="in" result="effect1_backgroundBlur_27192_35462"/>
<feColorMatrix in="SourceAlpha" type="matrix" values="0 0 0 0 0 0 0 0 0 0 0 0 0 0 0 0 0 0 127 0" result="hardAlpha"/>
<feOffset dx="2.67448" dy="2.67448"/>
<feGaussianBlur stdDeviation="2.67448"/>
<feColorMatrix type="matrix" values="0 0 0 0 0.368627 0 0 0 0 0.431765 0 0 0 0 1 0 0 0 0.5 0"/>
<feBlend mode="normal" in2="effect1_backgroundBlur_27192_35462" result="effect2_dropShadow_27192_35462"/>
<feBlend mode="normal" in="SourceGraphic" in2="effect2_dropShadow_27192_35462" result="shape"/>
</filter>
<filter id="filter3_f_27192_35462" x="414.12" y="13.4724" width="53.3344" height="52.4693" filterUnits="userSpaceOnUse" color-interpolation-filters="sRGB">
<feFlood flood-opacity="0" result="BackgroundImageFix"/>
<feBlend mode="normal" in="SourceGraphic" in2="BackgroundImageFix" result="shape"/>
<feGaussianBlur stdDeviation="5.16271" result="effect1_foregroundBlur_27192_35462"/>
</filter>
<filter id="filter4_b_27192_35462" x="418.203" y="15.2602" width="74.5828" height="69.6404" filterUnits="userSpaceOnUse" color-interpolation-filters="sRGB">
<feFlood flood-opacity="0" result="BackgroundImageFix"/>
<feGaussianBlur in="BackgroundImageFix" stdDeviation="4.84004"/>
<feComposite in2="SourceAlpha" operator="in" result="effect1_backgroundBlur_27192_35462"/>
<feBlend mode="normal" in="SourceGraphic" in2="effect1_backgroundBlur_27192_35462" result="shape"/>
</filter>
<filter id="filter5_bd_27192_35462" x="427.648" y="29.4235" width="54.8992" height="35.1544" filterUnits="userSpaceOnUse" color-interpolation-filters="sRGB">
<feFlood flood-opacity="0" result="BackgroundImageFix"/>
<feGaussianBlur in="BackgroundImageFix" stdDeviation="4.84004"/>
<feComposite in2="SourceAlpha" operator="in" result="effect1_backgroundBlur_27192_35462"/>
<feColorMatrix in="SourceAlpha" type="matrix" values="0 0 0 0 0 0 0 0 0 0 0 0 0 0 0 0 0 0 127 0" result="hardAlpha"/>
<feOffset dx="3.2267" dy="3.2267"/>
<feGaussianBlur stdDeviation="3.2267"/>
<feColorMatrix type="matrix" values="0 0 0 0 0.368627 0 0 0 0 0.431765 0 0 0 0 1 0 0 0 0.5 0"/>
<feBlend mode="normal" in2="effect1_backgroundBlur_27192_35462" result="effect2_dropShadow_27192_35462"/>
<feBlend mode="normal" in="SourceGraphic" in2="effect2_dropShadow_27192_35462" result="shape"/>
</filter>
<filter id="filter6_f_27192_35462" x="171.536" y="181.171" width="34.7124" height="34.5074" filterUnits="userSpaceOnUse" color-interpolation-filters="sRGB">
<feFlood flood-opacity="0" result="BackgroundImageFix"/>
<feBlend mode="normal" in="SourceGraphic" in2="BackgroundImageFix" result="shape"/>
<feGaussianBlur stdDeviation="3.27282" result="effect1_foregroundBlur_27192_35462"/>
</filter>
<filter id="filter7_b_27192_35462" x="174.688" y="178.127" width="49.9996" height="47.9826" filterUnits="userSpaceOnUse" color-interpolation-filters="sRGB">
<feFlood flood-opacity="0" result="BackgroundImageFix"/>
<feGaussianBlur in="BackgroundImageFix" stdDeviation="3.06827"/>
<feComposite in2="SourceAlpha" operator="in" result="effect1_backgroundBlur_27192_35462"/>
<feBlend mode="normal" in="SourceGraphic" in2="effect1_backgroundBlur_27192_35462" result="shape"/>
</filter>
<filter id="filter8_bd_27192_35462" x="181.215" y="186.526" width="33.6324" height="24.8785" filterUnits="userSpaceOnUse" color-interpolation-filters="sRGB">
<feFlood flood-opacity="0" result="BackgroundImageFix"/>
<feGaussianBlur in="BackgroundImageFix" stdDeviation="3.06827"/>
<feComposite in2="SourceAlpha" operator="in" result="effect1_backgroundBlur_27192_35462"/>
<feColorMatrix in="SourceAlpha" type="matrix" values="0 0 0 0 0 0 0 0 0 0 0 0 0 0 0 0 0 0 127 0" result="hardAlpha"/>
<feOffset dx="2.04551" dy="2.04551"/>
<feGaussianBlur stdDeviation="2.04551"/>
<feColorMatrix type="matrix" values="0 0 0 0 0.368627 0 0 0 0 0.431765 0 0 0 0 1 0 0 0 0.5 0"/>
<feBlend mode="normal" in2="effect1_backgroundBlur_27192_35462" result="effect2_dropShadow_27192_35462"/>
<feBlend mode="normal" in="SourceGraphic" in2="effect2_dropShadow_27192_35462" result="shape"/>
</filter>
<filter id="filter9_f_27192_35462" x="194.691" y="35.8793" width="75.0755" height="73.4941" filterUnits="userSpaceOnUse" color-interpolation-filters="sRGB">
<feFlood flood-opacity="0" result="BackgroundImageFix"/>
<feBlend mode="normal" in="SourceGraphic" in2="BackgroundImageFix" result="shape"/>
<feGaussianBlur stdDeviation="7.40266" result="effect1_foregroundBlur_27192_35462"/>
</filter>
<filter id="filter10_b_27192_35462" x="185.589" y="40.4831" width="114.627" height="111.296" filterUnits="userSpaceOnUse" color-interpolation-filters="sRGB">
<feFlood flood-opacity="0" result="BackgroundImageFix"/>
<feGaussianBlur in="BackgroundImageFix" stdDeviation="6.94"/>
<feComposite in2="SourceAlpha" operator="in" result="effect1_backgroundBlur_27192_35462"/>
<feBlend mode="normal" in="SourceGraphic" in2="effect1_backgroundBlur_27192_35462" result="shape"/>
</filter>
<filter id="filter11_bd_27192_35462" x="211.147" y="59.1044" width="74.01" height="58.4679" filterUnits="userSpaceOnUse" color-interpolation-filters="sRGB">
<feFlood flood-opacity="0" result="BackgroundImageFix"/>
<feGaussianBlur in="BackgroundImageFix" stdDeviation="6.94"/>
<feComposite in2="SourceAlpha" operator="in" result="effect1_backgroundBlur_27192_35462"/>
<feColorMatrix in="SourceAlpha" type="matrix" values="0 0 0 0 0 0 0 0 0 0 0 0 0 0 0 0 0 0 127 0" result="hardAlpha"/>
<feOffset dx="4.62667" dy="4.62667"/>
<feGaussianBlur stdDeviation="4.62667"/>
<feColorMatrix type="matrix" values="0 0 0 0 0.368627 0 0 0 0 0.431765 0 0 0 0 1 0 0 0 0.5 0"/>
<feBlend mode="normal" in2="effect1_backgroundBlur_27192_35462" result="effect2_dropShadow_27192_35462"/>
<feBlend mode="normal" in="SourceGraphic" in2="effect2_dropShadow_27192_35462" result="shape"/>
</filter>
<linearGradient id="paint0_linear_27192_35462" x1="31.845" y1="30.1692" x2="11.7965" y2="61.7524" gradientUnits="userSpaceOnUse">
<stop stop-color="#AB51EA"/>
<stop offset="1" stop-color="#7356EA"/>
</linearGradient>
<linearGradient id="paint1_linear_27192_35462" x1="22.8107" y1="23.3053" x2="54.7087" y2="49.8646" gradientUnits="userSpaceOnUse">
<stop stop-color="white" stop-opacity="0.25"/>
<stop offset="1" stop-color="white" stop-opacity="0"/>
</linearGradient>
<linearGradient id="paint2_linear_27192_35462" x1="51.7947" y1="25.242" x2="20.7146" y2="35.7541" gradientUnits="userSpaceOnUse">
<stop stop-color="white"/>
<stop offset="1" stop-color="white" stop-opacity="0.2"/>
</linearGradient>
<linearGradient id="paint3_linear_27192_35462" x1="53.6257" y1="29.0992" x2="26.7366" y2="38.8446" gradientUnits="userSpaceOnUse">
<stop stop-color="white"/>
<stop offset="1" stop-color="white" stop-opacity="0"/>
</linearGradient>
<linearGradient id="paint4_linear_27192_35462" x1="445.623" y1="43.1845" x2="414.781" y2="76.1358" gradientUnits="userSpaceOnUse">
<stop stop-color="#AB51EA"/>
<stop offset="1" stop-color="#7356EA"/>
</linearGradient>
<linearGradient id="paint5_linear_27192_35462" x1="436.451" y1="33.025" x2="468.317" y2="71.656" gradientUnits="userSpaceOnUse">
<stop stop-color="white" stop-opacity="0.25"/>
<stop offset="1" stop-color="white" stop-opacity="0"/>
</linearGradient>
<linearGradient id="paint6_linear_27192_35462" x1="470.384" y1="41.814" x2="431.184" y2="47.3144" gradientUnits="userSpaceOnUse">
<stop stop-color="white"/>
<stop offset="1" stop-color="white" stop-opacity="0.2"/>
</linearGradient>
<linearGradient id="paint7_linear_27192_35462" x1="471.691" y1="46.7969" x2="437.631" y2="52.3272" gradientUnits="userSpaceOnUse">
<stop stop-color="white"/>
<stop offset="1" stop-color="white" stop-opacity="0"/>
</linearGradient>
<linearGradient id="paint8_linear_27192_35462" x1="192.458" y1="199.68" x2="179.562" y2="225.221" gradientUnits="userSpaceOnUse">
<stop stop-color="#AB51EA"/>
<stop offset="1" stop-color="#7356EA"/>
</linearGradient>
<linearGradient id="paint9_linear_27192_35462" x1="185.066" y1="195.133" x2="211.334" y2="212.961" gradientUnits="userSpaceOnUse">
<stop stop-color="white" stop-opacity="0.25"/>
<stop offset="1" stop-color="white" stop-opacity="0"/>
</linearGradient>
<linearGradient id="paint10_linear_27192_35462" x1="207.27" y1="194.437" x2="184.4" y2="204.765" gradientUnits="userSpaceOnUse">
<stop stop-color="white"/>
<stop offset="1" stop-color="white" stop-opacity="0.2"/>
</linearGradient>
<linearGradient id="paint11_linear_27192_35462" x1="208.952" y1="197.236" x2="189.215" y2="206.667" gradientUnits="userSpaceOnUse">
<stop stop-color="white"/>
<stop offset="1" stop-color="white" stop-opacity="0"/>
</linearGradient>
<linearGradient id="paint12_linear_27192_35462" x1="235.686" y1="80.4374" x2="173.641" y2="98.8355" gradientUnits="userSpaceOnUse">
<stop stop-color="#AB51EA"/>
<stop offset="1" stop-color="#7356EA"/>
</linearGradient>
<linearGradient id="paint13_linear_27192_35462" x1="231.713" y1="61.2298" x2="243.121" y2="132.123" gradientUnits="userSpaceOnUse">
<stop stop-color="white" stop-opacity="0.25"/>
<stop offset="1" stop-color="white" stop-opacity="0"/>
</linearGradient>
<linearGradient id="paint14_linear_27192_35462" x1="267.308" y1="96.703" x2="214.828" y2="75.0834" gradientUnits="userSpaceOnUse">
<stop stop-color="white"/>
<stop offset="1" stop-color="white" stop-opacity="0.2"/>
</linearGradient>
<linearGradient id="paint15_linear_27192_35462" x1="265.311" y1="103.815" x2="219.168" y2="85.9588" gradientUnits="userSpaceOnUse">
<stop stop-color="white"/>
<stop offset="1" stop-color="white" stop-opacity="0"/>
</linearGradient>
</defs>
</svg>
