<svg width="305" height="93" viewBox="0 0 305 93" fill="none" xmlns="http://www.w3.org/2000/svg">
<path d="M35.548 22.5384C33.0189 21.8204 30.3094 22.1473 28.0191 23.428L11.1462 32.8631C6.36218 35.5382 4.66236 41.5557 7.32699 46.3209L14.872 59.8138C17.5366 64.579 23.5704 66.2719 28.3374 63.6063L45.2102 54.1712C49.9772 51.5056 51.6958 45.4776 49.0311 40.7125L41.4861 27.2196C40.2063 24.9309 38.0769 23.2519 35.548 22.5384Z" fill="url(#paint0_linear_27192_35463)"/>
<g filter="url(#filter0_f_27192_35463)">
<path d="M31.7379 28.5703C30.13 28.0694 28.4227 28.244 26.9934 29.0432L16.4636 34.9313C13.4781 36.6008 12.4875 40.4815 14.237 43.6102L19.1908 52.4692C20.9403 55.5979 24.7759 56.7798 27.7508 55.1163L38.2806 49.2282C41.2554 47.5647 42.2578 43.6774 40.5083 40.5488L35.5544 31.6898C34.7142 30.1871 33.3455 29.0682 31.7379 28.5703Z" fill="#7056E9"/>
</g>
<g filter="url(#filter1_b_27192_35463)">
<mask id="path-3-outside-1_27192_35463" maskUnits="userSpaceOnUse" x="13.7304" y="22.5543" width="54.6587" height="51.0394" fill="black">
<rect fill="white" x="13.7304" y="22.5543" width="54.6587" height="51.0394"/>
<path d="M54.9497 27.7769C52.4304 26.2723 49.4149 25.842 46.5756 26.5611L25.6588 31.859C19.7283 33.3612 16.1573 39.3577 17.6535 45.265L21.8902 61.9916C23.3864 67.8988 29.4025 71.4671 35.3119 69.9703L56.2286 64.6724C62.138 63.1756 65.7323 57.1732 64.236 51.266L59.9994 34.5393C59.2808 31.7022 57.4701 29.2768 54.9497 27.7769Z"/>
</mask>
<path d="M54.9497 27.7769C52.4304 26.2723 49.4149 25.842 46.5756 26.5611L25.6588 31.859C19.7283 33.3612 16.1573 39.3577 17.6535 45.265L21.8902 61.9916C23.3864 67.8988 29.4025 71.4671 35.3119 69.9703L56.2286 64.6724C62.138 63.1756 65.7323 57.1732 64.236 51.266L59.9994 34.5393C59.2808 31.7022 57.4701 29.2768 54.9497 27.7769Z" fill="#FF95FB" fill-opacity="0.4"/>
<path d="M54.6755 28.2362C54.9291 28.3876 55.2575 28.3048 55.4089 28.0512C55.5604 27.7976 55.4776 27.4692 55.224 27.3177L54.6755 28.2362ZM55.2233 27.3173C54.9694 27.1662 54.6411 27.2495 54.4901 27.5034C54.339 27.7573 54.4223 28.0855 54.6762 28.2366L55.2233 27.3173ZM55.224 27.3177C52.5816 25.7396 49.42 25.2889 46.4442 26.0426L46.7069 27.0796C49.4097 26.3951 52.2792 26.805 54.6755 28.2362L55.224 27.3177ZM46.4442 26.0426L25.5275 31.3405L25.7902 32.3776L46.7069 27.0796L46.4442 26.0426ZM25.5275 31.3405C19.3112 32.915 15.5661 39.2021 17.135 45.3963L18.1721 45.1336C16.7485 39.5134 20.1454 33.8073 25.7902 32.3776L25.5275 31.3405ZM17.135 45.3963L21.3716 62.1229L22.4087 61.8603L18.1721 45.1336L17.135 45.3963ZM21.3716 62.1229C22.9407 68.3178 29.2488 72.0578 35.4432 70.4889L35.1806 69.4518C29.5563 70.8764 23.8321 67.4799 22.4087 61.8603L21.3716 62.1229ZM35.4432 70.4889L56.36 65.1909L56.0973 64.1539L35.1806 69.4518L35.4432 70.4889ZM56.36 65.1909C62.5543 63.622 66.3237 57.3296 64.7546 51.1346L63.7175 51.3973C65.1409 57.0168 61.7217 62.7293 56.0973 64.1539L56.36 65.1909ZM64.7546 51.1346L60.5179 34.408L59.4809 34.6707L63.7175 51.3973L64.7546 51.1346ZM60.5179 34.408C59.7644 31.4329 57.8654 28.8896 55.2233 27.3173L54.6762 28.2366C57.0748 29.664 58.7972 31.9714 59.4809 34.6707L60.5179 34.408Z" fill="url(#paint1_linear_27192_35463)" mask="url(#path-3-outside-1_27192_35463)"/>
</g>
<g filter="url(#filter2_bd_27192_35463)">
<mask id="path-5-inside-2_27192_35463" fill="white">
<path d="M53.5774 39.3407L53.4509 39.553L45.8358 49.6156C44.8882 50.847 43.5539 51.7257 42.0527 52.1059C40.5473 52.4872 38.9809 52.3432 37.5593 51.7119L26.0218 46.6356L25.6747 46.4306C25.029 45.9183 24.8619 44.9917 25.2888 44.2753C25.6924 43.5647 26.5867 43.2706 27.3685 43.5908L38.827 48.7998C40.332 49.5023 42.0915 49.0567 43.0616 47.7272L50.6778 37.6868C50.9225 37.3094 51.3078 37.0519 51.7584 36.9625C52.1904 36.8982 52.6436 36.9884 53.0178 37.2293C53.7027 37.7093 53.9279 38.5985 53.5774 39.3407Z"/>
</mask>
<path d="M53.5774 39.3407L53.4509 39.553L45.8358 49.6156C44.8882 50.847 43.5539 51.7257 42.0527 52.1059C40.5473 52.4872 38.9809 52.3432 37.5593 51.7119L26.0218 46.6356L25.6747 46.4306C25.029 45.9183 24.8619 44.9917 25.2888 44.2753C25.6924 43.5647 26.5867 43.2706 27.3685 43.5908L38.827 48.7998C40.332 49.5023 42.0915 49.0567 43.0616 47.7272L50.6778 37.6868C50.9225 37.3094 51.3078 37.0519 51.7584 36.9625C52.1904 36.8982 52.6436 36.9884 53.0178 37.2293C53.7027 37.7093 53.9279 38.5985 53.5774 39.3407Z" fill="url(#paint2_linear_27192_35463)"/>
<path d="M53.4509 39.553L53.5368 39.618L53.5428 39.6078L53.4509 39.553ZM45.8358 49.6156L45.9206 49.6809L45.9211 49.6802L45.8358 49.6156ZM37.5593 51.7119L37.6027 51.6142L37.6024 51.614L37.5593 51.7119ZM26.0218 46.6356L25.967 46.7284L25.9787 46.7335L26.0218 46.6356ZM25.6747 46.4306L25.6082 46.5144L25.614 46.519L25.6203 46.5227L25.6747 46.4306ZM25.2888 44.2753L25.3807 44.33L25.3818 44.3281L25.2888 44.2753ZM27.3685 43.5908L27.4128 43.4933L27.4091 43.4918L27.3685 43.5908ZM38.827 48.7998L38.8722 48.7028L38.8712 48.7024L38.827 48.7998ZM43.0616 47.7272L42.9763 47.6625L42.9751 47.6641L43.0616 47.7272ZM50.6778 37.6868L50.7633 37.7517L50.7676 37.745L50.6778 37.6868ZM51.7584 36.9625L51.7426 36.8566L51.7376 36.8576L51.7584 36.9625ZM53.0178 37.2293L53.0793 37.1417L53.0758 37.1394L53.0178 37.2293ZM53.4855 39.286L53.359 39.4983L53.5428 39.6078L53.6693 39.3955L53.4855 39.286ZM53.3656 39.4885L45.7505 49.5511L45.9211 49.6802L53.5362 39.6176L53.3656 39.4885ZM45.751 49.5504C44.818 50.7628 43.5042 51.6279 42.0264 52.0022L42.079 52.2097C43.6035 51.8235 44.9584 50.9312 45.9206 49.6809L45.751 49.5504ZM42.0264 52.0022C40.5448 52.3775 39.003 52.236 37.6027 51.6142L37.5159 51.8097C38.9589 52.4505 40.5498 52.597 42.079 52.2097L42.0264 52.0022ZM37.6024 51.614L26.0649 46.5377L25.9787 46.7335L37.5162 51.8099L37.6024 51.614ZM26.0762 46.5435L25.7291 46.3385L25.6203 46.5227L25.9674 46.7277L26.0762 46.5435ZM25.7412 46.3468C25.138 45.8682 24.9809 45.0011 25.3807 44.33L25.1969 44.2205C24.7429 44.9824 24.92 45.9683 25.6082 46.5144L25.7412 46.3468ZM25.3818 44.3281C25.7574 43.6668 26.5933 43.3889 27.328 43.6898L27.4091 43.4918C26.5801 43.1523 25.6273 43.4626 25.1958 44.2224L25.3818 44.3281ZM27.3243 43.6882L38.7827 48.8971L38.8712 48.7024L27.4128 43.4934L27.3243 43.6882ZM38.7817 48.8967C40.3325 49.6206 42.1473 49.1616 43.148 47.7903L42.9751 47.6641C42.0356 48.9517 40.3315 49.384 38.8722 48.7028L38.7817 48.8967ZM43.1468 47.7918L50.7631 37.7515L50.5926 37.6222L42.9763 47.6625L43.1468 47.7918ZM50.7676 37.745C50.996 37.3926 51.3562 37.1513 51.7792 37.0675L51.7376 36.8576C51.2595 36.9524 50.8489 37.2263 50.5881 37.6287L50.7676 37.745ZM51.7741 37.0683C52.1815 37.0076 52.6084 37.0929 52.9599 37.3193L53.0758 37.1394C52.6789 36.8839 52.1993 36.7887 51.7426 36.8567L51.7741 37.0683ZM52.9565 37.3169C53.5981 37.7666 53.8092 38.5994 53.4807 39.295L53.6742 39.3864C54.0466 38.5977 53.8073 37.6519 53.0792 37.1417L52.9565 37.3169Z" fill="url(#paint3_linear_27192_35463)" fill-opacity="0.5" mask="url(#path-5-inside-2_27192_35463)"/>
</g>
<path d="M277.766 25.6079C275.865 22.6893 272.875 20.6571 269.472 19.9424L244.408 14.6773C237.302 13.1844 230.366 17.7144 228.879 24.793L224.668 44.8363C223.181 51.9149 227.734 58.8581 234.815 60.3456L259.879 65.6107C266.96 67.0982 273.924 62.5741 275.411 55.4955L279.621 35.4522C280.336 32.0525 279.671 28.522 277.766 25.6079Z" fill="url(#paint4_linear_27192_35463)"/>
<g filter="url(#filter3_f_27192_35463)">
<path d="M268.706 28.3139C267.536 26.4141 265.679 25.1022 263.556 24.6561L247.914 21.3703C243.479 20.4387 239.112 23.4521 238.135 28.0996L235.371 41.2594C234.395 45.907 237.196 50.4264 241.615 51.3546L257.257 54.6404C261.676 55.5687 266.061 52.559 267.037 47.9115L269.802 34.7517C270.271 32.5195 269.878 30.2107 268.706 28.3139Z" fill="#7056E9"/>
</g>
<g filter="url(#filter4_b_27192_35463)">
<mask id="path-9-outside-3_27192_35463" maskUnits="userSpaceOnUse" x="221.878" y="18.3575" width="77.9259" height="75.2846" fill="black">
<rect fill="white" x="221.878" y="18.3575" width="77.9259" height="75.2846"/>
<path d="M292.587 47.7387C291.381 44.0429 288.744 40.9881 285.282 39.2347L259.781 26.3175C252.55 22.6551 243.764 25.5353 240.116 32.7374L229.786 53.1303C226.138 60.3323 229.04 69.133 236.245 72.7824L261.746 85.6995C268.951 89.3488 277.766 86.483 281.414 79.281L291.743 58.8881C293.495 55.429 293.798 51.4306 292.587 47.7387Z"/>
</mask>
<path d="M292.587 47.7387C291.381 44.0429 288.744 40.9881 285.282 39.2347L259.781 26.3175C252.55 22.6551 243.764 25.5353 240.116 32.7374L229.786 53.1303C226.138 60.3323 229.04 69.133 236.245 72.7824L261.746 85.6995C268.951 89.3488 277.766 86.483 281.414 79.281L291.743 58.8881C293.495 55.429 293.798 51.4306 292.587 47.7387Z" fill="#FF95FB" fill-opacity="0.4"/>
<path d="M291.913 47.9585C292.035 48.3306 292.435 48.5338 292.807 48.4123C293.179 48.2909 293.382 47.8908 293.261 47.5188L291.913 47.9585ZM293.26 47.5177C293.138 47.1459 292.738 46.9433 292.366 47.0653C291.994 47.1874 291.791 47.5877 291.914 47.9596L293.26 47.5177ZM293.261 47.5188C291.995 43.6426 289.23 40.4402 285.602 38.6025L284.962 39.8668C288.257 41.536 290.766 44.4433 291.913 47.9585L293.261 47.5188ZM285.602 38.6025L260.101 25.6854L259.46 26.9497L284.962 39.8668L285.602 38.6025ZM260.101 25.6854C252.522 21.8465 243.309 24.8652 239.484 32.4172L240.748 33.0576C244.219 26.2054 252.578 23.4638 259.46 26.9497L260.101 25.6854ZM239.484 32.4172L229.154 52.8101L230.418 53.4505L240.748 33.0576L239.484 32.4172ZM229.154 52.8101C225.328 60.3628 228.372 69.5891 235.925 73.4145L236.565 72.1502C229.708 68.6769 226.948 60.3018 230.418 53.4505L229.154 52.8101ZM235.925 73.4145L261.426 86.3317L262.067 85.0673L236.565 72.1502L235.925 73.4145ZM261.426 86.3317C268.978 90.157 278.22 87.1541 282.046 79.6012L280.782 78.9607C277.311 85.8119 268.924 88.5407 262.067 85.0673L261.426 86.3317ZM282.046 79.6012L292.375 59.2083L291.111 58.5679L280.782 78.9607L282.046 79.6012ZM292.375 59.2083C294.213 55.5811 294.53 51.388 293.26 47.5177L291.914 47.9596C293.066 51.4731 292.778 55.2769 291.111 58.5679L292.375 59.2083Z" fill="url(#paint5_linear_27192_35463)" mask="url(#path-9-outside-3_27192_35463)"/>
</g>
<g filter="url(#filter5_bd_27192_35463)">
<mask id="path-11-inside-4_27192_35463" fill="white">
<path d="M281.151 58.094L280.84 58.1959L264.476 61.6164C262.457 62.0213 260.36 61.7373 258.529 60.8103C256.694 59.8806 255.255 58.3733 254.385 56.5053L247.281 41.3921L247.113 40.8852C246.914 39.8114 247.554 38.7406 248.604 38.3967C249.626 38.0384 250.775 38.5232 251.277 39.5235L258.186 54.7004C259.078 56.7122 261.223 57.7987 263.349 57.3155L279.695 53.9182C280.268 53.7542 280.877 53.8325 281.405 54.1354C281.893 54.4473 282.267 54.9319 282.431 55.4983C282.697 56.5738 282.148 57.6579 281.151 58.094Z"/>
</mask>
<path d="M281.151 58.094L280.84 58.1959L264.476 61.6164C262.457 62.0213 260.36 61.7373 258.529 60.8103C256.694 59.8806 255.255 58.3733 254.385 56.5053L247.281 41.3921L247.113 40.8852C246.914 39.8114 247.554 38.7406 248.604 38.3967C249.626 38.0384 250.775 38.5232 251.277 39.5235L258.186 54.7004C259.078 56.7122 261.223 57.7987 263.349 57.3155L279.695 53.9182C280.268 53.7542 280.877 53.8325 281.405 54.1354C281.893 54.4473 282.267 54.9319 282.431 55.4983C282.697 56.5738 282.148 57.6579 281.151 58.094Z" fill="url(#paint6_linear_27192_35463)"/>
<path d="M280.84 58.1959L280.869 58.3347L280.877 58.3331L280.884 58.3306L280.84 58.1959ZM264.476 61.6164L264.503 61.7554L264.505 61.7552L264.476 61.6164ZM254.385 56.5053L254.513 56.4454L254.513 56.445L254.385 56.5053ZM247.281 41.3921L247.147 41.4367L247.15 41.4447L247.153 41.4524L247.281 41.3921ZM247.113 40.8852L246.974 40.911L246.976 40.9206L246.979 40.9299L247.113 40.8852ZM248.604 38.3967L248.648 38.5314L248.651 38.5304L248.604 38.3967ZM251.277 39.5235L251.406 39.4648L251.404 39.46L251.277 39.5235ZM258.186 54.7004L258.316 54.643L258.315 54.6417L258.186 54.7004ZM263.349 57.3155L263.32 57.1767L263.317 57.1773L263.349 57.3155ZM279.695 53.9182L279.724 54.0573L279.734 54.0544L279.695 53.9182ZM281.405 54.1354L281.481 54.0159L281.476 54.0125L281.405 54.1354ZM282.431 55.4983L282.568 55.4642L282.567 55.4589L282.431 55.4983ZM281.107 57.9593L280.796 58.0613L280.884 58.3306L281.196 58.2287L281.107 57.9593ZM280.811 58.0572L264.447 61.4777L264.505 61.7552L280.869 58.3347L280.811 58.0572ZM264.448 61.4775C262.46 61.8761 260.395 61.5965 258.594 60.6839L258.465 60.9367C260.324 61.8782 262.454 62.1665 264.503 61.7554L264.448 61.4775ZM258.594 60.6839C256.787 59.7689 255.371 58.2853 254.513 56.4454L254.256 56.5651C255.14 58.4613 256.601 59.9924 258.465 60.9367L258.594 60.6839ZM254.513 56.445L247.41 41.3318L247.153 41.4524L254.257 56.5656L254.513 56.445ZM247.416 41.3475L247.248 40.8406L246.979 40.9299L247.147 41.4367L247.416 41.3475ZM247.253 40.8594C247.067 39.8563 247.665 38.8535 248.648 38.5314L248.56 38.262C247.443 38.6277 246.762 39.7665 246.974 40.911L247.253 40.8594ZM248.651 38.5304C249.602 38.1969 250.678 38.6471 251.15 39.5871L251.404 39.46C250.871 38.3993 249.65 37.8798 248.557 38.2629L248.651 38.5304ZM251.148 39.5823L258.057 54.7591L258.315 54.6417L251.406 39.4648L251.148 39.5823ZM258.056 54.7578C258.975 56.8307 261.187 57.9522 263.38 57.4537L263.317 57.1773C261.258 57.6453 259.18 56.5937 258.316 54.643L258.056 54.7578ZM263.378 57.4542L279.724 54.0569L279.667 53.7794L263.32 57.1767L263.378 57.4542ZM279.734 54.0544C280.269 53.9013 280.839 53.9739 281.334 54.2583L281.476 54.0125C280.916 53.691 280.267 53.6071 279.656 53.7819L279.734 54.0544ZM281.329 54.2548C281.788 54.5488 282.14 55.0056 282.294 55.5377L282.567 55.4589C282.393 54.8582 281.997 54.3457 281.481 54.016L281.329 54.2548ZM282.293 55.5323C282.542 56.54 282.028 57.5555 281.095 57.9642L281.208 58.2239C282.267 57.7604 282.851 56.6075 282.568 55.4642L282.293 55.5323Z" fill="url(#paint7_linear_27192_35463)" fill-opacity="0.5" mask="url(#path-11-inside-4_27192_35463)"/>
</g>
<defs>
<filter id="filter0_f_27192_35463" x="4.81668" y="19.7307" width="45.1127" height="44.6975" filterUnits="userSpaceOnUse" color-interpolation-filters="sRGB">
<feFlood flood-opacity="0" result="BackgroundImageFix"/>
<feBlend mode="normal" in="SourceGraphic" in2="BackgroundImageFix" result="shape"/>
<feGaussianBlur stdDeviation="4.27916" result="effect1_foregroundBlur_27192_35463"/>
</filter>
<filter id="filter1_b_27192_35463" x="8.75392" y="17.663" width="64.3789" height="61.2068" filterUnits="userSpaceOnUse" color-interpolation-filters="sRGB">
<feFlood flood-opacity="0" result="BackgroundImageFix"/>
<feGaussianBlur in="BackgroundImageFix" stdDeviation="4.01171"/>
<feComposite in2="SourceAlpha" operator="in" result="effect1_backgroundBlur_27192_35463"/>
<feBlend mode="normal" in="SourceGraphic" in2="effect1_backgroundBlur_27192_35463" result="shape"/>
</filter>
<filter id="filter2_bd_27192_35463" x="17.0313" y="28.919" width="44.7344" height="31.4198" filterUnits="userSpaceOnUse" color-interpolation-filters="sRGB">
<feFlood flood-opacity="0" result="BackgroundImageFix"/>
<feGaussianBlur in="BackgroundImageFix" stdDeviation="4.01171"/>
<feComposite in2="SourceAlpha" operator="in" result="effect1_backgroundBlur_27192_35463"/>
<feColorMatrix in="SourceAlpha" type="matrix" values="0 0 0 0 0 0 0 0 0 0 0 0 0 0 0 0 0 0 127 0" result="hardAlpha"/>
<feOffset dx="2.67448" dy="2.67448"/>
<feGaussianBlur stdDeviation="2.67448"/>
<feColorMatrix type="matrix" values="0 0 0 0 0.368627 0 0 0 0 0.431765 0 0 0 0 1 0 0 0 0.5 0"/>
<feBlend mode="normal" in2="effect1_backgroundBlur_27192_35463" result="effect2_dropShadow_27192_35463"/>
<feBlend mode="normal" in="SourceGraphic" in2="effect2_dropShadow_27192_35463" result="shape"/>
</filter>
<filter id="filter3_f_27192_35463" x="223.837" y="9.86301" width="57.497" height="56.2839" filterUnits="userSpaceOnUse" color-interpolation-filters="sRGB">
<feFlood flood-opacity="0" result="BackgroundImageFix"/>
<feBlend mode="normal" in="SourceGraphic" in2="BackgroundImageFix" result="shape"/>
<feGaussianBlur stdDeviation="5.66917" result="effect1_foregroundBlur_27192_35463"/>
</filter>
<filter id="filter4_b_27192_35463" x="216.87" y="13.3889" width="87.7867" height="85.2336" filterUnits="userSpaceOnUse" color-interpolation-filters="sRGB">
<feFlood flood-opacity="0" result="BackgroundImageFix"/>
<feGaussianBlur in="BackgroundImageFix" stdDeviation="5.31485"/>
<feComposite in2="SourceAlpha" operator="in" result="effect1_backgroundBlur_27192_35463"/>
<feBlend mode="normal" in="SourceGraphic" in2="effect1_backgroundBlur_27192_35463" result="shape"/>
</filter>
<filter id="filter5_bd_27192_35463" x="236.448" y="27.6494" width="56.6774" height="44.7764" filterUnits="userSpaceOnUse" color-interpolation-filters="sRGB">
<feFlood flood-opacity="0" result="BackgroundImageFix"/>
<feGaussianBlur in="BackgroundImageFix" stdDeviation="5.31485"/>
<feComposite in2="SourceAlpha" operator="in" result="effect1_backgroundBlur_27192_35463"/>
<feColorMatrix in="SourceAlpha" type="matrix" values="0 0 0 0 0 0 0 0 0 0 0 0 0 0 0 0 0 0 127 0" result="hardAlpha"/>
<feOffset dx="3.54323" dy="3.54323"/>
<feGaussianBlur stdDeviation="3.54323"/>
<feColorMatrix type="matrix" values="0 0 0 0 0.368627 0 0 0 0 0.431765 0 0 0 0 1 0 0 0 0.5 0"/>
<feBlend mode="normal" in2="effect1_backgroundBlur_27192_35463" result="effect2_dropShadow_27192_35463"/>
<feBlend mode="normal" in="SourceGraphic" in2="effect2_dropShadow_27192_35463" result="shape"/>
</filter>
<linearGradient id="paint0_linear_27192_35463" x1="31.845" y1="44.1692" x2="11.7965" y2="75.7524" gradientUnits="userSpaceOnUse">
<stop stop-color="#AB51EA"/>
<stop offset="1" stop-color="#7356EA"/>
</linearGradient>
<linearGradient id="paint1_linear_27192_35463" x1="22.8107" y1="37.3053" x2="54.7087" y2="63.8646" gradientUnits="userSpaceOnUse">
<stop stop-color="white" stop-opacity="0.25"/>
<stop offset="1" stop-color="white" stop-opacity="0"/>
</linearGradient>
<linearGradient id="paint2_linear_27192_35463" x1="51.7947" y1="39.242" x2="20.7146" y2="49.7541" gradientUnits="userSpaceOnUse">
<stop stop-color="white"/>
<stop offset="1" stop-color="white" stop-opacity="0.2"/>
</linearGradient>
<linearGradient id="paint3_linear_27192_35463" x1="53.6257" y1="43.0992" x2="26.7366" y2="52.8446" gradientUnits="userSpaceOnUse">
<stop stop-color="white"/>
<stop offset="1" stop-color="white" stop-opacity="0"/>
</linearGradient>
<linearGradient id="paint4_linear_27192_35463" x1="255.238" y1="43.9871" x2="207.722" y2="58.0769" gradientUnits="userSpaceOnUse">
<stop stop-color="#AB51EA"/>
<stop offset="1" stop-color="#7356EA"/>
</linearGradient>
<linearGradient id="paint5_linear_27192_35463" x1="252.195" y1="29.2774" x2="260.932" y2="83.5696" gradientUnits="userSpaceOnUse">
<stop stop-color="white" stop-opacity="0.25"/>
<stop offset="1" stop-color="white" stop-opacity="0"/>
</linearGradient>
<linearGradient id="paint6_linear_27192_35463" x1="279.457" y1="56.4435" x2="239.267" y2="39.8865" gradientUnits="userSpaceOnUse">
<stop stop-color="white"/>
<stop offset="1" stop-color="white" stop-opacity="0.2"/>
</linearGradient>
<linearGradient id="paint7_linear_27192_35463" x1="277.928" y1="61.8897" x2="242.59" y2="48.2153" gradientUnits="userSpaceOnUse">
<stop stop-color="white"/>
<stop offset="1" stop-color="white" stop-opacity="0"/>
</linearGradient>
</defs>
</svg>
