<svg width="24" height="24" viewBox="0 0 24 24" fill="none" xmlns="http://www.w3.org/2000/svg">
<path d="M12.7834 20.4C12.7434 20.4 12.7034 20.4 12.6634 20.38C12.3034 20.32 12.0234 20.04 12.0034 19.68L11.3034 12.72L4.34342 12.02C3.98342 11.98 3.68342 11.7 3.64342 11.36C3.58342 11 3.78343 10.66 4.10343 10.5L19.3034 3.67997C19.6034 3.53997 19.9634 3.59997 20.2034 3.83997C20.4434 4.07997 20.5034 4.43997 20.3634 4.73997L13.5434 19.94C13.3834 20.22 13.0834 20.4 12.7834 20.4ZM7.46344 10.74L12.0834 11.22C12.4634 11.26 12.7634 11.56 12.8034 11.94L13.2834 16.56L18.0034 5.99997L7.46344 10.74Z" fill="white"/>
</svg>
