<svg width="149" height="140" viewBox="0 0 149 140" fill="none" xmlns="http://www.w3.org/2000/svg">
<g filter="url(#filter0_f_2915_40891)">
<path d="M83.3368 64.0539L64.8183 47.9706C62.8702 46.2436 59.5177 46.38 57.363 48.2955C56.613 48.9371 56.0845 49.7487 55.8181 50.5883L47.8609 74.584C47.3883 77.1525 49.3523 79.3815 52.2335 79.535C52.8064 79.5532 53.3994 79.4996 53.9708 79.3646L80.5785 71.5807C81.925 71.1193 83.0415 70.2353 83.7354 69.0883C84.4286 67.9381 84.5973 66.6575 84.212 65.5036C84.0419 65.0112 83.7859 64.5643 83.3368 64.0539Z" fill="#E31352" fill-opacity="0.02"/>
</g>
<path fill-rule="evenodd" clip-rule="evenodd" d="M63.8324 32.3067L96.1543 61.1607C96.9383 62.0726 97.3852 62.8677 97.6823 63.7405C98.3551 65.7858 98.0612 68.0397 96.8522 70.05C95.6418 72.0547 93.6938 73.5842 91.3445 74.3625L85.8789 75.896L89.8334 88.1845C90.9442 91.6364 89.0315 95.2798 85.5612 96.322L66.1257 102.159C62.6554 103.201 58.9416 101.248 57.8307 97.796L53.6894 84.9271L44.9176 87.3881C43.9206 87.6112 42.8859 87.69 41.8861 87.6429C36.8584 87.296 33.4302 83.3131 34.2538 78.7957L48.1282 36.6859C48.5928 35.2121 49.5147 33.7947 50.8232 32.6829C54.5821 29.3615 60.4323 29.2095 63.8324 32.3067Z" fill="url(#paint0_linear_2915_40891)" fill-opacity="0.15"/>
<g filter="url(#filter1_b_2915_40891)">
<mask id="path-3-outside-1_2915_40891" maskUnits="userSpaceOnUse" x="33.8906" y="21.1127" width="112.856" height="120.41" fill="black">
<rect fill="white" x="33.8906" y="21.1127" width="112.856" height="120.41"/>
<path fill-rule="evenodd" clip-rule="evenodd" d="M114.53 45.594L125.264 101.328C125.367 102.909 125.22 104.108 124.866 105.278C124.013 108 122.04 110.215 119.336 111.472C116.635 112.721 113.553 112.897 110.63 111.956L102.22 108.781L95.861 125.624C94.3961 129.504 90.0636 131.461 86.1839 129.997L61.8132 120.796C57.9335 119.331 55.9759 114.999 57.4408 111.119L63.8003 94.2767L54.6201 90.8109C53.4596 90.2957 52.3689 89.5956 51.407 88.786C46.6511 84.5954 46.2 77.6863 50.3878 73.4256L95.6047 38.4125C97.1662 37.1712 99.1419 36.3379 101.275 36.1285C107.499 35.3889 113.447 39.6641 114.53 45.594Z"/>
</mask>
<path fill-rule="evenodd" clip-rule="evenodd" d="M114.53 45.594L125.264 101.328C125.367 102.909 125.22 104.108 124.866 105.278C124.013 108 122.04 110.215 119.336 111.472C116.635 112.721 113.553 112.897 110.63 111.956L102.22 108.781L95.861 125.624C94.3961 129.504 90.0636 131.461 86.1839 129.997L61.8132 120.796C57.9335 119.331 55.9759 114.999 57.4408 111.119L63.8003 94.2767L54.6201 90.8109C53.4596 90.2957 52.3689 89.5956 51.407 88.786C46.6511 84.5954 46.2 77.6863 50.3878 73.4256L95.6047 38.4125C97.1662 37.1712 99.1419 36.3379 101.275 36.1285C107.499 35.3889 113.447 39.6641 114.53 45.594Z" fill="#E1D2FF" fill-opacity="0.5"/>
<path d="M125.264 101.328L126.201 101.267C126.198 101.228 126.193 101.189 126.186 101.151L125.264 101.328ZM114.53 45.594L113.607 45.7627L113.609 45.7716L114.53 45.594ZM124.866 105.278L125.761 105.558L125.764 105.55L124.866 105.278ZM119.336 111.472L119.73 112.323L119.732 112.323L119.336 111.472ZM110.63 111.956L110.298 112.834C110.312 112.84 110.327 112.845 110.342 112.849L110.63 111.956ZM102.22 108.781L102.552 107.903C102.319 107.815 102.061 107.824 101.834 107.926C101.607 108.029 101.43 108.217 101.342 108.45L102.22 108.781ZM95.861 125.624L96.7391 125.956L95.861 125.624ZM86.1839 129.997L85.8523 130.875L86.1839 129.997ZM61.8132 120.796L61.4815 121.674L61.4815 121.674L61.8132 120.796ZM57.4408 111.119L58.3189 111.451L57.4408 111.119ZM63.8003 94.2767L64.6784 94.6081C64.8615 94.1232 64.6168 93.5817 64.1319 93.3986L63.8003 94.2767ZM54.6201 90.8109L54.2391 91.6687C54.2554 91.6759 54.2718 91.6827 54.2885 91.689L54.6201 90.8109ZM51.407 88.786L50.7864 89.4901C50.7917 89.4948 50.797 89.4994 50.8024 89.504L51.407 88.786ZM50.3878 73.4256L49.8131 72.6836C49.7797 72.7095 49.748 72.7376 49.7184 72.7678L50.3878 73.4256ZM95.6047 38.4125L96.1794 39.1546L96.1888 39.1472L95.6047 38.4125ZM101.275 36.1285L101.367 37.0625C101.373 37.0619 101.38 37.0612 101.386 37.0605L101.275 36.1285ZM126.186 101.151L115.452 45.4164L113.609 45.7716L124.343 101.506L126.186 101.151ZM125.764 105.55C126.154 104.262 126.31 102.949 126.201 101.267L124.328 101.389C124.423 102.87 124.286 103.955 123.967 105.006L125.764 105.55ZM119.732 112.323C122.664 110.96 124.826 108.544 125.761 105.558L123.97 104.997C123.199 107.456 121.416 109.47 118.941 110.621L119.732 112.323ZM110.342 112.849C113.483 113.861 116.809 113.675 119.73 112.323L118.942 110.62C116.461 111.768 113.622 111.934 110.917 111.063L110.342 112.849ZM101.889 109.659L110.298 112.834L110.961 111.078L102.552 107.903L101.889 109.659ZM101.342 108.45L94.9829 125.293L96.7391 125.956L103.099 109.113L101.342 108.45ZM94.9829 125.293C93.7011 128.687 89.9102 130.4 86.5155 129.119L85.8523 130.875C90.2169 132.523 95.0911 130.32 96.7391 125.956L94.9829 125.293ZM86.5155 129.119L62.1448 119.918L61.4815 121.674L85.8523 130.875L86.5155 129.119ZM62.1448 119.918C58.7501 118.636 57.0371 114.846 58.3189 111.451L56.5627 110.788C54.9147 115.152 57.117 120.026 61.4815 121.674L62.1448 119.918ZM58.3189 111.451L64.6784 94.6081L62.9222 93.9452L56.5627 110.788L58.3189 111.451ZM54.2885 91.689L63.4687 95.1547L64.1319 93.3986L54.9517 89.9329L54.2885 91.689ZM50.8024 89.504C51.8263 90.3658 52.9915 91.1148 54.2391 91.6687L55.0011 89.9531C53.9277 89.4766 52.9114 88.8254 52.0115 88.0679L50.8024 89.504ZM49.7184 72.7678C45.1154 77.451 45.6682 84.9803 50.7864 89.4901L52.0276 88.0818C47.634 84.2104 47.2847 77.9216 51.0572 74.0834L49.7184 72.7678ZM95.0301 37.6705L49.8131 72.6836L50.9624 74.1676L96.1794 39.1546L95.0301 37.6705ZM101.184 35.1944C98.8673 35.4218 96.7212 36.326 95.0206 37.6779L96.1888 39.1472C97.6112 38.0164 99.4165 37.254 101.367 37.0625L101.184 35.1944ZM115.454 45.4253C114.277 38.9831 107.855 34.4015 101.165 35.1965L101.386 37.0605C107.143 36.3764 112.617 40.3451 113.607 45.7627L115.454 45.4253Z" fill="url(#paint1_linear_2915_40891)" mask="url(#path-3-outside-1_2915_40891)"/>
</g>
<g filter="url(#filter2_bd_2915_40891)">
<path d="M98.0164 42.5952C97.3002 43.2973 97.2427 44.4372 97.8534 45.1964C98.2299 45.5624 98.7322 45.7903 99.2554 45.7822C99.7786 45.7741 100.285 45.559 100.67 45.1722L100.727 45.1245C101.992 44.049 103.795 43.8548 105.216 44.646C106.132 45.1772 107.303 44.8677 107.848 43.968C108.378 43.0501 108.086 41.8954 107.2 41.37C104.327 39.7866 100.723 40.2021 98.232 42.4121L98.0164 42.5952Z" fill="url(#paint2_linear_2915_40891)"/>
<path d="M100.623 45.1245L100.622 45.1244L100.627 45.1207L100.683 45.073C101.97 43.9798 103.803 43.7816 105.249 44.587L105.249 44.587L105.25 44.5876C106.133 45.0999 107.264 44.8017 107.79 43.9336C108.302 43.0471 108.019 41.9346 107.167 41.4287C104.319 39.8599 100.747 40.2716 98.2768 42.4627L98.2768 42.4627L98.2757 42.4636L98.062 42.6451C97.3732 43.322 97.3178 44.4193 97.9035 45.1509C98.2686 45.5045 98.7529 45.7224 99.2543 45.7146C99.7595 45.7068 100.249 45.4991 100.623 45.1245Z" stroke="url(#paint3_linear_2915_40891)" stroke-opacity="0.5" stroke-width="0.135145"/>
</g>
<defs>
<filter id="filter0_f_2915_40891" x="29.9579" y="28.9286" width="72.2893" height="68.4431" filterUnits="userSpaceOnUse" color-interpolation-filters="sRGB">
<feFlood flood-opacity="0" result="BackgroundImageFix"/>
<feBlend mode="normal" in="SourceGraphic" in2="BackgroundImageFix" result="shape"/>
<feGaussianBlur stdDeviation="8.91655" result="effect1_foregroundBlur_2915_40891"/>
</filter>
<filter id="filter1_b_2915_40891" x="24.056" y="12.5809" width="124.704" height="141.367" filterUnits="userSpaceOnUse" color-interpolation-filters="sRGB">
<feFlood flood-opacity="0" result="BackgroundImageFix"/>
<feGaussianBlur in="BackgroundImageFix" stdDeviation="11.263"/>
<feComposite in2="SourceAlpha" operator="in" result="effect1_backgroundBlur_2915_40891"/>
<feBlend mode="normal" in="SourceGraphic" in2="effect1_backgroundBlur_2915_40891" result="shape"/>
</filter>
<filter id="filter2_bd_2915_40891" x="87.2977" y="30.2801" width="30.9505" height="25.638" filterUnits="userSpaceOnUse" color-interpolation-filters="sRGB">
<feFlood flood-opacity="0" result="BackgroundImageFix"/>
<feGaussianBlur in="BackgroundImageFix" stdDeviation="5.06794"/>
<feComposite in2="SourceAlpha" operator="in" result="effect1_backgroundBlur_2915_40891"/>
<feColorMatrix in="SourceAlpha" type="matrix" values="0 0 0 0 0 0 0 0 0 0 0 0 0 0 0 0 0 0 127 0" result="hardAlpha"/>
<feOffset dx="3.37863" dy="3.37863"/>
<feGaussianBlur stdDeviation="3.37863"/>
<feColorMatrix type="matrix" values="0 0 0 0 0.57165 0 0 0 0 0.15375 0 0 0 0 0.9 0 0 0 0.5 0"/>
<feBlend mode="normal" in2="effect1_backgroundBlur_2915_40891" result="effect2_dropShadow_2915_40891"/>
<feBlend mode="normal" in="SourceGraphic" in2="effect2_dropShadow_2915_40891" result="shape"/>
</filter>
<linearGradient id="paint0_linear_2915_40891" x1="74.4577" y1="86.216" x2="50.057" y2="109.046" gradientUnits="userSpaceOnUse">
<stop stop-color="#EF8DFF"/>
<stop offset="1" stop-color="#C10FFF"/>
</linearGradient>
<linearGradient id="paint1_linear_2915_40891" x1="77.034" y1="37.2996" x2="111.29" y2="120.723" gradientUnits="userSpaceOnUse">
<stop stop-color="white" stop-opacity="0.25"/>
<stop offset="1" stop-color="white" stop-opacity="0"/>
</linearGradient>
<linearGradient id="paint2_linear_2915_40891" x1="103.04" y1="39.0235" x2="108.301" y2="45.5416" gradientUnits="userSpaceOnUse">
<stop stop-color="white"/>
<stop offset="1" stop-color="white" stop-opacity="0.2"/>
</linearGradient>
<linearGradient id="paint3_linear_2915_40891" x1="105.891" y1="44.6998" x2="101.739" y2="39.855" gradientUnits="userSpaceOnUse">
<stop stop-color="white"/>
<stop offset="1" stop-color="white" stop-opacity="0"/>
</linearGradient>
</defs>
</svg>
