<svg width="24" height="24" viewBox="0 0 24 24" fill="none" xmlns="http://www.w3.org/2000/svg">
<path d="M15.1057 10.9568L15.2282 10.2169L14.8574 10.1555L14.5862 10.4159L15.1057 10.9568ZM9.39717 10.9568L9.87965 10.3826L9.6153 10.1605L9.27466 10.2169L9.39717 10.9568ZM4 18.0103H3.25V18.3007L3.44562 18.5154L4 18.0103ZM20.5029 18.0103L21.0573 18.5154L21.2529 18.3007V18.0103H20.5029ZM15.4985 6.48519C15.4985 8.64158 13.9808 10.2204 12.3044 10.2204V11.7204C14.9846 11.7204 16.9985 9.28301 16.9985 6.48519H15.4985ZM12.3044 2.75C13.9808 2.75 15.4985 4.3288 15.4985 6.48519H16.9985C16.9985 3.68738 14.9846 1.25 12.3044 1.25V2.75ZM9.11035 6.48519C9.11035 4.3288 10.6281 2.75 12.3044 2.75V1.25C9.62427 1.25 7.61035 3.68738 7.61035 6.48519H9.11035ZM12.3044 10.2204C10.6281 10.2204 9.11035 8.64158 9.11035 6.48519H7.61035C7.61035 9.28301 9.62427 11.7204 12.3044 11.7204V10.2204ZM14.9832 11.6967C17.6682 12.1413 19.7529 14.4499 19.7529 17.0367H21.2529C21.2529 13.6433 18.5631 10.769 15.2282 10.2169L14.9832 11.6967ZM12.3033 12.7035C13.4689 12.7035 14.7177 12.3692 15.6252 11.4978L14.5862 10.4159C14.0406 10.9398 13.2136 11.2035 12.3033 11.2035V12.7035ZM8.91468 11.531C9.89906 12.3582 11.0115 12.7035 12.3033 12.7035V11.2035C11.3117 11.2035 10.5559 10.9509 9.87965 10.3826L8.91468 11.531ZM4.75 17.0367C4.75 14.4499 6.83465 12.1413 9.51967 11.6967L9.27466 10.2169C5.93976 10.769 3.25 13.6433 3.25 17.0367H4.75ZM4.75 18.0103V17.0367H3.25V18.0103H4.75ZM19.9485 17.5051C18.3286 19.283 15.355 20.2504 12.2514 20.2504C9.14786 20.2504 6.17429 19.283 4.55438 17.5051L3.44562 18.5154C5.45842 20.7244 8.91993 21.7504 12.2514 21.7504C15.5829 21.7504 19.0445 20.7244 21.0573 18.5154L19.9485 17.5051ZM19.7529 17.0367V18.0103H21.2529V17.0367H19.7529Z" fill="white"/>
</svg>
