<svg width="27" height="24" viewBox="0 0 27 24" fill="none" xmlns="http://www.w3.org/2000/svg">
<path d="M16.1057 10.9568L16.2282 10.2169L15.8574 10.1555L15.5862 10.4158L16.1057 10.9568ZM10.3972 10.9568L10.8796 10.3826L10.6153 10.1605L10.2747 10.2169L10.3972 10.9568ZM5 18.0103H4.25V18.3007L4.44562 18.5154L5 18.0103ZM21.5029 18.0103L22.0573 18.5154L22.2529 18.3007V18.0103H21.5029ZM16.4975 6.48519C16.4975 8.64158 14.9798 10.2204 13.3035 10.2204V11.7204C15.9836 11.7204 17.9975 9.28301 17.9975 6.48519H16.4975ZM13.3035 2.75C14.9798 2.75 16.4975 4.3288 16.4975 6.48519H17.9975C17.9975 3.68738 15.9836 1.25 13.3035 1.25V2.75ZM10.1094 6.48519C10.1094 4.3288 11.6271 2.75 13.3035 2.75V1.25C10.6233 1.25 8.60938 3.68738 8.60938 6.48519H10.1094ZM13.3035 10.2204C11.6271 10.2204 10.1094 8.64158 10.1094 6.48519H8.60938C8.60938 9.28301 10.6233 11.7204 13.3035 11.7204V10.2204ZM15.9832 11.6967C18.6682 12.1413 20.7529 14.4499 20.7529 17.0367H22.2529C22.2529 13.6433 19.5631 10.769 16.2282 10.2169L15.9832 11.6967ZM13.3033 12.7035C14.4689 12.7035 15.7177 12.3692 16.6252 11.4977L15.5862 10.4158C15.0406 10.9398 14.2136 11.2035 13.3033 11.2035V12.7035ZM9.91468 11.531C10.8991 12.3581 12.0115 12.7035 13.3033 12.7035V11.2035C12.3117 11.2035 11.5559 10.9508 10.8796 10.3826L9.91468 11.531ZM5.75 17.0367C5.75 14.4499 7.83465 12.1413 10.5197 11.6967L10.2747 10.2169C6.93976 10.769 4.25 13.6433 4.25 17.0367H5.75ZM5.75 18.0103V17.0367H4.25V18.0103H5.75ZM20.9485 17.5051C19.3286 19.2829 16.355 20.2504 13.2514 20.2504C10.1479 20.2504 7.17429 19.2829 5.55438 17.5051L4.44562 18.5154C6.45842 20.7244 9.91993 21.7504 13.2514 21.7504C16.5829 21.7504 20.0445 20.7244 22.0573 18.5154L20.9485 17.5051ZM20.7529 17.0367V18.0103H22.2529V17.0367H20.7529Z" fill="#6A56E8"/>
<path d="M1 14.7971H0.25V15.0876L0.44562 15.3023L1 14.7971ZM4.97689 9.59979L5.45937 9.02559L5.19502 8.80347L4.85438 8.85987L4.97689 9.59979ZM9.18321 9.59979L9.30572 8.85987L8.93486 8.79847L8.66373 9.05883L9.18321 9.59979ZM7.119 8.85981C6.01586 8.85981 4.96281 7.80944 4.96281 6.3049H3.46281C3.46281 8.45086 5.01205 10.3598 7.119 10.3598V8.85981ZM4.96281 6.3049C4.96281 4.80037 6.01586 3.75 7.119 3.75V2.25C5.01205 2.25 3.46281 4.15894 3.46281 6.3049H4.96281ZM8.94047 7.6698C8.53862 8.41834 7.84998 8.85981 7.119 8.85981V10.3598C8.49026 10.3598 9.64321 9.53208 10.2621 8.37928L8.94047 7.6698ZM7.119 3.75C7.89193 3.75 8.62062 4.2456 9.00762 5.07393L10.3666 4.43899C9.77722 3.17749 8.57213 2.25 7.119 2.25V3.75ZM1.75 14.7971V14.0798H0.25V14.7971H1.75ZM1.75 14.0798C1.75 12.2798 3.20645 10.6531 5.0994 10.3397L4.85438 8.85987C2.31156 9.28088 0.25 11.4732 0.25 14.0798H1.75ZM4.49441 10.174C5.26028 10.8175 6.1269 11.0842 7.11829 11.0842V9.58422C6.42715 9.58422 5.91716 9.41025 5.45937 9.02559L4.49441 10.174ZM7.11829 11.0842C8.01077 11.0842 8.9864 10.8286 9.7027 10.1408L8.66373 9.05883C8.30933 9.39917 7.75539 9.58422 7.11829 9.58422V11.0842ZM9.06071 10.3397C10.2781 10.5413 11.3341 11.2957 11.9203 12.3035L13.2169 11.5493C12.409 10.1604 10.9704 9.13549 9.30572 8.85987L9.06071 10.3397ZM5.11914 16.0662C3.62297 15.7772 2.34827 15.1633 1.55438 14.292L0.44562 15.3023C1.52652 16.4885 3.13958 17.2116 4.83464 17.539L5.11914 16.0662Z" fill="#6A56E8"/>
<path d="M25.5898 14.7415H26.3398V15.0319L26.1442 15.2466L25.5898 14.7415ZM21.613 9.54413L21.1305 8.96993L21.3948 8.74781L21.7355 8.8042L21.613 9.54413ZM17.4066 9.54413L17.2841 8.8042L17.655 8.7428L17.9261 9.00317L17.4066 9.54413ZM19.4708 8.80414C20.574 8.80414 21.627 7.75378 21.627 6.24924H23.127C23.127 8.3952 21.5778 10.3041 19.4708 10.3041V8.80414ZM21.627 6.24924C21.627 4.7447 20.574 3.69434 19.4708 3.69434V2.19434C21.5778 2.19434 23.127 4.10328 23.127 6.24924H21.627ZM17.6494 7.61413C18.0512 8.36268 18.7399 8.80414 19.4708 8.80414V10.3041C18.0996 10.3041 16.9466 9.47641 16.3278 8.32362L17.6494 7.61413ZM19.4708 3.69434C18.6979 3.69434 17.9692 4.18994 17.5822 5.01826L16.2232 4.38333C16.8126 3.12183 18.0177 2.19434 19.4708 2.19434V3.69434ZM24.8398 14.7415V14.0241H26.3398V14.7415H24.8398ZM24.8398 14.0241C24.8398 12.2241 23.3834 10.5975 21.4904 10.2841L21.7355 8.8042C24.2783 9.22522 26.3398 11.4176 26.3398 14.0241H24.8398ZM22.0954 10.1183C21.3296 10.7619 20.4629 11.0286 19.4716 11.0286V9.52855C20.1627 9.52855 20.6727 9.35459 21.1305 8.96993L22.0954 10.1183ZM19.4716 11.0286C18.5791 11.0286 17.6034 10.7729 16.8871 10.0851L17.9261 9.00317C18.2805 9.34351 18.8345 9.52855 19.4716 9.52855V11.0286ZM17.5291 10.2841C16.3118 10.4856 15.2557 11.2401 14.6696 12.2478L13.373 11.4936C14.1808 10.1048 15.6194 9.07983 17.2841 8.8042L17.5291 10.2841ZM21.4707 16.0106C22.9669 15.7216 24.2416 15.1076 25.0355 14.2363L26.1442 15.2466C25.0633 16.4329 23.4503 17.1559 21.7552 17.4833L21.4707 16.0106Z" fill="#6A56E8"/>
</svg>
