<svg width="36" height="36" viewBox="0 0 36 36" fill="none" xmlns="http://www.w3.org/2000/svg">
<path fill-rule="evenodd" clip-rule="evenodd" d="M18.2574 16.4556C21.5248 16.4556 24.1736 13.4434 24.1736 9.72779C24.1736 6.01213 21.5248 3 18.2574 3C14.99 3 12.3413 6.01213 12.3413 9.72779C12.3413 13.4434 14.99 16.4556 18.2574 16.4556ZM30.5551 25.5554C30.5551 21.0702 26.9743 17.1831 22.4593 16.4355C21.3695 17.4821 19.8127 17.9306 18.2558 17.9306C16.5432 17.9306 15.142 17.4821 13.8965 16.4355C9.38159 17.1831 5.80078 21.0702 5.80078 25.5554V27.0157C11.2498 32.996 25.106 32.996 30.5551 27.0157V25.5554Z" fill="#6A56E8"/>
</svg>
