<svg width="24" height="25" viewBox="0 0 24 25" fill="none" xmlns="http://www.w3.org/2000/svg">
<path d="M15.1057 11.4568L15.2282 10.7169L14.8574 10.6555L14.5862 10.9158L15.1057 11.4568ZM9.39717 11.4568L9.87965 10.8826L9.6153 10.6605L9.27466 10.7169L9.39717 11.4568ZM4 18.5102H3.25V18.8007L3.44562 19.0154L4 18.5102ZM20.5029 18.5102L21.0573 19.0154L21.2529 18.8007V18.5102H20.5029ZM15.4991 6.98519C15.4991 9.14158 13.9814 10.7204 12.305 10.7204V12.2204C14.9852 12.2204 16.9991 9.78301 16.9991 6.98519H15.4991ZM12.305 3.25C13.9814 3.25 15.4991 4.8288 15.4991 6.98519H16.9991C16.9991 4.18738 14.9852 1.75 12.305 1.75V3.25ZM9.11094 6.98519C9.11094 4.8288 10.6287 3.25 12.305 3.25V1.75C9.62486 1.75 7.61094 4.18738 7.61094 6.98519H9.11094ZM12.305 10.7204C10.6287 10.7204 9.11094 9.14158 9.11094 6.98519H7.61094C7.61094 9.78301 9.62486 12.2204 12.305 12.2204V10.7204ZM14.9832 12.1967C17.6682 12.6413 19.7529 14.9499 19.7529 17.5367H21.2529C21.2529 14.1433 18.5631 11.269 15.2282 10.7169L14.9832 12.1967ZM12.3033 13.2035C13.4689 13.2035 14.7177 12.8692 15.6252 11.9977L14.5862 10.9158C14.0406 11.4398 13.2136 11.7035 12.3033 11.7035V13.2035ZM8.91468 12.031C9.89906 12.8581 11.0115 13.2035 12.3033 13.2035V11.7035C11.3117 11.7035 10.5559 11.4508 9.87965 10.8826L8.91468 12.031ZM4.75 17.5367C4.75 14.9499 6.83465 12.6413 9.51967 12.1967L9.27466 10.7169C5.93976 11.269 3.25 14.1433 3.25 17.5367H4.75ZM4.75 18.5102V17.5367H3.25V18.5102H4.75ZM19.9485 18.0051C18.3286 19.7829 15.355 20.7504 12.2514 20.7504C9.14786 20.7504 6.17429 19.7829 4.55438 18.0051L3.44562 19.0154C5.45842 21.2244 8.91993 22.2504 12.2514 22.2504C15.5829 22.2504 19.0445 21.2244 21.0573 19.0154L19.9485 18.0051ZM19.7529 17.5367V18.5102H21.2529V17.5367H19.7529Z" fill="#6A56E8"/>
<path d="M11.498 14.5L10.3984 12.5H13.9984L12.998 14.5H11.498Z" stroke="#6A56E8" stroke-width="1.5" stroke-linecap="round"/>
<path d="M11.4985 14.5L10.3984 17.5L12.1984 19.5L13.9984 17.5L12.9985 14.5H11.4985Z" stroke="#6A56E8" stroke-width="1.5" stroke-linecap="round"/>
</svg>
