<svg width="35" height="11" viewBox="0 0 35 11" fill="none" xmlns="http://www.w3.org/2000/svg">
<g clip-path="url(#clip0_2915_44428)">
<path d="M23.0603 0.0168457C20.6571 0.0168457 18.5096 1.26244 18.5096 3.56377C18.5096 6.20297 22.3184 6.38526 22.3184 7.71111C22.3184 8.26938 21.6786 8.76911 20.5859 8.76911C19.0351 8.76911 17.8761 8.07083 17.8761 8.07083L17.3802 10.3931C17.3802 10.3931 18.7154 10.983 20.488 10.983C23.1154 10.983 25.1829 9.67621 25.1829 7.33553C25.1829 4.54674 21.3582 4.36987 21.3582 3.13925C21.3582 2.70193 21.8834 2.22277 22.973 2.22277C24.2024 2.22277 25.2054 2.7306 25.2054 2.7306L25.6907 0.487654C25.6907 0.487654 24.5994 0.0168457 23.0603 0.0168457ZM1.07381 0.186125L1.01562 0.524683C1.01562 0.524683 2.02663 0.709714 2.93721 1.07881C4.10965 1.50205 4.19317 1.74844 4.39063 2.51371L6.54233 10.8084H9.42669L13.8703 0.186125H10.9925L8.13725 7.40826L6.97214 1.28644C6.86529 0.585802 6.32405 0.186125 5.66155 0.186125H1.07381ZM15.0274 0.186125L12.77 10.8084H15.5141L17.7637 0.186125H15.0274ZM30.3327 0.186125C29.6709 0.186125 29.3203 0.540398 29.0631 1.15948L25.0427 10.8084H27.9204L28.4772 9.20024H31.9831L32.3217 10.8084H34.8609L32.6457 0.186125H30.3327ZM30.7069 3.05594L31.5599 7.04193H29.2747L30.7069 3.05594Z" fill="url(#paint0_linear_2915_44428)"/>
</g>
<defs>
<linearGradient id="paint0_linear_2915_44428" x1="1.003" y1="3.76407" x2="34.863" y2="3.76407" gradientUnits="userSpaceOnUse">
<stop stop-color="#20225F"/>
<stop offset="0.2" stop-color="#1A1F61"/>
<stop offset="0.410233" stop-color="#172272"/>
<stop offset="0.595197" stop-color="#152682"/>
<stop offset="0.802083" stop-color="#12288E"/>
<stop offset="1" stop-color="#0E2C9A"/>
</linearGradient>
<clipPath id="clip0_2915_44428">
<rect width="33.8792" height="11" fill="white" transform="translate(0.998047)"/>
</clipPath>
</defs>
</svg>
